<?xml version="1.0" encoding="utf-8"?>
<!-- Generator: Adobe Illustrator 26.2.0, SVG Export Plug-In . SVG Version: 6.00 Build 0)  -->
<svg version="1.1" id="Layer_1" xmlns="http://www.w3.org/2000/svg" xmlns:xlink="http://www.w3.org/1999/xlink" x="0px" y="0px"
	 viewBox="0 0 841.89 595.28" style="enable-background:new 0 0 841.89 595.28;" xml:space="preserve">
<style type="text/css">
	.st0{clip-path:url(#SVGID_00000085245707382990517830000010706598327035905178_);fill:#DFBFDB;}
	.st1{clip-path:url(#SVGID_00000085245707382990517830000010706598327035905178_);fill:#FFFFFF;}
	.st2{fill:#FFFFFF;}
</style>
<g>
	<g>
		<defs>
			<rect id="SVGID_1_" x="270.94" y="160.75" width="300" height="273.78"/>
		</defs>
		<clipPath id="SVGID_00000148646834198227217200000006470648205532033186_">
			<use xlink:href="#SVGID_1_"  style="overflow:visible;"/>
		</clipPath>
		<path style="clip-path:url(#SVGID_00000148646834198227217200000006470648205532033186_);fill:#DFBFDB;" d="M420.95,434.53
			c75.6,0,136.89-61.29,136.89-136.89s-61.29-136.89-136.89-136.89s-136.89,61.29-136.89,136.89S345.34,434.53,420.95,434.53"/>
		<path style="clip-path:url(#SVGID_00000148646834198227217200000006470648205532033186_);fill:#FFFFFF;" d="M440.68,240.05
			c-2.09,5.78-5.15,11.06-8.57,16.12c-3.55,5.26-7.24,10.42-10.88,15.62c-0.07,0.09-0.15,0.18-0.29,0.35
			c-5.96-8.6-12.36-16.77-17.06-26.06c-1.91-3.76-3.43-7.66-4.22-11.83c-2.35-12.38,6.67-24.39,19.2-25.52
			c11.72-1.06,22,7.11,23.57,18.74C443.02,231.82,442.15,235.99,440.68,240.05 M446.7,226.71c-1.44-10.52-9.32-19.27-19.68-21.7
			c-1.37-0.32-2.78-0.49-4.17-0.73h-3.75c-0.73,0.11-1.47,0.18-2.2,0.32c-10.36,2.01-17.34,7.98-20.72,17.98
			c-1.96,5.79-1.39,11.61,0.46,17.35c1.86,5.76,4.64,11.08,7.96,16.1c3.84,5.81,7.89,11.49,11.84,17.23c0.9,1.3,1.79,2.62,2.71,3.91
			c0.96,1.35,2.66,1.34,3.64,0c0.24-0.33,0.46-0.67,0.69-1.01c4.25-6.12,8.57-12.19,12.73-18.37c3.49-5.19,6.55-10.64,8.64-16.57
			C446.51,236.52,447.38,231.73,446.7,226.71"/>
		<path style="clip-path:url(#SVGID_00000148646834198227217200000006470648205532033186_);fill:#FFFFFF;" d="M420.95,238.92
			c-4.73-0.01-8.63-3.9-8.64-8.63c-0.01-4.77,3.88-8.68,8.65-8.69c4.77,0,8.67,3.9,8.67,8.66
			C429.63,235.03,425.72,238.93,420.95,238.92 M421.02,217.27c-7.16-0.02-13.02,5.79-13.04,12.93c-0.02,7.16,5.79,13.02,12.93,13.04
			c7.16,0.02,13.02-5.79,13.04-12.94C433.98,223.15,428.17,217.29,421.02,217.27"/>
	</g>
	<g>
		<path class="st2" d="M348.63,310.62v5.74h-3.02v-5.7l-6.39-10.58h3.23l4.77,7.93l4.81-7.93H355L348.63,310.62z"/>
		<path class="st2" d="M355.69,308.22c0-4.81,3.72-8.37,8.77-8.37c5.04,0,8.77,3.53,8.77,8.37s-3.72,8.37-8.77,8.37
			C359.41,316.59,355.69,313.03,355.69,308.22z M370.18,308.22c0-3.33-2.44-5.72-5.72-5.72c-3.28,0-5.72,2.39-5.72,5.72
			c0,3.32,2.44,5.72,5.72,5.72C367.74,313.94,370.18,311.54,370.18,308.22z"/>
		<path class="st2" d="M376.96,309.27v-9.19h3.02v9.07c0,3.35,1.51,4.79,4.14,4.79s4.12-1.44,4.12-4.79v-9.07h2.98v9.19
			c0,4.74-2.67,7.32-7.12,7.32C379.64,316.59,376.96,314.01,376.96,309.27z"/>
		<path class="st2" d="M406.74,316.36l-3.32-4.77c-0.21,0.02-0.42,0.02-0.63,0.02h-3.67v4.74h-3.02v-16.28h6.7
			c4.28,0,6.93,2.19,6.93,5.79c0,2.47-1.26,4.28-3.46,5.14l3.74,5.35H406.74z M402.65,302.64h-3.53v6.49h3.53
			c2.65,0,4.02-1.21,4.02-3.26C406.67,303.83,405.3,302.64,402.65,302.64z"/>
		<path class="st2" d="M420,300.08h3.02v13.72h8.51v2.56H420V300.08z"/>
		<path class="st2" d="M433.08,308.22c0-4.81,3.72-8.37,8.77-8.37c5.04,0,8.77,3.53,8.77,8.37s-3.72,8.37-8.77,8.37
			C436.8,316.59,433.08,313.03,433.08,308.22z M447.56,308.22c0-3.33-2.44-5.72-5.72-5.72s-5.72,2.39-5.72,5.72
			c0,3.32,2.44,5.72,5.72,5.72S447.56,311.54,447.56,308.22z"/>
		<path class="st2" d="M453.47,308.22c0-4.86,3.72-8.37,8.72-8.37c2.65,0,4.93,0.95,6.44,2.72l-1.96,1.84
			c-1.18-1.28-2.65-1.91-4.35-1.91c-3.37,0-5.81,2.37-5.81,5.72s2.44,5.72,5.81,5.72c1.7,0,3.16-0.63,4.35-1.93l1.96,1.86
			c-1.51,1.77-3.79,2.72-6.46,2.72C457.19,316.59,453.47,313.08,453.47,308.22z"/>
		<path class="st2" d="M483.06,312.59h-8.14l-1.6,3.77h-3.12l7.33-16.28h2.98l7.35,16.28h-3.16L483.06,312.59z M482.06,310.22
			l-3.07-7.12l-3.04,7.12H482.06z"/>
		<path class="st2" d="M490.66,300.08h3.02v13.72h8.51v2.56h-11.53V300.08z"/>
	</g>
	<g>
		<path class="st2" d="M359.93,342.57l1.05-2.35c1.3,1.05,3.37,1.79,5.37,1.79c2.53,0,3.6-0.91,3.6-2.11c0-3.51-9.67-1.21-9.67-7.26
			c0-2.63,2.09-4.86,6.56-4.86c1.95,0,4,0.51,5.42,1.44l-0.95,2.35c-1.47-0.86-3.07-1.28-4.49-1.28c-2.51,0-3.53,0.98-3.53,2.21
			c0,3.46,9.65,1.21,9.65,7.18c0,2.6-2.12,4.84-6.58,4.84C363.81,344.52,361.28,343.73,359.93,342.57z"/>
		<path class="st2" d="M376.38,337.2v-9.19h3.02v9.07c0,3.35,1.51,4.79,4.14,4.79s4.12-1.44,4.12-4.79v-9.07h2.98v9.19
			c0,4.74-2.67,7.32-7.11,7.32C379.06,344.52,376.38,341.94,376.38,337.2z"/>
		<path class="st2" d="M409.98,328.01v16.28h-2.49l-8.97-11.02v11.02h-3v-16.28H398l8.98,11.02v-11.02H409.98z"/>
		<path class="st2" d="M429.43,339.87c0,2.79-2.19,4.42-6.37,4.42h-8.09v-16.28h7.63c3.91,0,6,1.65,6,4.23
			c0,1.67-0.84,2.91-2.09,3.58C428.25,336.38,429.43,337.75,429.43,339.87z M417.99,330.38v4.49h4.28c2.09,0,3.28-0.74,3.28-2.23
			c0-1.51-1.19-2.26-3.28-2.26H417.99z M426.39,339.57c0-1.63-1.23-2.35-3.51-2.35h-4.88v4.69h4.88
			C425.16,341.91,426.39,341.19,426.39,339.57z"/>
		<path class="st2" d="M433.15,337.2v-9.19h3.02v9.07c0,3.35,1.51,4.79,4.14,4.79c2.63,0,4.11-1.44,4.11-4.79v-9.07h2.98v9.19
			c0,4.74-2.67,7.32-7.11,7.32C435.82,344.52,433.15,341.94,433.15,337.2z"/>
		<path class="st2" d="M462.93,344.29l-3.32-4.77c-0.21,0.02-0.42,0.02-0.63,0.02h-3.67v4.74h-3.02v-16.28h6.7
			c4.28,0,6.93,2.19,6.93,5.79c0,2.47-1.25,4.28-3.46,5.14l3.74,5.35H462.93z M458.84,330.57h-3.53v6.49h3.53
			c2.65,0,4.02-1.21,4.02-3.26C462.86,331.75,461.49,330.57,458.84,330.57z"/>
		<path class="st2" d="M476.52,338.55v5.74h-3.02v-5.7l-6.39-10.58h3.23l4.77,7.93l4.81-7.93h2.98L476.52,338.55z"/>
	</g>
	<g>
		<path class="st2" d="M360.03,363.89h2.86v6.49c-1.7,1.37-4.07,2.07-6.37,2.07c-5.05,0-8.77-3.51-8.77-8.37
			c0-4.86,3.72-8.37,8.81-8.37c2.72,0,5,0.91,6.53,2.65l-1.91,1.86c-1.28-1.28-2.74-1.86-4.49-1.86c-3.46,0-5.91,2.35-5.91,5.72
			c0,3.3,2.44,5.72,5.88,5.72c1.16,0,2.3-0.23,3.35-0.84V363.89z"/>
		<path class="st2" d="M378.16,372.22l-3.32-4.77c-0.21,0.02-0.42,0.02-0.63,0.02h-3.67v4.74h-3.02v-16.28h6.7
			c4.28,0,6.93,2.19,6.93,5.79c0,2.47-1.26,4.28-3.46,5.14l3.74,5.35H378.16z M374.07,358.5h-3.53v6.49h3.53
			c2.65,0,4.02-1.21,4.02-3.26C378.09,359.69,376.72,358.5,374.07,358.5z"/>
		<path class="st2" d="M384.01,364.08c0-4.81,3.72-8.37,8.77-8.37c5.04,0,8.77,3.53,8.77,8.37s-3.72,8.37-8.77,8.37
			C387.74,372.45,384.01,368.89,384.01,364.08z M398.5,364.08c0-3.33-2.44-5.72-5.72-5.72c-3.28,0-5.72,2.39-5.72,5.72
			c0,3.32,2.44,5.72,5.72,5.72C396.06,369.8,398.5,367.4,398.5,364.08z"/>
		<path class="st2" d="M404.33,364.08c0-4.81,3.72-8.37,8.77-8.37c5.04,0,8.77,3.53,8.77,8.37s-3.72,8.37-8.77,8.37
			C408.05,372.45,404.33,368.89,404.33,364.08z M418.82,364.08c0-3.33-2.44-5.72-5.72-5.72c-3.28,0-5.72,2.39-5.72,5.72
			c0,3.32,2.44,5.72,5.72,5.72C416.38,369.8,418.82,367.4,418.82,364.08z"/>
		<path class="st2" d="M440.75,372.22l-0.02-10.79l-5.35,8.93h-1.35l-5.35-8.79v10.65h-2.89v-16.28h2.49l6.46,10.79l6.34-10.79h2.49
			l0.02,16.28H440.75z"/>
		<path class="st2" d="M460.86,369.68v2.54h-12.21v-16.28h11.88v2.53h-8.86v4.23h7.86v2.49h-7.86v4.49H460.86z"/>
		<path class="st2" d="M475.5,372.22l-3.33-4.77c-0.21,0.02-0.42,0.02-0.63,0.02h-3.67v4.74h-3.02v-16.28h6.7
			c4.28,0,6.93,2.19,6.93,5.79c0,2.47-1.26,4.28-3.47,5.14l3.74,5.35H475.5z M471.4,358.5h-3.53v6.49h3.53
			c2.65,0,4.02-1.21,4.02-3.26C475.43,359.69,474.06,358.5,471.4,358.5z"/>
		<path class="st2" d="M481.3,370.5l1.05-2.35c1.3,1.05,3.37,1.79,5.37,1.79c2.53,0,3.6-0.91,3.6-2.11c0-3.51-9.67-1.21-9.67-7.26
			c0-2.63,2.09-4.86,6.56-4.86c1.96,0,4,0.51,5.42,1.44l-0.95,2.35c-1.47-0.86-3.07-1.28-4.49-1.28c-2.51,0-3.53,0.98-3.53,2.21
			c0,3.46,9.65,1.21,9.65,7.18c0,2.6-2.11,4.84-6.58,4.84C485.19,372.45,482.65,371.66,481.3,370.5z"/>
	</g>
</g>
</svg>
