<?xml version="1.0" encoding="utf-8"?>
<!-- Generator: Adobe Illustrator 26.2.0, SVG Export Plug-In . SVG Version: 6.00 Build 0)  -->
<svg version="1.1" id="Layer_1" xmlns="http://www.w3.org/2000/svg" xmlns:xlink="http://www.w3.org/1999/xlink" x="0px" y="0px"
	 viewBox="0 0 841.89 595.28" style="enable-background:new 0 0 841.89 595.28;" xml:space="preserve">
<style type="text/css">
	.st0{clip-path:url(#SVGID_00000092429835154040487090000004896708524866735804_);}
	.st1{clip-path:url(#SVGID_00000089532524795693671180000018135868995437812397_);fill:#F2C7DE;}
	.st2{clip-path:url(#SVGID_00000089532524795693671180000018135868995437812397_);}
	.st3{clip-path:url(#SVGID_00000011027153376962317460000005885454645391947184_);fill:#F2C7DE;}
	.st4{clip-path:url(#SVGID_00000044151470273684363920000000202938566413201046_);fill:#F2C7DE;}
	.st5{clip-path:url(#SVGID_00000028325630888194536910000006481316076007015610_);fill:#F2C7DE;}
	.st6{clip-path:url(#SVGID_00000000929631368390912720000012466102176441252240_);fill:#F2C7DE;}
</style>
<g>
	<g>
		<defs>
			<rect id="SVGID_1_" x="295.94" y="172.64" width="250" height="250"/>
		</defs>
		<clipPath id="SVGID_00000132786943766762673700000004898510169762969763_">
			<use xlink:href="#SVGID_1_"  style="overflow:visible;"/>
		</clipPath>
		<g style="clip-path:url(#SVGID_00000132786943766762673700000004898510169762969763_);">
			<defs>
				<rect id="SVGID_00000119797504756766641670000009896040428486537623_" x="295.94" y="172.64" width="250" height="250"/>
			</defs>
			<clipPath id="SVGID_00000144304853890693215900000014827632835608325770_">
				<use xlink:href="#SVGID_00000119797504756766641670000009896040428486537623_"  style="overflow:visible;"/>
			</clipPath>
			<path style="clip-path:url(#SVGID_00000144304853890693215900000014827632835608325770_);fill:#F2C7DE;" d="M420.94,422.64
				c69.03,0,125-55.97,125-125s-55.97-125-125-125s-125,55.97-125,125S351.91,422.64,420.94,422.64"/>
			<g style="clip-path:url(#SVGID_00000144304853890693215900000014827632835608325770_);">
				<g>
					<defs>
						
							<rect id="SVGID_00000007408235072671431430000014592285364845027722_" x="318.09" y="176.33" width="205.71" height="208.33"/>
					</defs>
					<clipPath id="SVGID_00000147211878014817529450000015784032276623327631_">
						<use xlink:href="#SVGID_00000007408235072671431430000014592285364845027722_"  style="overflow:visible;"/>
					</clipPath>
					<path style="clip-path:url(#SVGID_00000147211878014817529450000015784032276623327631_);fill:#F2C7DE;" d="M419.99,263.44
						c-1.64,0.09-3.19-0.97-3.22-1.57c-0.03-0.6,1.28-1.16,2.92-1.25c1.64-0.09,3,0.33,3.03,0.92
						C422.75,262.15,421.63,263.35,419.99,263.44 M414.77,253.78l3.39,2c-0.19,0.92-0.7,2.31-2.07,2.72
						c-1.24,0.37-2.71,0.08-3.75-0.76c-1.34-1.08-1.93-2.97-1.71-5.44l-2.31-0.21c-0.37,4.15,1.19,6.34,2.56,7.45
						c0.74,0.6,1.61,1,2.51,1.23c0.01,0.01,0.01,0.02,0.01,0.03c0.79,1.73,2.63,4.27,6.61,3.99c4.49-0.32,5.7-2.98,6.03-4.49
						c0,0,0-0.01,0-0.01c0.85-0.21,1.61-0.61,2.27-1.22c2.9-2.66,2.59-8.24,2.57-8.48l-2.32,0.15c0.08,1.3-0.09,5.02-1.83,6.62
						c-0.72,0.67-1.67,0.9-3.05,0.71c-0.02,0-1.61-0.01-2.49-0.95c-0.37-0.4-0.56-0.93-0.59-1.59l2.87-1.48
						c0.6-0.31,0.85-1.04,0.56-1.65l-1.25-2.64c-0.2-0.42-0.61-0.69-1.07-0.71l-4.67-0.23c-0.46-0.02-0.89,0.21-1.13,0.61
						l-1.58,2.63C413.98,252.65,414.17,253.43,414.77,253.78"/>
					<path style="clip-path:url(#SVGID_00000147211878014817529450000015784032276623327631_);fill:#F2C7DE;" d="M410.42,241.81
						h0.03c1.37,0,2.5,1.11,2.51,2.49l2.33-0.02c-0.03-2.65-2.19-4.79-4.84-4.79h-0.05c-2.67,0.03-4.82,2.22-4.79,4.89l2.33-0.02
						C407.92,242.97,409.04,241.83,410.42,241.81"/>
					<path style="clip-path:url(#SVGID_00000147211878014817529450000015784032276623327631_);fill:#F2C7DE;" d="M427.86,242.73
						c0.47-0.48,1.1-0.75,1.77-0.75h0.03c1.37,0,2.5,1.11,2.51,2.49l2.33-0.02c-0.03-2.65-2.19-4.79-4.84-4.79h-0.05
						c-1.29,0.01-2.5,0.53-3.41,1.45c-0.91,0.93-1.4,2.15-1.39,3.44l2.33-0.02C427.13,243.85,427.39,243.21,427.86,242.73"/>
					<path style="clip-path:url(#SVGID_00000147211878014817529450000015784032276623327631_);fill:#F2C7DE;" d="M427.16,315.89
						l-0.4,5.9l-5.74-1.44l-5.74,1.44l-0.4-5.9l-3.14-5.01l5.49-2.21l3.8-4.54l3.8,4.54l5.49,2.21L427.16,315.89z M421.02,300.51
						l-5.2,6.22l-7.53,3.03l4.31,6.87l0.55,8.09l7.87-1.97l7.87,1.97l0.55-8.09l4.31-6.87l-7.53-3.03L421.02,300.51z"/>
					<path style="clip-path:url(#SVGID_00000147211878014817529450000015784032276623327631_);fill:#F2C7DE;" d="M472.81,310.31
						c-0.5,4.81-3.13,10-7.03,13.89c-3.52,3.51-7.65,5.51-11.58,5.69c1.01-2,1.83-4.09,2.46-6.25c5.84-0.63,10.84-7.46,11.5-13.81
						c0.34-3.21-0.6-6.37-2.63-8.88c-1.87-2.31-4.47-3.77-7.37-4.26l0-5.69C467.28,292.55,473.79,300.97,472.81,310.31
						 M437.92,343.57c-4.92,2.71-7.98,7.98-7.98,13.75c0,8.74,7.11,15.85,15.85,15.85c0.17,0,0.31,0.14,0.31,0.31v6.01h-49.65v-6.01
						c0-0.17,0.14-0.31,0.31-0.31c8.74,0,15.85-7.11,15.85-15.85c0-5.77-3.06-11.04-7.98-13.75c-10.79-5.94-17.59-17.14-17.91-29.38
						v-29.69h7.45c-0.07,2.22,0.26,4.55,1.53,6.42c1.33,1.96,3.43,3.05,6.25,3.25c0.58,0.04,1.15,0.06,1.69,0.06
						c3.36,0,5.95-0.77,7.7-2.3c1.53-1.34,2.39-3.19,2.54-5.53c0.04-0.55,0.12-1.19,0.21-1.87c0.47-0.01,1.4-0.02,2.58-0.04h10.85
						c0.07,0.51,0.13,1,0.15,1.44c0.16,2.33,1.01,4.19,2.55,5.53c1.75,1.53,4.33,2.29,7.69,2.29c0.55,0,1.11-0.02,1.69-0.06
						c2.81-0.19,4.91-1.29,6.25-3.25c1.18-1.74,1.53-3.88,1.51-5.95h8.49v28.81l0,0.51C455.64,326.2,448.82,337.57,437.92,343.57
						 M376.11,324.2c-3.9-3.89-6.52-9.09-7.03-13.89c-1-9.56,5.83-18.15,15.3-19.41v5.66c-6.57,0.76-11.35,6.68-10.66,13.27
						c0.69,6.59,6.04,13.7,12.17,13.85c0.63,2.14,1.44,4.22,2.44,6.21C384.21,329.91,379.82,327.91,376.11,324.2 M385.27,321.3
						c-4.54-0.66-8.69-6.51-9.23-11.71c-0.27-2.6,0.49-5.15,2.13-7.18c1.57-1.93,3.77-3.15,6.21-3.5l0,14.38
						C384.38,316.02,384.69,318.7,385.27,321.3 M396.53,283.56c0.13-1.44,0.45-3.01,0.97-4.64c1.19-3.73,4.35-4.93,4.55-5l0,0.01
						l0.08-0.04c0.02-0.01,1.52-0.49,6.85,0.67c3.72,0.81,3.53,4.33,2.85,9.2c-0.13,0.9-0.24,1.75-0.29,2.48
						c-0.11,1.69-0.7,3.01-1.75,3.93c-1.55,1.35-4.12,1.93-7.7,1.67c-2.09-0.14-3.56-0.88-4.48-2.24c-0.68-1-1.05-2.39-1.12-4.02
						l0.15-0.01C396.63,285.53,396.56,284.77,396.53,283.56 M443.9,289.14c-0.92,1.36-2.39,2.09-4.48,2.23
						c-3.58,0.25-6.15-0.32-7.69-1.67c-1.05-0.92-1.64-2.24-1.75-3.93c-0.05-0.73-0.17-1.57-0.29-2.48
						c-0.68-4.88-0.87-8.39,2.85-9.21c2.89-0.63,4.66-0.77,5.67-0.77c0.73,0,1.07,0.07,1.15,0.1l0.1,0.04
						c0.03,0.01,3.33,1.19,4.55,5C445.43,282.95,445.4,286.94,443.9,289.14 M401.62,264.53c1.14,1.17,2.52,2.08,4.22,2.53
						c2.75,0.73,4.52,1.75,6.23,2.72c2.26,1.29,4.4,2.52,8.1,2.52c0.29,0,0.59-0.01,0.89-0.02c5.78-0.29,7.88-2.49,9.57-4.25
						c0.92-0.96,1.65-1.72,2.85-2.08c1.32-0.39,2.98-1.38,4.52-3.02c1.01,1.07,4.13,4.74,6.17,11.2c-1.66-1.93-3.57-2.73-3.91-2.85
						c-0.58-0.25-2.56-0.68-8.23,0.55c-5.36,1.17-5.35,6.15-4.87,10.17c-2.27,0.04-7.3,0.12-10.53,0.17h-2.27
						c0.44-3.97,0.33-8.74-4.91-9.87c-5.66-1.23-7.64-0.79-8.23-0.55c-0.35,0.13-2.29,0.94-3.96,2.9
						C397.98,271.18,399.26,267.5,401.62,264.53 M398.81,248.9c-0.15-3.93,1.57-16.87,8.18-21.61c3.14-2.25,7.52-2.82,11.17-2.82
						c3.79,0,6.81,0.62,6.87,0.63l0.1,0.01c5.31,0.65,11.2,3.31,14.55,18.15c2.95,13.06-3.33,19.43-6.84,20.46
						c-1.8,0.53-2.86,1.63-3.88,2.7c-1.55,1.62-3.15,3.29-8.01,3.54c-3.58,0.18-5.41-0.87-7.72-2.19c-1.75-1-3.74-2.14-6.79-2.95
						C399.69,263.01,398.9,251.24,398.81,248.9 M396.96,231.39c-0.97,0.65-1.99,1.33-6.43,0.51c-6.97-1.28-8.75-6.04-9.21-10.95
						l0.11-0.01c-0.11-1.34,0.12-3.56,1-4.05c0.68-0.36,2.03,0.15,3.73,1.42c6.87,5.12,13.74,6.51,16.38,6.88
						c1.31,0.18,1.84,0.68,2.06,1.07c-1.32,1.17-2.44,2.6-3.39,4.19C399.03,230.15,398.02,230.68,396.96,231.39 M404.95,220.11
						c1.79,0.05,3.33,0.09,3.94,0.25c1.36,0.35,1.11,2.36,1,2.95c-1.2,0.39-2.35,0.92-3.43,1.58c-0.59-0.89-1.68-1.74-3.61-2
						c-2.05-0.28-6.86-1.27-12.13-4.36C395.8,219.84,401.24,220.01,404.95,220.11 M432.52,220.18c0.62-0.03,2.09,0.18,3.79,0.42
						c4.24,0.61,10.78,1.52,16.78,0.62c-5.53,3.62-12.2,3.25-15.51,3.05l-0.33-0.02c-2.12-0.13-3.47,0.63-4.25,1.49
						c-0.92-0.69-1.9-1.26-2.95-1.71C430.54,222.31,431.45,220.24,432.52,220.18 M458.6,221.32c0.89,0.43,1.23,2.3,1.27,3.26
						l-0.18,0.77c-1.2,5.1-2.57,10.88-11.13,11.25c-4.28,0.21-4.97-0.89-5.76-2.14c-0.74-1.16-1.67-2.57-4.71-2.64
						c-0.98-1.79-2.07-3.31-3.3-4.56c0.35-0.36,1.03-0.76,2.33-0.69l0.32,0.02c3.46,0.21,11.59,0.73,17.97-4.1
						C456.83,221.43,457.96,221.01,458.6,221.32 M458.16,313.3l0-14.25c2.18,0.47,4.14,1.61,5.57,3.37c1.65,2.03,2.4,4.58,2.13,7.18
						c-0.52,4.93-4.29,10.49-8.56,11.58C457.85,318.62,458.16,315.98,458.16,313.3 M458.15,288.65v-6.49h-10.04
						c-1.21-13.07-7.33-19.78-8.63-21.06c2.63-3.8,4.38-9.83,2.45-18.36c-0.73-3.22-1.6-6.02-2.63-8.42
						c0.75,0.24,1.09,0.71,1.53,1.4c1.13,1.77,2.44,3.23,6.86,3.23c0.31,0,0.63-0.01,0.96-0.02c10.33-0.44,12.04-7.72,13.29-13.03
						l0.22-0.92c0.88-3.63-0.91-5.35-2.06-6.06c-1.39-0.85-2.91-0.93-3.08-0.94l-0.22-0.01l-0.21,0.07c-6.4,2.23-14.89,1-19.97,0.27
						c-1.97-0.28-3.42-0.48-4.25-0.44c-2.65,0.15-3.97,3.39-4.55,5.42c-0.77-0.2-1.56-0.37-2.39-0.47
						c-0.73-0.15-7.05-1.35-13.17-0.12c0.08-1.76-0.45-3.97-2.82-4.59c-0.87-0.22-2.37-0.26-4.46-0.31
						c-5.1-0.13-13.63-0.35-19.41-3.75c-0.18-0.1-1.77-0.97-3.53-0.33c-1.26,0.47-3.36,1.8-3.21,5.54
						c0.25,6.03,1.75,13.19,11.23,14.93c1.57,0.29,2.81,0.41,3.81,0.41c2.2,0,3.3-0.58,4.34-1.27c0.52-0.35,0.93-0.61,1.76-0.63
						c-2.83,6.05-3.65,13.31-3.53,16.3c0.1,2.54,0.65,9.14,3.65,13.7c-5.06,6.03-5.91,14.64-5.94,19.47h-9.8l0,6.39
						c-10.87,1.27-18.76,11.09-17.61,22c0.56,5.32,3.43,11.04,7.69,15.29c4.13,4.12,9.07,6.4,13.79,6.4c0.45,0,0.9-0.03,1.34-0.07
						c3.3,5.53,8.05,10.21,13.91,13.43c4.18,2.3,6.77,6.78,6.77,11.71c0,7.45-6.07,13.52-13.52,13.52c-1.45,0-2.63,1.18-2.63,2.63
						v8.33h54.3v-8.33c0-1.45-1.18-2.63-2.63-2.63c-7.46,0-13.52-6.07-13.52-13.52c0-4.93,2.59-9.41,6.77-11.71
						c5.84-3.22,10.59-7.88,13.89-13.4c0.24,0.01,0.48,0.04,0.72,0.04c4.71,0,9.66-2.28,13.79-6.4c4.26-4.25,7.14-9.97,7.69-15.29
						C476.24,299.85,468.69,290.23,458.15,288.65"/>
				</g>
			</g>
			<g style="clip-path:url(#SVGID_00000144304853890693215900000014827632835608325770_);">
				<g>
					<defs>
						
							<rect id="SVGID_00000099648366725083349660000015493693359634270853_" x="318.09" y="176.33" width="205.71" height="208.33"/>
					</defs>
					<clipPath id="SVGID_00000015330030368181305000000017693152515080142257_">
						<use xlink:href="#SVGID_00000099648366725083349660000015493693359634270853_"  style="overflow:visible;"/>
					</clipPath>
					<path style="clip-path:url(#SVGID_00000015330030368181305000000017693152515080142257_);fill:#F2C7DE;" d="M419.99,263.44
						c-1.64,0.09-3.19-0.97-3.22-1.57c-0.03-0.6,1.28-1.16,2.92-1.25c1.64-0.09,3,0.33,3.03,0.92
						C422.75,262.15,421.63,263.35,419.99,263.44 M414.77,253.78l3.39,2c-0.19,0.92-0.7,2.31-2.07,2.72
						c-1.24,0.37-2.71,0.08-3.75-0.76c-1.34-1.08-1.93-2.97-1.71-5.44l-2.31-0.21c-0.37,4.15,1.19,6.34,2.56,7.45
						c0.74,0.6,1.61,1,2.51,1.23c0.01,0.01,0.01,0.02,0.01,0.03c0.79,1.73,2.63,4.27,6.61,3.99c4.49-0.32,5.7-2.98,6.03-4.49
						c0,0,0-0.01,0-0.01c0.85-0.21,1.61-0.61,2.27-1.22c2.9-2.66,2.59-8.24,2.57-8.48l-2.32,0.15c0.08,1.3-0.09,5.02-1.83,6.62
						c-0.72,0.67-1.67,0.9-3.05,0.71c-0.02,0-1.61-0.01-2.49-0.95c-0.37-0.4-0.56-0.93-0.59-1.59l2.87-1.48
						c0.6-0.31,0.85-1.04,0.56-1.65l-1.25-2.64c-0.2-0.42-0.61-0.69-1.07-0.71l-4.67-0.23c-0.46-0.02-0.89,0.21-1.13,0.61
						l-1.58,2.63C413.98,252.65,414.17,253.43,414.77,253.78"/>
					<path style="clip-path:url(#SVGID_00000015330030368181305000000017693152515080142257_);fill:#F2C7DE;" d="M410.42,241.81
						h0.03c1.37,0,2.5,1.11,2.51,2.49l2.33-0.02c-0.03-2.65-2.19-4.79-4.84-4.79h-0.05c-2.67,0.03-4.82,2.22-4.79,4.89l2.33-0.02
						C407.92,242.97,409.04,241.83,410.42,241.81"/>
					<path style="clip-path:url(#SVGID_00000015330030368181305000000017693152515080142257_);fill:#F2C7DE;" d="M427.86,242.73
						c0.47-0.48,1.1-0.75,1.77-0.75h0.03c1.37,0,2.5,1.11,2.51,2.49l2.33-0.02c-0.03-2.65-2.19-4.79-4.84-4.79h-0.05
						c-1.29,0.01-2.5,0.53-3.41,1.45c-0.91,0.93-1.4,2.15-1.39,3.44l2.33-0.02C427.13,243.85,427.39,243.21,427.86,242.73"/>
					<path style="clip-path:url(#SVGID_00000015330030368181305000000017693152515080142257_);fill:#F2C7DE;" d="M427.16,315.89
						l-0.4,5.9l-5.74-1.44l-5.74,1.44l-0.4-5.9l-3.14-5.01l5.49-2.21l3.8-4.54l3.8,4.54l5.49,2.21L427.16,315.89z M421.02,300.51
						l-5.2,6.22l-7.53,3.03l4.31,6.87l0.55,8.09l7.87-1.97l7.87,1.97l0.55-8.09l4.31-6.87l-7.53-3.03L421.02,300.51z"/>
					<path style="clip-path:url(#SVGID_00000015330030368181305000000017693152515080142257_);fill:#F2C7DE;" d="M472.81,310.31
						c-0.5,4.81-3.13,10-7.03,13.89c-3.52,3.51-7.65,5.51-11.58,5.69c1.01-2,1.83-4.09,2.46-6.25c5.84-0.63,10.84-7.46,11.5-13.81
						c0.34-3.21-0.6-6.37-2.63-8.88c-1.87-2.31-4.47-3.77-7.37-4.26l0-5.69C467.28,292.55,473.79,300.97,472.81,310.31
						 M437.92,343.57c-4.92,2.71-7.98,7.98-7.98,13.75c0,8.74,7.11,15.85,15.85,15.85c0.17,0,0.31,0.14,0.31,0.31v6.01h-49.65v-6.01
						c0-0.17,0.14-0.31,0.31-0.31c8.74,0,15.85-7.11,15.85-15.85c0-5.77-3.06-11.04-7.98-13.75c-10.79-5.94-17.59-17.14-17.91-29.38
						v-29.69h7.45c-0.07,2.22,0.26,4.55,1.53,6.42c1.33,1.96,3.43,3.05,6.25,3.25c0.58,0.04,1.15,0.06,1.69,0.06
						c3.36,0,5.95-0.77,7.7-2.3c1.53-1.34,2.39-3.19,2.54-5.53c0.04-0.55,0.12-1.19,0.21-1.87c0.47-0.01,1.4-0.02,2.58-0.04h10.85
						c0.07,0.51,0.13,1,0.15,1.44c0.16,2.33,1.01,4.19,2.55,5.53c1.75,1.53,4.33,2.29,7.69,2.29c0.55,0,1.11-0.02,1.69-0.06
						c2.81-0.19,4.91-1.29,6.25-3.25c1.18-1.74,1.53-3.88,1.51-5.95h8.49v28.81l0,0.51C455.64,326.2,448.82,337.57,437.92,343.57
						 M376.11,324.2c-3.9-3.89-6.52-9.09-7.03-13.89c-1-9.56,5.83-18.15,15.3-19.41v5.66c-6.57,0.76-11.35,6.68-10.66,13.27
						c0.69,6.59,6.04,13.7,12.17,13.85c0.63,2.14,1.44,4.22,2.44,6.21C384.21,329.91,379.82,327.91,376.11,324.2 M385.27,321.3
						c-4.54-0.66-8.69-6.51-9.23-11.71c-0.27-2.6,0.49-5.15,2.13-7.18c1.57-1.93,3.77-3.15,6.21-3.5l0,14.38
						C384.38,316.02,384.69,318.7,385.27,321.3 M396.53,283.56c0.13-1.44,0.45-3.01,0.97-4.64c1.19-3.73,4.35-4.93,4.55-5l0,0.01
						l0.08-0.04c0.02-0.01,1.52-0.49,6.85,0.67c3.72,0.81,3.53,4.33,2.85,9.2c-0.13,0.9-0.24,1.75-0.29,2.48
						c-0.11,1.69-0.7,3.01-1.75,3.93c-1.55,1.35-4.12,1.93-7.7,1.67c-2.09-0.14-3.56-0.88-4.48-2.24c-0.68-1-1.05-2.39-1.12-4.02
						l0.15-0.01C396.63,285.53,396.56,284.77,396.53,283.56 M443.9,289.14c-0.92,1.36-2.39,2.09-4.48,2.23
						c-3.58,0.25-6.15-0.32-7.69-1.67c-1.05-0.92-1.64-2.24-1.75-3.93c-0.05-0.73-0.17-1.57-0.29-2.48
						c-0.68-4.88-0.87-8.39,2.85-9.21c2.89-0.63,4.66-0.77,5.67-0.77c0.73,0,1.07,0.07,1.15,0.1l0.1,0.04
						c0.03,0.01,3.33,1.19,4.55,5C445.43,282.95,445.4,286.94,443.9,289.14 M401.62,264.53c1.14,1.17,2.52,2.08,4.22,2.53
						c2.75,0.73,4.52,1.75,6.23,2.72c2.26,1.29,4.4,2.52,8.1,2.52c0.29,0,0.59-0.01,0.89-0.02c5.78-0.29,7.88-2.49,9.57-4.25
						c0.92-0.96,1.65-1.72,2.85-2.08c1.32-0.39,2.98-1.38,4.52-3.02c1.01,1.07,4.13,4.74,6.17,11.2c-1.66-1.93-3.57-2.73-3.91-2.85
						c-0.58-0.25-2.56-0.68-8.23,0.55c-5.36,1.17-5.35,6.15-4.87,10.17c-2.27,0.04-7.3,0.12-10.53,0.17h-2.27
						c0.44-3.97,0.33-8.74-4.91-9.87c-5.66-1.23-7.64-0.79-8.23-0.55c-0.35,0.13-2.29,0.94-3.96,2.9
						C397.98,271.18,399.26,267.5,401.62,264.53 M398.81,248.9c-0.15-3.93,1.57-16.87,8.18-21.61c3.14-2.25,7.52-2.82,11.17-2.82
						c3.79,0,6.81,0.62,6.87,0.63l0.1,0.01c5.31,0.65,11.2,3.31,14.55,18.15c2.95,13.06-3.33,19.43-6.84,20.46
						c-1.8,0.53-2.86,1.63-3.88,2.7c-1.55,1.62-3.15,3.29-8.01,3.54c-3.58,0.18-5.41-0.87-7.72-2.19c-1.75-1-3.74-2.14-6.79-2.95
						C399.69,263.01,398.9,251.24,398.81,248.9 M396.96,231.39c-0.97,0.65-1.99,1.33-6.43,0.51c-6.97-1.28-8.75-6.04-9.21-10.95
						l0.11-0.01c-0.11-1.34,0.12-3.56,1-4.05c0.68-0.36,2.03,0.15,3.73,1.42c6.87,5.12,13.74,6.51,16.38,6.88
						c1.31,0.18,1.84,0.68,2.06,1.07c-1.32,1.17-2.44,2.6-3.39,4.19C399.03,230.15,398.02,230.68,396.96,231.39 M404.95,220.11
						c1.79,0.05,3.33,0.09,3.94,0.25c1.36,0.35,1.11,2.36,1,2.95c-1.2,0.39-2.35,0.92-3.43,1.58c-0.59-0.89-1.68-1.74-3.61-2
						c-2.05-0.28-6.86-1.27-12.13-4.36C395.8,219.84,401.24,220.01,404.95,220.11 M432.52,220.18c0.62-0.03,2.09,0.18,3.79,0.42
						c4.24,0.61,10.78,1.52,16.78,0.62c-5.53,3.62-12.2,3.25-15.51,3.05l-0.33-0.02c-2.12-0.13-3.47,0.63-4.25,1.49
						c-0.92-0.69-1.9-1.26-2.95-1.71C430.54,222.31,431.45,220.24,432.52,220.18 M458.6,221.32c0.89,0.43,1.23,2.3,1.27,3.26
						l-0.18,0.77c-1.2,5.1-2.57,10.88-11.13,11.25c-4.28,0.21-4.97-0.89-5.76-2.14c-0.74-1.16-1.67-2.57-4.71-2.64
						c-0.98-1.79-2.07-3.31-3.3-4.56c0.35-0.36,1.03-0.76,2.33-0.69l0.32,0.02c3.46,0.21,11.59,0.73,17.97-4.1
						C456.83,221.43,457.96,221.01,458.6,221.32 M458.16,313.3l0-14.25c2.18,0.47,4.14,1.61,5.57,3.37c1.65,2.03,2.4,4.58,2.13,7.18
						c-0.52,4.93-4.29,10.49-8.56,11.58C457.85,318.62,458.16,315.98,458.16,313.3 M458.15,288.65v-6.49h-10.04
						c-1.21-13.07-7.33-19.78-8.63-21.06c2.63-3.8,4.38-9.83,2.45-18.36c-0.73-3.22-1.6-6.02-2.63-8.42
						c0.75,0.24,1.09,0.71,1.53,1.4c1.13,1.77,2.44,3.23,6.86,3.23c0.31,0,0.63-0.01,0.96-0.02c10.33-0.44,12.04-7.72,13.29-13.03
						l0.22-0.92c0.88-3.63-0.91-5.35-2.06-6.06c-1.39-0.85-2.91-0.93-3.08-0.94l-0.22-0.01l-0.21,0.07c-6.4,2.23-14.89,1-19.97,0.27
						c-1.97-0.28-3.42-0.48-4.25-0.44c-2.65,0.15-3.97,3.39-4.55,5.42c-0.77-0.2-1.56-0.37-2.39-0.47
						c-0.73-0.15-7.05-1.35-13.17-0.12c0.08-1.76-0.45-3.97-2.82-4.59c-0.87-0.22-2.37-0.26-4.46-0.31
						c-5.1-0.13-13.63-0.35-19.41-3.75c-0.18-0.1-1.77-0.97-3.53-0.33c-1.26,0.47-3.36,1.8-3.21,5.54
						c0.25,6.03,1.75,13.19,11.23,14.93c1.57,0.29,2.81,0.41,3.81,0.41c2.2,0,3.3-0.58,4.34-1.27c0.52-0.35,0.93-0.61,1.76-0.63
						c-2.83,6.05-3.65,13.31-3.53,16.3c0.1,2.54,0.65,9.14,3.65,13.7c-5.06,6.03-5.91,14.64-5.94,19.47h-9.8l0,6.39
						c-10.87,1.27-18.76,11.09-17.61,22c0.56,5.32,3.43,11.04,7.69,15.29c4.13,4.12,9.07,6.4,13.79,6.4c0.45,0,0.9-0.03,1.34-0.07
						c3.3,5.53,8.05,10.21,13.91,13.43c4.18,2.3,6.77,6.78,6.77,11.71c0,7.45-6.07,13.52-13.52,13.52c-1.45,0-2.63,1.18-2.63,2.63
						v8.33h54.3v-8.33c0-1.45-1.18-2.63-2.63-2.63c-7.46,0-13.52-6.07-13.52-13.52c0-4.93,2.59-9.41,6.77-11.71
						c5.84-3.22,10.59-7.88,13.89-13.4c0.24,0.01,0.48,0.04,0.72,0.04c4.71,0,9.66-2.28,13.79-6.4c4.26-4.25,7.14-9.97,7.69-15.29
						C476.24,299.85,468.69,290.23,458.15,288.65"/>
				</g>
			</g>
			<g style="clip-path:url(#SVGID_00000144304853890693215900000014827632835608325770_);">
				<g>
					<defs>
						
							<rect id="SVGID_00000117659025381141844180000010894541482884725635_" x="318.09" y="176.33" width="205.71" height="208.33"/>
					</defs>
					<clipPath id="SVGID_00000018926655028299257820000000765895599083757211_">
						<use xlink:href="#SVGID_00000117659025381141844180000010894541482884725635_"  style="overflow:visible;"/>
					</clipPath>
					<path style="clip-path:url(#SVGID_00000018926655028299257820000000765895599083757211_);fill:#F2C7DE;" d="M419.99,263.44
						c-1.64,0.09-3.19-0.97-3.22-1.57c-0.03-0.6,1.28-1.16,2.92-1.25c1.64-0.09,3,0.33,3.03,0.92
						C422.75,262.15,421.63,263.35,419.99,263.44 M414.77,253.78l3.39,2c-0.19,0.92-0.7,2.31-2.07,2.72
						c-1.24,0.37-2.71,0.08-3.75-0.76c-1.34-1.08-1.93-2.97-1.71-5.44l-2.31-0.21c-0.37,4.15,1.19,6.34,2.56,7.45
						c0.74,0.6,1.61,1,2.51,1.23c0.01,0.01,0.01,0.02,0.01,0.03c0.79,1.73,2.63,4.27,6.61,3.99c4.49-0.32,5.7-2.98,6.03-4.49
						c0,0,0-0.01,0-0.01c0.85-0.21,1.61-0.61,2.27-1.22c2.9-2.66,2.59-8.24,2.57-8.48l-2.32,0.15c0.08,1.3-0.09,5.02-1.83,6.62
						c-0.72,0.67-1.67,0.9-3.05,0.71c-0.02,0-1.61-0.01-2.49-0.95c-0.37-0.4-0.56-0.93-0.59-1.59l2.87-1.48
						c0.6-0.31,0.85-1.04,0.56-1.65l-1.25-2.64c-0.2-0.42-0.61-0.69-1.07-0.71l-4.67-0.23c-0.46-0.02-0.89,0.21-1.13,0.61
						l-1.58,2.63C413.98,252.65,414.17,253.43,414.77,253.78"/>
					<path style="clip-path:url(#SVGID_00000018926655028299257820000000765895599083757211_);fill:#F2C7DE;" d="M410.42,241.81
						h0.03c1.37,0,2.5,1.11,2.51,2.49l2.33-0.02c-0.03-2.65-2.19-4.79-4.84-4.79h-0.05c-2.67,0.03-4.82,2.22-4.79,4.89l2.33-0.02
						C407.92,242.97,409.04,241.83,410.42,241.81"/>
					<path style="clip-path:url(#SVGID_00000018926655028299257820000000765895599083757211_);fill:#F2C7DE;" d="M427.86,242.73
						c0.47-0.48,1.1-0.75,1.77-0.75h0.03c1.37,0,2.5,1.11,2.51,2.49l2.33-0.02c-0.03-2.65-2.19-4.79-4.84-4.79h-0.05
						c-1.29,0.01-2.5,0.53-3.41,1.45c-0.91,0.93-1.4,2.15-1.39,3.44l2.33-0.02C427.13,243.85,427.39,243.21,427.86,242.73"/>
					<path style="clip-path:url(#SVGID_00000018926655028299257820000000765895599083757211_);fill:#F2C7DE;" d="M427.16,315.89
						l-0.4,5.9l-5.74-1.44l-5.74,1.44l-0.4-5.9l-3.14-5.01l5.49-2.21l3.8-4.54l3.8,4.54l5.49,2.21L427.16,315.89z M421.02,300.51
						l-5.2,6.22l-7.53,3.03l4.31,6.87l0.55,8.09l7.87-1.97l7.87,1.97l0.55-8.09l4.31-6.87l-7.53-3.03L421.02,300.51z"/>
					<path style="clip-path:url(#SVGID_00000018926655028299257820000000765895599083757211_);fill:#F2C7DE;" d="M472.81,310.31
						c-0.5,4.81-3.13,10-7.03,13.89c-3.52,3.51-7.65,5.51-11.58,5.69c1.01-2,1.83-4.09,2.46-6.25c5.84-0.63,10.84-7.46,11.5-13.81
						c0.34-3.21-0.6-6.37-2.63-8.88c-1.87-2.31-4.47-3.77-7.37-4.26l0-5.69C467.28,292.55,473.79,300.97,472.81,310.31
						 M437.92,343.57c-4.92,2.71-7.98,7.98-7.98,13.75c0,8.74,7.11,15.85,15.85,15.85c0.17,0,0.31,0.14,0.31,0.31v6.01h-49.65v-6.01
						c0-0.17,0.14-0.31,0.31-0.31c8.74,0,15.85-7.11,15.85-15.85c0-5.77-3.06-11.04-7.98-13.75c-10.79-5.94-17.59-17.14-17.91-29.38
						v-29.69h7.45c-0.07,2.22,0.26,4.55,1.53,6.42c1.33,1.96,3.43,3.05,6.25,3.25c0.58,0.04,1.15,0.06,1.69,0.06
						c3.36,0,5.95-0.77,7.7-2.3c1.53-1.34,2.39-3.19,2.54-5.53c0.04-0.55,0.12-1.19,0.21-1.87c0.47-0.01,1.4-0.02,2.58-0.04h10.85
						c0.07,0.51,0.13,1,0.15,1.44c0.16,2.33,1.01,4.19,2.55,5.53c1.75,1.53,4.33,2.29,7.69,2.29c0.55,0,1.11-0.02,1.69-0.06
						c2.81-0.19,4.91-1.29,6.25-3.25c1.18-1.74,1.53-3.88,1.51-5.95h8.49v28.81l0,0.51C455.64,326.2,448.82,337.57,437.92,343.57
						 M376.11,324.2c-3.9-3.89-6.52-9.09-7.03-13.89c-1-9.56,5.83-18.15,15.3-19.41v5.66c-6.57,0.76-11.35,6.68-10.66,13.27
						c0.69,6.59,6.04,13.7,12.17,13.85c0.63,2.14,1.44,4.22,2.44,6.21C384.21,329.91,379.82,327.91,376.11,324.2 M385.27,321.3
						c-4.54-0.66-8.69-6.51-9.23-11.71c-0.27-2.6,0.49-5.15,2.13-7.18c1.57-1.93,3.77-3.15,6.21-3.5l0,14.38
						C384.38,316.02,384.69,318.7,385.27,321.3 M396.53,283.56c0.13-1.44,0.45-3.01,0.97-4.64c1.19-3.73,4.35-4.93,4.55-5l0,0.01
						l0.08-0.04c0.02-0.01,1.52-0.49,6.85,0.67c3.72,0.81,3.53,4.33,2.85,9.2c-0.13,0.9-0.24,1.75-0.29,2.48
						c-0.11,1.69-0.7,3.01-1.75,3.93c-1.55,1.35-4.12,1.93-7.7,1.67c-2.09-0.14-3.56-0.88-4.48-2.24c-0.68-1-1.05-2.39-1.12-4.02
						l0.15-0.01C396.63,285.53,396.56,284.77,396.53,283.56 M443.9,289.14c-0.92,1.36-2.39,2.09-4.48,2.23
						c-3.58,0.25-6.15-0.32-7.69-1.67c-1.05-0.92-1.64-2.24-1.75-3.93c-0.05-0.73-0.17-1.57-0.29-2.48
						c-0.68-4.88-0.87-8.39,2.85-9.21c2.89-0.63,4.66-0.77,5.67-0.77c0.73,0,1.07,0.07,1.15,0.1l0.1,0.04
						c0.03,0.01,3.33,1.19,4.55,5C445.43,282.95,445.4,286.94,443.9,289.14 M401.62,264.53c1.14,1.17,2.52,2.08,4.22,2.53
						c2.75,0.73,4.52,1.75,6.23,2.72c2.26,1.29,4.4,2.52,8.1,2.52c0.29,0,0.59-0.01,0.89-0.02c5.78-0.29,7.88-2.49,9.57-4.25
						c0.92-0.96,1.65-1.72,2.85-2.08c1.32-0.39,2.98-1.38,4.52-3.02c1.01,1.07,4.13,4.74,6.17,11.2c-1.66-1.93-3.57-2.73-3.91-2.85
						c-0.58-0.25-2.56-0.68-8.23,0.55c-5.36,1.17-5.35,6.15-4.87,10.17c-2.27,0.04-7.3,0.12-10.53,0.17h-2.27
						c0.44-3.97,0.33-8.74-4.91-9.87c-5.66-1.23-7.64-0.79-8.23-0.55c-0.35,0.13-2.29,0.94-3.96,2.9
						C397.98,271.18,399.26,267.5,401.62,264.53 M398.81,248.9c-0.15-3.93,1.57-16.87,8.18-21.61c3.14-2.25,7.52-2.82,11.17-2.82
						c3.79,0,6.81,0.62,6.87,0.63l0.1,0.01c5.31,0.65,11.2,3.31,14.55,18.15c2.95,13.06-3.33,19.43-6.84,20.46
						c-1.8,0.53-2.86,1.63-3.88,2.7c-1.55,1.62-3.15,3.29-8.01,3.54c-3.58,0.18-5.41-0.87-7.72-2.19c-1.75-1-3.74-2.14-6.79-2.95
						C399.69,263.01,398.9,251.24,398.81,248.9 M396.96,231.39c-0.97,0.65-1.99,1.33-6.43,0.51c-6.97-1.28-8.75-6.04-9.21-10.95
						l0.11-0.01c-0.11-1.34,0.12-3.56,1-4.05c0.68-0.36,2.03,0.15,3.73,1.42c6.87,5.12,13.74,6.51,16.38,6.88
						c1.31,0.18,1.84,0.68,2.06,1.07c-1.32,1.17-2.44,2.6-3.39,4.19C399.03,230.15,398.02,230.68,396.96,231.39 M404.95,220.11
						c1.79,0.05,3.33,0.09,3.94,0.25c1.36,0.35,1.11,2.36,1,2.95c-1.2,0.39-2.35,0.92-3.43,1.58c-0.59-0.89-1.68-1.74-3.61-2
						c-2.05-0.28-6.86-1.27-12.13-4.36C395.8,219.84,401.24,220.01,404.95,220.11 M432.52,220.18c0.62-0.03,2.09,0.18,3.79,0.42
						c4.24,0.61,10.78,1.52,16.78,0.62c-5.53,3.62-12.2,3.25-15.51,3.05l-0.33-0.02c-2.12-0.13-3.47,0.63-4.25,1.49
						c-0.92-0.69-1.9-1.26-2.95-1.71C430.54,222.31,431.45,220.24,432.52,220.18 M458.6,221.32c0.89,0.43,1.23,2.3,1.27,3.26
						l-0.18,0.77c-1.2,5.1-2.57,10.88-11.13,11.25c-4.28,0.21-4.97-0.89-5.76-2.14c-0.74-1.16-1.67-2.57-4.71-2.64
						c-0.98-1.79-2.07-3.31-3.3-4.56c0.35-0.36,1.03-0.76,2.33-0.69l0.32,0.02c3.46,0.21,11.59,0.73,17.97-4.1
						C456.83,221.43,457.96,221.01,458.6,221.32 M458.16,313.3l0-14.25c2.18,0.47,4.14,1.61,5.57,3.37c1.65,2.03,2.4,4.58,2.13,7.18
						c-0.52,4.93-4.29,10.49-8.56,11.58C457.85,318.62,458.16,315.98,458.16,313.3 M458.15,288.65v-6.49h-10.04
						c-1.21-13.07-7.33-19.78-8.63-21.06c2.63-3.8,4.38-9.83,2.45-18.36c-0.73-3.22-1.6-6.02-2.63-8.42
						c0.75,0.24,1.09,0.71,1.53,1.4c1.13,1.77,2.44,3.23,6.86,3.23c0.31,0,0.63-0.01,0.96-0.02c10.33-0.44,12.04-7.72,13.29-13.03
						l0.22-0.92c0.88-3.63-0.91-5.35-2.06-6.06c-1.39-0.85-2.91-0.93-3.08-0.94l-0.22-0.01l-0.21,0.07c-6.4,2.23-14.89,1-19.97,0.27
						c-1.97-0.28-3.42-0.48-4.25-0.44c-2.65,0.15-3.97,3.39-4.55,5.42c-0.77-0.2-1.56-0.37-2.39-0.47
						c-0.73-0.15-7.05-1.35-13.17-0.12c0.08-1.76-0.45-3.97-2.82-4.59c-0.87-0.22-2.37-0.26-4.46-0.31
						c-5.1-0.13-13.63-0.35-19.41-3.75c-0.18-0.1-1.77-0.97-3.53-0.33c-1.26,0.47-3.36,1.8-3.21,5.54
						c0.25,6.03,1.75,13.19,11.23,14.93c1.57,0.29,2.81,0.41,3.81,0.41c2.2,0,3.3-0.58,4.34-1.27c0.52-0.35,0.93-0.61,1.76-0.63
						c-2.83,6.05-3.65,13.31-3.53,16.3c0.1,2.54,0.65,9.14,3.65,13.7c-5.06,6.03-5.91,14.64-5.94,19.47h-9.8l0,6.39
						c-10.87,1.27-18.76,11.09-17.61,22c0.56,5.32,3.43,11.04,7.69,15.29c4.13,4.12,9.07,6.4,13.79,6.4c0.45,0,0.9-0.03,1.34-0.07
						c3.3,5.53,8.05,10.21,13.91,13.43c4.18,2.3,6.77,6.78,6.77,11.71c0,7.45-6.07,13.52-13.52,13.52c-1.45,0-2.63,1.18-2.63,2.63
						v8.33h54.3v-8.33c0-1.45-1.18-2.63-2.63-2.63c-7.46,0-13.52-6.07-13.52-13.52c0-4.93,2.59-9.41,6.77-11.71
						c5.84-3.22,10.59-7.88,13.89-13.4c0.24,0.01,0.48,0.04,0.72,0.04c4.71,0,9.66-2.28,13.79-6.4c4.26-4.25,7.14-9.97,7.69-15.29
						C476.24,299.85,468.69,290.23,458.15,288.65"/>
				</g>
			</g>
			<g style="clip-path:url(#SVGID_00000144304853890693215900000014827632835608325770_);">
				<g>
					<defs>
						
							<rect id="SVGID_00000134944537350634574860000004666797248743582105_" x="318.09" y="176.33" width="205.71" height="208.33"/>
					</defs>
					<clipPath id="SVGID_00000083777341087929832360000004663718840896060039_">
						<use xlink:href="#SVGID_00000134944537350634574860000004666797248743582105_"  style="overflow:visible;"/>
					</clipPath>
					<path style="clip-path:url(#SVGID_00000083777341087929832360000004663718840896060039_);fill:#F2C7DE;" d="M419.99,263.44
						c-1.64,0.09-3.19-0.97-3.22-1.57c-0.03-0.6,1.28-1.16,2.92-1.25c1.64-0.09,3,0.33,3.03,0.92
						C422.75,262.15,421.63,263.35,419.99,263.44 M414.77,253.78l3.39,2c-0.19,0.92-0.7,2.31-2.07,2.72
						c-1.24,0.37-2.71,0.08-3.75-0.76c-1.34-1.08-1.93-2.97-1.71-5.44l-2.31-0.21c-0.37,4.15,1.19,6.34,2.56,7.45
						c0.74,0.6,1.61,1,2.51,1.23c0.01,0.01,0.01,0.02,0.01,0.03c0.79,1.73,2.63,4.27,6.61,3.99c4.49-0.32,5.7-2.98,6.03-4.49
						c0,0,0-0.01,0-0.01c0.85-0.21,1.61-0.61,2.27-1.22c2.9-2.66,2.59-8.24,2.57-8.48l-2.32,0.15c0.08,1.3-0.09,5.02-1.83,6.62
						c-0.72,0.67-1.67,0.9-3.05,0.71c-0.02,0-1.61-0.01-2.49-0.95c-0.37-0.4-0.56-0.93-0.59-1.59l2.87-1.48
						c0.6-0.31,0.85-1.04,0.56-1.65l-1.25-2.64c-0.2-0.42-0.61-0.69-1.07-0.71l-4.67-0.23c-0.46-0.02-0.89,0.21-1.13,0.61
						l-1.58,2.63C413.98,252.65,414.17,253.43,414.77,253.78"/>
					<path style="clip-path:url(#SVGID_00000083777341087929832360000004663718840896060039_);fill:#F2C7DE;" d="M410.42,241.81
						h0.03c1.37,0,2.5,1.11,2.51,2.49l2.33-0.02c-0.03-2.65-2.19-4.79-4.84-4.79h-0.05c-2.67,0.03-4.82,2.22-4.79,4.89l2.33-0.02
						C407.92,242.97,409.04,241.83,410.42,241.81"/>
					<path style="clip-path:url(#SVGID_00000083777341087929832360000004663718840896060039_);fill:#F2C7DE;" d="M427.86,242.73
						c0.47-0.48,1.1-0.75,1.77-0.75h0.03c1.37,0,2.5,1.11,2.51,2.49l2.33-0.02c-0.03-2.65-2.19-4.79-4.84-4.79h-0.05
						c-1.29,0.01-2.5,0.53-3.41,1.45c-0.91,0.93-1.4,2.15-1.39,3.44l2.33-0.02C427.13,243.85,427.39,243.21,427.86,242.73"/>
					<path style="clip-path:url(#SVGID_00000083777341087929832360000004663718840896060039_);fill:#F2C7DE;" d="M427.16,315.89
						l-0.4,5.9l-5.74-1.44l-5.74,1.44l-0.4-5.9l-3.14-5.01l5.49-2.21l3.8-4.54l3.8,4.54l5.49,2.21L427.16,315.89z M421.02,300.51
						l-5.2,6.22l-7.53,3.03l4.31,6.87l0.55,8.09l7.87-1.97l7.87,1.97l0.55-8.09l4.31-6.87l-7.53-3.03L421.02,300.51z"/>
					<path style="clip-path:url(#SVGID_00000083777341087929832360000004663718840896060039_);fill:#F2C7DE;" d="M472.81,310.31
						c-0.5,4.81-3.13,10-7.03,13.89c-3.52,3.51-7.65,5.51-11.58,5.69c1.01-2,1.83-4.09,2.46-6.25c5.84-0.63,10.84-7.46,11.5-13.81
						c0.34-3.21-0.6-6.37-2.63-8.88c-1.87-2.31-4.47-3.77-7.37-4.26l0-5.69C467.28,292.55,473.79,300.97,472.81,310.31
						 M437.92,343.57c-4.92,2.71-7.98,7.98-7.98,13.75c0,8.74,7.11,15.85,15.85,15.85c0.17,0,0.31,0.14,0.31,0.31v6.01h-49.65v-6.01
						c0-0.17,0.14-0.31,0.31-0.31c8.74,0,15.85-7.11,15.85-15.85c0-5.77-3.06-11.04-7.98-13.75c-10.79-5.94-17.59-17.14-17.91-29.38
						v-29.69h7.45c-0.07,2.22,0.26,4.55,1.53,6.42c1.33,1.96,3.43,3.05,6.25,3.25c0.58,0.04,1.15,0.06,1.69,0.06
						c3.36,0,5.95-0.77,7.7-2.3c1.53-1.34,2.39-3.19,2.54-5.53c0.04-0.55,0.12-1.19,0.21-1.87c0.47-0.01,1.4-0.02,2.58-0.04h10.85
						c0.07,0.51,0.13,1,0.15,1.44c0.16,2.33,1.01,4.19,2.55,5.53c1.75,1.53,4.33,2.29,7.69,2.29c0.55,0,1.11-0.02,1.69-0.06
						c2.81-0.19,4.91-1.29,6.25-3.25c1.18-1.74,1.53-3.88,1.51-5.95h8.49v28.81l0,0.51C455.64,326.2,448.82,337.57,437.92,343.57
						 M376.11,324.2c-3.9-3.89-6.52-9.09-7.03-13.89c-1-9.56,5.83-18.15,15.3-19.41v5.66c-6.57,0.76-11.35,6.68-10.66,13.27
						c0.69,6.59,6.04,13.7,12.17,13.85c0.63,2.14,1.44,4.22,2.44,6.21C384.21,329.91,379.82,327.91,376.11,324.2 M385.27,321.3
						c-4.54-0.66-8.69-6.51-9.23-11.71c-0.27-2.6,0.49-5.15,2.13-7.18c1.57-1.93,3.77-3.15,6.21-3.5l0,14.38
						C384.38,316.02,384.69,318.7,385.27,321.3 M396.53,283.56c0.13-1.44,0.45-3.01,0.97-4.64c1.19-3.73,4.35-4.93,4.55-5l0,0.01
						l0.08-0.04c0.02-0.01,1.52-0.49,6.85,0.67c3.72,0.81,3.53,4.33,2.85,9.2c-0.13,0.9-0.24,1.75-0.29,2.48
						c-0.11,1.69-0.7,3.01-1.75,3.93c-1.55,1.35-4.12,1.93-7.7,1.67c-2.09-0.14-3.56-0.88-4.48-2.24c-0.68-1-1.05-2.39-1.12-4.02
						l0.15-0.01C396.63,285.53,396.56,284.77,396.53,283.56 M443.9,289.14c-0.92,1.36-2.39,2.09-4.48,2.23
						c-3.58,0.25-6.15-0.32-7.69-1.67c-1.05-0.92-1.64-2.24-1.75-3.93c-0.05-0.73-0.17-1.57-0.29-2.48
						c-0.68-4.88-0.87-8.39,2.85-9.21c2.89-0.63,4.66-0.77,5.67-0.77c0.73,0,1.07,0.07,1.15,0.1l0.1,0.04
						c0.03,0.01,3.33,1.19,4.55,5C445.43,282.95,445.4,286.94,443.9,289.14 M401.62,264.53c1.14,1.17,2.52,2.08,4.22,2.53
						c2.75,0.73,4.52,1.75,6.23,2.72c2.26,1.29,4.4,2.52,8.1,2.52c0.29,0,0.59-0.01,0.89-0.02c5.78-0.29,7.88-2.49,9.57-4.25
						c0.92-0.96,1.65-1.72,2.85-2.08c1.32-0.39,2.98-1.38,4.52-3.02c1.01,1.07,4.13,4.74,6.17,11.2c-1.66-1.93-3.57-2.73-3.91-2.85
						c-0.58-0.25-2.56-0.68-8.23,0.55c-5.36,1.17-5.35,6.15-4.87,10.17c-2.27,0.04-7.3,0.12-10.53,0.17h-2.27
						c0.44-3.97,0.33-8.74-4.91-9.87c-5.66-1.23-7.64-0.79-8.23-0.55c-0.35,0.13-2.29,0.94-3.96,2.9
						C397.98,271.18,399.26,267.5,401.62,264.53 M398.81,248.9c-0.15-3.93,1.57-16.87,8.18-21.61c3.14-2.25,7.52-2.82,11.17-2.82
						c3.79,0,6.81,0.62,6.87,0.63l0.1,0.01c5.31,0.65,11.2,3.31,14.55,18.15c2.95,13.06-3.33,19.43-6.84,20.46
						c-1.8,0.53-2.86,1.63-3.88,2.7c-1.55,1.62-3.15,3.29-8.01,3.54c-3.58,0.18-5.41-0.87-7.72-2.19c-1.75-1-3.74-2.14-6.79-2.95
						C399.69,263.01,398.9,251.24,398.81,248.9 M396.96,231.39c-0.97,0.65-1.99,1.33-6.43,0.51c-6.97-1.28-8.75-6.04-9.21-10.95
						l0.11-0.01c-0.11-1.34,0.12-3.56,1-4.05c0.68-0.36,2.03,0.15,3.73,1.42c6.87,5.12,13.74,6.51,16.38,6.88
						c1.31,0.18,1.84,0.68,2.06,1.07c-1.32,1.17-2.44,2.6-3.39,4.19C399.03,230.15,398.02,230.68,396.96,231.39 M404.95,220.11
						c1.79,0.05,3.33,0.09,3.94,0.25c1.36,0.35,1.11,2.36,1,2.95c-1.2,0.39-2.35,0.92-3.43,1.58c-0.59-0.89-1.68-1.74-3.61-2
						c-2.05-0.28-6.86-1.27-12.13-4.36C395.8,219.84,401.24,220.01,404.95,220.11 M432.52,220.18c0.62-0.03,2.09,0.18,3.79,0.42
						c4.24,0.61,10.78,1.52,16.78,0.62c-5.53,3.62-12.2,3.25-15.51,3.05l-0.33-0.02c-2.12-0.13-3.47,0.63-4.25,1.49
						c-0.92-0.69-1.9-1.26-2.95-1.71C430.54,222.31,431.45,220.24,432.52,220.18 M458.6,221.32c0.89,0.43,1.23,2.3,1.27,3.26
						l-0.18,0.77c-1.2,5.1-2.57,10.88-11.13,11.25c-4.28,0.21-4.97-0.89-5.76-2.14c-0.74-1.16-1.67-2.57-4.71-2.64
						c-0.98-1.79-2.07-3.31-3.3-4.56c0.35-0.36,1.03-0.76,2.33-0.69l0.32,0.02c3.46,0.21,11.59,0.73,17.97-4.1
						C456.83,221.43,457.96,221.01,458.6,221.32 M458.16,313.3l0-14.25c2.18,0.47,4.14,1.61,5.57,3.37c1.65,2.03,2.4,4.58,2.13,7.18
						c-0.52,4.93-4.29,10.49-8.56,11.58C457.85,318.62,458.16,315.98,458.16,313.3 M458.15,288.65v-6.49h-10.04
						c-1.21-13.07-7.33-19.78-8.63-21.06c2.63-3.8,4.38-9.83,2.45-18.36c-0.73-3.22-1.6-6.02-2.63-8.42
						c0.75,0.24,1.09,0.71,1.53,1.4c1.13,1.77,2.44,3.23,6.86,3.23c0.31,0,0.63-0.01,0.96-0.02c10.33-0.44,12.04-7.72,13.29-13.03
						l0.22-0.92c0.88-3.63-0.91-5.35-2.06-6.06c-1.39-0.85-2.91-0.93-3.08-0.94l-0.22-0.01l-0.21,0.07c-6.4,2.23-14.89,1-19.97,0.27
						c-1.97-0.28-3.42-0.48-4.25-0.44c-2.65,0.15-3.97,3.39-4.55,5.42c-0.77-0.2-1.56-0.37-2.39-0.47
						c-0.73-0.15-7.05-1.35-13.17-0.12c0.08-1.76-0.45-3.97-2.82-4.59c-0.87-0.22-2.37-0.26-4.46-0.31
						c-5.1-0.13-13.63-0.35-19.41-3.75c-0.18-0.1-1.77-0.97-3.53-0.33c-1.26,0.47-3.36,1.8-3.21,5.54
						c0.25,6.03,1.75,13.19,11.23,14.93c1.57,0.29,2.81,0.41,3.81,0.41c2.2,0,3.3-0.58,4.34-1.27c0.52-0.35,0.93-0.61,1.76-0.63
						c-2.83,6.05-3.65,13.31-3.53,16.3c0.1,2.54,0.65,9.14,3.65,13.7c-5.06,6.03-5.91,14.64-5.94,19.47h-9.8l0,6.39
						c-10.87,1.27-18.76,11.09-17.61,22c0.56,5.32,3.43,11.04,7.69,15.29c4.13,4.12,9.07,6.4,13.79,6.4c0.45,0,0.9-0.03,1.34-0.07
						c3.3,5.53,8.05,10.21,13.91,13.43c4.18,2.3,6.77,6.78,6.77,11.71c0,7.45-6.07,13.52-13.52,13.52c-1.45,0-2.63,1.18-2.63,2.63
						v8.33h54.3v-8.33c0-1.45-1.18-2.63-2.63-2.63c-7.46,0-13.52-6.07-13.52-13.52c0-4.93,2.59-9.41,6.77-11.71
						c5.84-3.22,10.59-7.88,13.89-13.4c0.24,0.01,0.48,0.04,0.72,0.04c4.71,0,9.66-2.28,13.79-6.4c4.26-4.25,7.14-9.97,7.69-15.29
						C476.24,299.85,468.69,290.23,458.15,288.65"/>
				</g>
			</g>
		</g>
	</g>
</g>
</svg>
