<?xml version="1.0" encoding="utf-8"?>
<!-- Generator: Adobe Illustrator 26.2.0, SVG Export Plug-In . SVG Version: 6.00 Build 0)  -->
<svg version="1.1" id="Layer_1" xmlns="http://www.w3.org/2000/svg" xmlns:xlink="http://www.w3.org/1999/xlink" x="0px" y="0px"
	 viewBox="0 0 841.89 595.28" style="enable-background:new 0 0 841.89 595.28;" xml:space="preserve">
<style type="text/css">
	.st0{clip-path:url(#SVGID_00000124872665228467722560000004704873985194329275_);}
	.st1{clip-path:url(#SVGID_00000094590921052511777760000011036667026451576963_);fill:#DFBFDB;}
	.st2{clip-path:url(#SVGID_00000094590921052511777760000011036667026451576963_);}
	.st3{clip-path:url(#SVGID_00000086669668941782597200000000225602479553138344_);fill:#DFBFDB;}
	.st4{clip-path:url(#SVGID_00000052099533534199595920000006811672981088044715_);fill:#DFBFDB;}
	.st5{clip-path:url(#SVGID_00000142152464166238527840000003404130314260959641_);fill:#DFBFDB;}
	.st6{clip-path:url(#SVGID_00000165223560075289696610000012194975645626578099_);fill:#DFBFDB;}
</style>
<g>
	<g>
		<defs>
			<rect id="SVGID_1_" x="295.94" y="172.64" width="250" height="250"/>
		</defs>
		<clipPath id="SVGID_00000041981581244993436460000011439635524381176468_">
			<use xlink:href="#SVGID_1_"  style="overflow:visible;"/>
		</clipPath>
		<g style="clip-path:url(#SVGID_00000041981581244993436460000011439635524381176468_);">
			<defs>
				<rect id="SVGID_00000087407446982430986340000010174708963874662301_" x="295.94" y="172.64" width="250" height="250"/>
			</defs>
			<clipPath id="SVGID_00000171718453482002353270000008117850196919041718_">
				<use xlink:href="#SVGID_00000087407446982430986340000010174708963874662301_"  style="overflow:visible;"/>
			</clipPath>
			<path style="clip-path:url(#SVGID_00000171718453482002353270000008117850196919041718_);fill:#DFBFDB;" d="M420.94,422.64
				c69.03,0,125-55.97,125-125s-55.97-125-125-125s-125,55.97-125,125S351.91,422.64,420.94,422.64"/>
			<g style="clip-path:url(#SVGID_00000171718453482002353270000008117850196919041718_);">
				<g>
					<defs>
						<rect id="SVGID_00000087386754849183426560000013447155645515446429_" x="315.23" y="172.18" width="217.14" height="205.2"/>
					</defs>
					<clipPath id="SVGID_00000067931003756895077460000001555372340470448048_">
						<use xlink:href="#SVGID_00000087386754849183426560000013447155645515446429_"  style="overflow:visible;"/>
					</clipPath>
					<path style="clip-path:url(#SVGID_00000067931003756895077460000001555372340470448048_);fill:#DFBFDB;" d="M419.02,317.64
						c-0.4,1.73-1.94,3.05-3.79,3.07h-0.04c-1.61,0-2.99-0.97-3.61-2.36c1.76-0.62,2.91-1.79,3.65-3.05
						c0.11,0.14,0.23,0.27,0.34,0.41C416.61,316.79,417.92,317.34,419.02,317.64 M420.02,303.08c-0.29-0.59-0.87-0.98-1.53-1.02
						l-6.69-0.33c-0.66-0.03-1.28,0.3-1.63,0.87l-2.25,3.76c-0.51,0.85-0.23,1.96,0.62,2.46l5.15,3.05
						c-0.31,1.38-1.09,3.39-3.19,4.03c-1.88,0.58-4.11,0.13-5.66-1.14c-2.01-1.63-2.9-4.42-2.57-8.09l-2.66-0.23
						c-0.51,5.79,1.65,8.84,3.55,10.39c1.6,1.3,3.62,1.99,5.64,1.99c0.05,0,0.09-0.01,0.15-0.01c0.87,2.63,3.33,4.56,6.24,4.56h0.06
						c3.19-0.04,5.85-2.35,6.42-5.38c2.4,0.22,4.44-0.36,6.04-1.82c4.03-3.72,3.6-11.55,3.57-11.89l-2.66,0.17
						c0.12,1.91-0.13,7.37-2.72,9.75c-1.12,1.02-2.54,1.39-4.6,1.1c-0.03,0-2.44-0.02-3.8-1.46c-0.56-0.6-0.81-1.41-0.89-2.37
						l4.39-2.25c0.86-0.44,1.21-1.49,0.79-2.37L420.02,303.08z"/>
					<path style="clip-path:url(#SVGID_00000067931003756895077460000001555372340470448048_);fill:#DFBFDB;" d="M479.66,254.5
						c-1.06,1.2-2.51,1.91-4.1,2.02c-1.59,0.13-3.12-0.41-4.32-1.47c-1.2-1.05-1.92-2.5-2.02-4.1c-0.11-1.59,0.42-3.12,1.46-4.32
						c1.06-1.2,2.51-1.91,4.1-2.01c0.13-0.02,0.27-0.02,0.41-0.02c1.44,0,2.83,0.53,3.92,1.48c1.2,1.05,1.92,2.51,2.02,4.1
						C481.23,251.76,480.71,253.3,479.66,254.5 M466.77,247.26l-11.16-5.43l0.03-0.02c0.11-0.08,1.47-1.07,3-2.78l9.91,5.4
						L466.77,247.26z M436.29,249.67c-4.38,2.47-11.04,1.93-14.95,1.32l43.79-27.99l0.16,0.15c0.36,0.47,0.76,0.91,1.21,1.31
						c0.06,0.05,0.13,0.09,0.2,0.14c-2.15,1.27-5.6,3.81-6.9,7.52c-1.54,4.43-5.59,7.44-5.59,7.45L436.29,249.67z M426.03,266.14
						c-1.24-0.31-2.51-0.57-3.85-0.74l-0.33,2.65c8.09,0.98,17.97,4.79,22.68,25.63c4.28,18.94-4.91,28.19-10.03,29.7
						c-2.5,0.74-3.98,2.28-5.4,3.78c-2.27,2.37-4.6,4.82-11.69,5.17c-5.23,0.25-7.88-1.25-11.24-3.18
						c-2.49-1.43-5.31-3.05-9.64-4.21c-2.24-0.59-4.19-1.98-5.81-4.11c-4.54-5.99-5.26-16.05-5.37-18.98
						c-0.27-7.06,0.79-24.4,16.48-33.48c0.1-0.01,0.2-0.02,0.3-0.05c0.37-0.13,8.94-3.34,8.48-15.42
						c-0.24-6.43-1.96-11.54-3.46-14.86c1.42,0.94,2.6,1.89,2.89,2.58c0.54,1.24,1.46,1.28,1.82,1.23c0.63-0.07,1.53-0.19,2.48-4.13
						l2.52,3.64c0.23,0.33,0.61,0.55,1.03,0.57c0.4,0.05,0.8-0.13,1.07-0.45l3.37-3.9l0.21,2.67c0.03,0.49,0.34,0.92,0.78,1.12
						c0.45,0.2,0.97,0.13,1.36-0.16l2.83-2.17c-0.4,1.15-1.09,3.3-1.76,5.95l-11.22,7.17l2.95,0.78c0.23,0.06,3.03,0.77,6.71,1.09
						C423.82,258.45,424.13,262.92,426.03,266.14 M431.44,267.72c4.23-3.65,10.26-8.1,13.72-4.52c5.79,5.95,19.77,37.9,18.53,44.29
						c-0.69,3.52-4.5,7.24-8.89,8.63c-1.97,0.63-5.67,1.24-8.71-1.43c2.19-5.26,3.13-12.4,1.05-21.59
						c-2.92-12.96-8.15-21.07-16.09-25.03C431.17,267.95,431.28,267.85,431.44,267.72 M451.69,349.73
						c-2.37-5.99-7.48-8.13-8.19-8.38c-0.77-0.34-3.56-1.01-11.95,0.82c-8.02,1.74-7.57,9.61-6.8,15.55
						c-3.19,0.05-16.29,0.27-19.91,0.32c0.75-5.89,1.02-13.47-6.84-15.18c-8.39-1.83-11.18-1.16-11.96-0.82
						c-0.6,0.23-4.57,1.88-7.15,6.24c0.39-7.53,2.29-18.86,9.61-25.99c0.04,0.05,0.06,0.11,0.1,0.16c1.99,2.63,4.42,4.33,7.24,5.08
						c3.99,1.07,6.54,2.53,9.01,3.93c3.19,1.83,6.23,3.57,11.45,3.57c0.4,0,0.82-0.01,1.25-0.04c8.15-0.41,11.1-3.5,13.48-5.98
						c1.35-1.41,2.42-2.53,4.22-3.07c1.73-0.51,3.84-1.77,5.86-3.77C443.09,323.52,450.69,329.98,451.69,349.73 M449.34,367.61
						c-1.42,2.08-3.75,3.26-6.92,3.47c-5.37,0.38-9.29-0.49-11.67-2.56c-1.63-1.43-2.54-3.47-2.72-6.07
						c-0.06-1.07-0.25-2.31-0.43-3.64c-1-7.19-1.3-12.79,4.52-14.05c4.29-0.93,6.92-1.15,8.45-1.15c1.24,0,1.77,0.13,1.87,0.17
						l0.12,0.05c0.21,0.07,5.14,1.87,6.97,7.64C451.69,358.23,451.61,364.26,449.34,367.61 M401.95,359.49
						c-0.18,1.33-0.35,2.57-0.42,3.65c-0.17,2.61-1.09,4.66-2.73,6.07c-2.37,2.07-6.31,2.94-11.67,2.56
						c-3.17-0.22-5.49-1.39-6.92-3.47c-2.27-3.35-2.35-9.38-0.2-16.13c1.83-5.77,6.77-7.57,6.98-7.64l0.02,0.01l0.08-0.05
						c0.03-0.02,2.24-0.79,10.35,0.97C403.25,346.72,402.96,352.31,401.95,359.49 M375.42,316.63c-4.38-1.4-8.19-5.11-8.89-8.63
						c-1.25-6.39,12.75-38.34,18.53-44.29c3.27-3.39,8.84,0.41,13.02,3.91c-15.03,10.45-15.61,28.74-15.39,34.33
						c0.08,2.06,0.45,7.39,2.11,12.68C381.71,317.21,377.36,317.26,375.42,316.63 M420.03,224.53c8.37-1.91,23.05,2.31,30.37,4.72
						h-0.01l-8.91,5.69l-0.01,0.01L420.03,224.53z M471.8,212c1.59-0.09,3.13,0.43,4.33,1.47c1.19,1.05,1.91,2.5,2.01,4.1
						c0.22,3.28-2.27,6.13-5.56,6.34c-1.29,0.08-2.55-0.27-3.63-0.97l-1.61-1.52c-0.64-0.89-1.04-1.94-1.11-3.07
						C466.02,215.07,468.52,212.22,471.8,212 M483.78,249.99c-0.15-2.3-1.18-4.4-2.92-5.92c-1.73-1.53-3.94-2.29-6.25-2.13
						c-1.19,0.08-2.32,0.41-3.35,0.93l-10.94-5.97c0.79-1.14,1.5-2.45,2.01-3.9c1.43-4.11,6.6-6.61,7.15-6.87
						c0.87,0.29,1.77,0.46,2.7,0.46c0.2,0,0.39-0.01,0.58-0.02c4.75-0.31,8.36-4.44,8.05-9.19c-0.15-2.3-1.18-4.4-2.93-5.93
						c-1.73-1.52-3.94-2.27-6.25-2.12c-4.56,0.31-8.07,4.1-8.07,8.61c0,0.19,0.01,0.38,0.02,0.58c0.05,0.7,0.2,1.38,0.41,2.04
						l-10.71,6.84h0c-7.7-2.69-28.25-9.07-37.28-4.22l-2.29,1.24l25.14,12.22l-0.01,0l-9.74,6.22c0.43-1.46,0.85-2.73,1.2-3.67
						l1.93-3.92c0.27-0.55,0.13-1.23-0.35-1.63c-0.48-0.39-1.16-0.41-1.66-0.02l-5.19,3.97l-0.26-3.4c-0.03-0.54-0.4-1-0.91-1.17
						c-0.51-0.17-1.07-0.02-1.43,0.39l-4.34,5.01l-3.33-4.83c-0.32-0.44-0.87-0.66-1.39-0.54c-0.53,0.12-0.94,0.55-1.03,1.08
						c-0.23,1.43-0.57,2.91-0.87,3.95c-2.09-2.22-6.19-4.28-7.15-4.75c-0.54-0.25-1.2-0.13-1.6,0.34c-0.4,0.46-0.43,1.14-0.07,1.63
						c0.05,0.07,4.88,7.01,5.29,17.69c0.39,10.03-6.38,12.68-6.71,12.81c-0.23,0.08-0.4,0.23-0.54,0.41l-0.12-0.2
						c-0.05,0.03-0.1,0.06-0.15,0.1c-3.3-2.85-11.71-10-17.27-4.27c-5.73,5.89-20.75,38.82-19.23,46.65
						c0.87,4.48,5.37,8.97,10.69,10.67c1.45,0.46,2.86,0.69,4.21,0.69c2.61-0.01,4.97-0.89,6.93-2.57c0.36,0.89,0.77,1.74,1.22,2.57
						c-12.28,12.07-10.82,34.47-10.66,36.25c-0.77,4.22-1,9.7,1.71,13.67c1.91,2.81,4.91,4.36,8.94,4.64
						c0.86,0.07,1.68,0.09,2.48,0.09c4.87,0,8.61-1.11,11.13-3.3c2.18-1.9,3.4-4.57,3.63-7.91c0.05-0.77,0.16-1.67,0.3-2.6
						c3.1-0.05,18.03-0.29,20.63-0.33c0.11,0.8,0.2,1.57,0.24,2.25c0.23,3.35,1.44,6.01,3.64,7.91c2.51,2.19,6.24,3.3,11.12,3.3
						c0.79,0,1.62-0.03,2.48-0.09c4.03-0.28,7.05-1.83,8.94-4.64c1.19-1.74,1.77-3.8,2.03-5.89h0.04c0.02-0.23,0.03-0.46,0.04-0.69
						c0.04-0.44,0.08-0.88,0.09-1.31c1.94-29.09-7.56-38.66-10.86-41.07c0.71-0.91,1.39-1.9,2.01-3.03
						c1.88,1.45,4.08,2.24,6.51,2.24c1.35,0,2.77-0.23,4.21-0.69c5.32-1.71,9.83-6.19,10.69-10.67c1.53-7.83-13.5-40.75-19.22-46.65
						c-5.63-5.8-14.18,1.59-17.4,4.37c-0.17,0.14-0.32,0.27-0.44,0.38c-0.03-0.03-0.03-0.09-0.06-0.13
						c-2.32-2.54-2.73-7.07-2.32-11.79c0.21,0.01,0.42,0.01,0.62,0.01c3.43,0,7.15-0.51,10.12-2.18l15.18-8.56l13.81,6.71
						c-0.02,0.33-0.05,0.66-0.03,0.99c0.14,2.3,1.18,4.4,2.92,5.93c1.59,1.39,3.58,2.14,5.68,2.14c0.19,0,0.39,0,0.58-0.02
						c2.3-0.15,4.41-1.19,5.93-2.92C483.19,254.52,483.94,252.31,483.78,249.99"/>
					<path style="clip-path:url(#SVGID_00000067931003756895077460000001555372340470448048_);fill:#DFBFDB;" d="M416.07,255.9
						l-2.64,0.4c1.07,7.14-4.77,10.67-5.01,10.81l1.34,2.31C410.07,269.23,417.41,264.86,416.07,255.9"/>
					<path style="clip-path:url(#SVGID_00000067931003756895077460000001555372340470448048_);fill:#DFBFDB;" d="M430.33,291.41
						c0,0.87-0.65,1.58-1.45,1.58c-0.41,0-0.77-0.18-1.03-0.48c-0.02-0.01-0.02-0.01-0.02-0.02c-0.25-0.28-0.41-0.67-0.41-1.08
						c0-0.88,0.65-1.58,1.45-1.58c0.15,0,0.29,0.03,0.43,0.08C429.9,290.1,430.33,290.69,430.33,291.41 M427.73,295.82
						c2.6,1.92,6.26,1.38,8.19-1.22c1.92-2.59,1.38-6.26-1.22-8.19c-2.59-1.93-6.26-1.39-8.18,1.21
						C424.59,290.22,425.13,293.89,427.73,295.82"/>
					<path style="clip-path:url(#SVGID_00000067931003756895077460000001555372340470448048_);fill:#DFBFDB;" d="M399.17,292.98
						c-0.33,0-0.65-0.13-0.89-0.35c-0.33-0.28-0.55-0.73-0.55-1.23c0-0.87,0.65-1.58,1.44-1.58c0.05,0,0.12,0,0.17,0.02l0.01,0.01
						c0.72,0.08,1.27,0.74,1.27,1.55C400.62,292.27,399.97,292.98,399.17,292.98 M406.06,294.6c1.92-2.59,1.38-6.26-1.21-8.19
						c-2.6-1.93-6.27-1.39-8.19,1.21c-1.93,2.6-1.39,6.26,1.21,8.19C400.47,297.74,404.13,297.2,406.06,294.6"/>
				</g>
			</g>
			<g style="clip-path:url(#SVGID_00000171718453482002353270000008117850196919041718_);">
				<g>
					<defs>
						<rect id="SVGID_00000162312339173300635310000010503339840183441557_" x="315.23" y="172.18" width="217.14" height="205.2"/>
					</defs>
					<clipPath id="SVGID_00000144297012240710052140000000355080184678425476_">
						<use xlink:href="#SVGID_00000162312339173300635310000010503339840183441557_"  style="overflow:visible;"/>
					</clipPath>
					<path style="clip-path:url(#SVGID_00000144297012240710052140000000355080184678425476_);fill:#DFBFDB;" d="M419.02,317.64
						c-0.4,1.73-1.94,3.05-3.79,3.07h-0.04c-1.61,0-2.99-0.97-3.61-2.36c1.76-0.62,2.91-1.79,3.65-3.05
						c0.11,0.14,0.23,0.27,0.34,0.41C416.61,316.79,417.92,317.34,419.02,317.64 M420.02,303.08c-0.29-0.59-0.87-0.98-1.53-1.02
						l-6.69-0.33c-0.66-0.03-1.28,0.3-1.63,0.87l-2.25,3.76c-0.51,0.85-0.23,1.96,0.62,2.46l5.15,3.05
						c-0.31,1.38-1.09,3.39-3.19,4.03c-1.88,0.58-4.11,0.13-5.66-1.14c-2.01-1.63-2.9-4.42-2.57-8.09l-2.66-0.23
						c-0.51,5.79,1.65,8.84,3.55,10.39c1.6,1.3,3.62,1.99,5.64,1.99c0.05,0,0.09-0.01,0.15-0.01c0.87,2.63,3.33,4.56,6.24,4.56h0.06
						c3.19-0.04,5.85-2.35,6.42-5.38c2.4,0.22,4.44-0.36,6.04-1.82c4.03-3.72,3.6-11.55,3.57-11.89l-2.66,0.17
						c0.12,1.91-0.13,7.37-2.72,9.75c-1.12,1.02-2.54,1.39-4.6,1.1c-0.03,0-2.44-0.02-3.8-1.46c-0.56-0.6-0.81-1.41-0.89-2.37
						l4.39-2.25c0.86-0.44,1.21-1.49,0.79-2.37L420.02,303.08z"/>
					<path style="clip-path:url(#SVGID_00000144297012240710052140000000355080184678425476_);fill:#DFBFDB;" d="M479.66,254.5
						c-1.06,1.2-2.51,1.91-4.1,2.02c-1.59,0.13-3.12-0.41-4.32-1.47c-1.2-1.05-1.92-2.5-2.02-4.1c-0.11-1.59,0.42-3.12,1.46-4.32
						c1.06-1.2,2.51-1.91,4.1-2.01c0.13-0.02,0.27-0.02,0.41-0.02c1.44,0,2.83,0.53,3.92,1.48c1.2,1.05,1.92,2.51,2.02,4.1
						C481.23,251.76,480.71,253.3,479.66,254.5 M466.77,247.26l-11.16-5.43l0.03-0.02c0.11-0.08,1.47-1.07,3-2.78l9.91,5.4
						L466.77,247.26z M436.29,249.67c-4.38,2.47-11.04,1.93-14.95,1.32l43.79-27.99l0.16,0.15c0.36,0.47,0.76,0.91,1.21,1.31
						c0.06,0.05,0.13,0.09,0.2,0.14c-2.15,1.27-5.6,3.81-6.9,7.52c-1.54,4.43-5.59,7.44-5.59,7.45L436.29,249.67z M426.03,266.14
						c-1.24-0.31-2.51-0.57-3.85-0.74l-0.33,2.65c8.09,0.98,17.97,4.79,22.68,25.63c4.28,18.94-4.91,28.19-10.03,29.7
						c-2.5,0.74-3.98,2.28-5.4,3.78c-2.27,2.37-4.6,4.82-11.69,5.17c-5.23,0.25-7.88-1.25-11.24-3.18
						c-2.49-1.43-5.31-3.05-9.64-4.21c-2.24-0.59-4.19-1.98-5.81-4.11c-4.54-5.99-5.26-16.05-5.37-18.98
						c-0.27-7.06,0.79-24.4,16.48-33.48c0.1-0.01,0.2-0.02,0.3-0.05c0.37-0.13,8.94-3.34,8.48-15.42
						c-0.24-6.43-1.96-11.54-3.46-14.86c1.42,0.94,2.6,1.89,2.89,2.58c0.54,1.24,1.46,1.28,1.82,1.23c0.63-0.07,1.53-0.19,2.48-4.13
						l2.52,3.64c0.23,0.33,0.61,0.55,1.03,0.57c0.4,0.05,0.8-0.13,1.07-0.45l3.37-3.9l0.21,2.67c0.03,0.49,0.34,0.92,0.78,1.12
						c0.45,0.2,0.97,0.13,1.36-0.16l2.83-2.17c-0.4,1.15-1.09,3.3-1.76,5.95l-11.22,7.17l2.95,0.78c0.23,0.06,3.03,0.77,6.71,1.09
						C423.82,258.45,424.13,262.92,426.03,266.14 M431.44,267.72c4.23-3.65,10.26-8.1,13.72-4.52c5.79,5.95,19.77,37.9,18.53,44.29
						c-0.69,3.52-4.5,7.24-8.89,8.63c-1.97,0.63-5.67,1.24-8.71-1.43c2.19-5.26,3.13-12.4,1.05-21.59
						c-2.92-12.96-8.15-21.07-16.09-25.03C431.17,267.95,431.28,267.85,431.44,267.72 M451.69,349.73
						c-2.37-5.99-7.48-8.13-8.19-8.38c-0.77-0.34-3.56-1.01-11.95,0.82c-8.02,1.74-7.57,9.61-6.8,15.55
						c-3.19,0.05-16.29,0.27-19.91,0.32c0.75-5.89,1.02-13.47-6.84-15.18c-8.39-1.83-11.18-1.16-11.96-0.82
						c-0.6,0.23-4.57,1.88-7.15,6.24c0.39-7.53,2.29-18.86,9.61-25.99c0.04,0.05,0.06,0.11,0.1,0.16c1.99,2.63,4.42,4.33,7.24,5.08
						c3.99,1.07,6.54,2.53,9.01,3.93c3.19,1.83,6.23,3.57,11.45,3.57c0.4,0,0.82-0.01,1.25-0.04c8.15-0.41,11.1-3.5,13.48-5.98
						c1.35-1.41,2.42-2.53,4.22-3.07c1.73-0.51,3.84-1.77,5.86-3.77C443.09,323.52,450.69,329.98,451.69,349.73 M449.34,367.61
						c-1.42,2.08-3.75,3.26-6.92,3.47c-5.37,0.38-9.29-0.49-11.67-2.56c-1.63-1.43-2.54-3.47-2.72-6.07
						c-0.06-1.07-0.25-2.31-0.43-3.64c-1-7.19-1.3-12.79,4.52-14.05c4.29-0.93,6.92-1.15,8.45-1.15c1.24,0,1.77,0.13,1.87,0.17
						l0.12,0.05c0.21,0.07,5.14,1.87,6.97,7.64C451.69,358.23,451.61,364.26,449.34,367.61 M401.95,359.49
						c-0.18,1.33-0.35,2.57-0.42,3.65c-0.17,2.61-1.09,4.66-2.73,6.07c-2.37,2.07-6.31,2.94-11.67,2.56
						c-3.17-0.22-5.49-1.39-6.92-3.47c-2.27-3.35-2.35-9.38-0.2-16.13c1.83-5.77,6.77-7.57,6.98-7.64l0.02,0.01l0.08-0.05
						c0.03-0.02,2.24-0.79,10.35,0.97C403.25,346.72,402.96,352.31,401.95,359.49 M375.42,316.63c-4.38-1.4-8.19-5.11-8.89-8.63
						c-1.25-6.39,12.75-38.34,18.53-44.29c3.27-3.39,8.84,0.41,13.02,3.91c-15.03,10.45-15.61,28.74-15.39,34.33
						c0.08,2.06,0.45,7.39,2.11,12.68C381.71,317.21,377.36,317.26,375.42,316.63 M420.03,224.53c8.37-1.91,23.05,2.31,30.37,4.72
						h-0.01l-8.91,5.69l-0.01,0.01L420.03,224.53z M471.8,212c1.59-0.09,3.13,0.43,4.33,1.47c1.19,1.05,1.91,2.5,2.01,4.1
						c0.22,3.28-2.27,6.13-5.56,6.34c-1.29,0.08-2.55-0.27-3.63-0.97l-1.61-1.52c-0.64-0.89-1.04-1.94-1.11-3.07
						C466.02,215.07,468.52,212.22,471.8,212 M483.78,249.99c-0.15-2.3-1.18-4.4-2.92-5.92c-1.73-1.53-3.94-2.29-6.25-2.13
						c-1.19,0.08-2.32,0.41-3.35,0.93l-10.94-5.97c0.79-1.14,1.5-2.45,2.01-3.9c1.43-4.11,6.6-6.61,7.15-6.87
						c0.87,0.29,1.77,0.46,2.7,0.46c0.2,0,0.39-0.01,0.58-0.02c4.75-0.31,8.36-4.44,8.05-9.19c-0.15-2.3-1.18-4.4-2.93-5.93
						c-1.73-1.52-3.94-2.27-6.25-2.12c-4.56,0.31-8.07,4.1-8.07,8.61c0,0.19,0.01,0.38,0.02,0.58c0.05,0.7,0.2,1.38,0.41,2.04
						l-10.71,6.84h0c-7.7-2.69-28.25-9.07-37.28-4.22l-2.29,1.24l25.14,12.22l-0.01,0l-9.74,6.22c0.43-1.46,0.85-2.73,1.2-3.67
						l1.93-3.92c0.27-0.55,0.13-1.23-0.35-1.63c-0.48-0.39-1.16-0.41-1.66-0.02l-5.19,3.97l-0.26-3.4c-0.03-0.54-0.4-1-0.91-1.17
						c-0.51-0.17-1.07-0.02-1.43,0.39l-4.34,5.01l-3.33-4.83c-0.32-0.44-0.87-0.66-1.39-0.54c-0.53,0.12-0.94,0.55-1.03,1.08
						c-0.23,1.43-0.57,2.91-0.87,3.95c-2.09-2.22-6.19-4.28-7.15-4.75c-0.54-0.25-1.2-0.13-1.6,0.34c-0.4,0.46-0.43,1.14-0.07,1.63
						c0.05,0.07,4.88,7.01,5.29,17.69c0.39,10.03-6.38,12.68-6.71,12.81c-0.23,0.08-0.4,0.23-0.54,0.41l-0.12-0.2
						c-0.05,0.03-0.1,0.06-0.15,0.1c-3.3-2.85-11.71-10-17.27-4.27c-5.73,5.89-20.75,38.82-19.23,46.65
						c0.87,4.48,5.37,8.97,10.69,10.67c1.45,0.46,2.86,0.69,4.21,0.69c2.61-0.01,4.97-0.89,6.93-2.57c0.36,0.89,0.77,1.74,1.22,2.57
						c-12.28,12.07-10.82,34.47-10.66,36.25c-0.77,4.22-1,9.7,1.71,13.67c1.91,2.81,4.91,4.36,8.94,4.64
						c0.86,0.07,1.68,0.09,2.48,0.09c4.87,0,8.61-1.11,11.13-3.3c2.18-1.9,3.4-4.57,3.63-7.91c0.05-0.77,0.16-1.67,0.3-2.6
						c3.1-0.05,18.03-0.29,20.63-0.33c0.11,0.8,0.2,1.57,0.24,2.25c0.23,3.35,1.44,6.01,3.64,7.91c2.51,2.19,6.24,3.3,11.12,3.3
						c0.79,0,1.62-0.03,2.48-0.09c4.03-0.28,7.05-1.83,8.94-4.64c1.19-1.74,1.77-3.8,2.03-5.89h0.04c0.02-0.23,0.03-0.46,0.04-0.69
						c0.04-0.44,0.08-0.88,0.09-1.31c1.94-29.09-7.56-38.66-10.86-41.07c0.71-0.91,1.39-1.9,2.01-3.03
						c1.88,1.45,4.08,2.24,6.51,2.24c1.35,0,2.77-0.23,4.21-0.69c5.32-1.71,9.83-6.19,10.69-10.67c1.53-7.83-13.5-40.75-19.22-46.65
						c-5.63-5.8-14.18,1.59-17.4,4.37c-0.17,0.14-0.32,0.27-0.44,0.38c-0.03-0.03-0.03-0.09-0.06-0.13
						c-2.32-2.54-2.73-7.07-2.32-11.79c0.21,0.01,0.42,0.01,0.62,0.01c3.43,0,7.15-0.51,10.12-2.18l15.18-8.56l13.81,6.71
						c-0.02,0.33-0.05,0.66-0.03,0.99c0.14,2.3,1.18,4.4,2.92,5.93c1.59,1.39,3.58,2.14,5.68,2.14c0.19,0,0.39,0,0.58-0.02
						c2.3-0.15,4.41-1.19,5.93-2.92C483.19,254.52,483.94,252.31,483.78,249.99"/>
					<path style="clip-path:url(#SVGID_00000144297012240710052140000000355080184678425476_);fill:#DFBFDB;" d="M416.07,255.9
						l-2.64,0.4c1.07,7.14-4.77,10.67-5.01,10.81l1.34,2.31C410.07,269.23,417.41,264.86,416.07,255.9"/>
					<path style="clip-path:url(#SVGID_00000144297012240710052140000000355080184678425476_);fill:#DFBFDB;" d="M430.33,291.41
						c0,0.87-0.65,1.58-1.45,1.58c-0.41,0-0.77-0.18-1.03-0.48c-0.02-0.01-0.02-0.01-0.02-0.02c-0.25-0.28-0.41-0.67-0.41-1.08
						c0-0.88,0.65-1.58,1.45-1.58c0.15,0,0.29,0.03,0.43,0.08C429.9,290.1,430.33,290.69,430.33,291.41 M427.73,295.82
						c2.6,1.92,6.26,1.38,8.19-1.22c1.92-2.59,1.38-6.26-1.22-8.19c-2.59-1.93-6.26-1.39-8.18,1.21
						C424.59,290.22,425.13,293.89,427.73,295.82"/>
					<path style="clip-path:url(#SVGID_00000144297012240710052140000000355080184678425476_);fill:#DFBFDB;" d="M399.17,292.98
						c-0.33,0-0.65-0.13-0.89-0.35c-0.33-0.28-0.55-0.73-0.55-1.23c0-0.87,0.65-1.58,1.44-1.58c0.05,0,0.12,0,0.17,0.02l0.01,0.01
						c0.72,0.08,1.27,0.74,1.27,1.55C400.62,292.27,399.97,292.98,399.17,292.98 M406.06,294.6c1.92-2.59,1.38-6.26-1.21-8.19
						c-2.6-1.93-6.27-1.39-8.19,1.21c-1.93,2.6-1.39,6.26,1.21,8.19C400.47,297.74,404.13,297.2,406.06,294.6"/>
				</g>
			</g>
			<g style="clip-path:url(#SVGID_00000171718453482002353270000008117850196919041718_);">
				<g>
					<defs>
						<rect id="SVGID_00000072995164300617002650000003244991357664431492_" x="315.23" y="172.18" width="217.14" height="205.2"/>
					</defs>
					<clipPath id="SVGID_00000112601873838682386370000008285398587650375553_">
						<use xlink:href="#SVGID_00000072995164300617002650000003244991357664431492_"  style="overflow:visible;"/>
					</clipPath>
					<path style="clip-path:url(#SVGID_00000112601873838682386370000008285398587650375553_);fill:#DFBFDB;" d="M419.02,317.64
						c-0.4,1.73-1.94,3.05-3.79,3.07h-0.04c-1.61,0-2.99-0.97-3.61-2.36c1.76-0.62,2.91-1.79,3.65-3.05
						c0.11,0.14,0.23,0.27,0.34,0.41C416.61,316.79,417.92,317.34,419.02,317.64 M420.02,303.08c-0.29-0.59-0.87-0.98-1.53-1.02
						l-6.69-0.33c-0.66-0.03-1.28,0.3-1.63,0.87l-2.25,3.76c-0.51,0.85-0.23,1.96,0.62,2.46l5.15,3.05
						c-0.31,1.38-1.09,3.39-3.19,4.03c-1.88,0.58-4.11,0.13-5.66-1.14c-2.01-1.63-2.9-4.42-2.57-8.09l-2.66-0.23
						c-0.51,5.79,1.65,8.84,3.55,10.39c1.6,1.3,3.62,1.99,5.64,1.99c0.05,0,0.09-0.01,0.15-0.01c0.87,2.63,3.33,4.56,6.24,4.56h0.06
						c3.19-0.04,5.85-2.35,6.42-5.38c2.4,0.22,4.44-0.36,6.04-1.82c4.03-3.72,3.6-11.55,3.57-11.89l-2.66,0.17
						c0.12,1.91-0.13,7.37-2.72,9.75c-1.12,1.02-2.54,1.39-4.6,1.1c-0.03,0-2.44-0.02-3.8-1.46c-0.56-0.6-0.81-1.41-0.89-2.37
						l4.39-2.25c0.86-0.44,1.21-1.49,0.79-2.37L420.02,303.08z"/>
					<path style="clip-path:url(#SVGID_00000112601873838682386370000008285398587650375553_);fill:#DFBFDB;" d="M479.66,254.5
						c-1.06,1.2-2.51,1.91-4.1,2.02c-1.59,0.13-3.12-0.41-4.32-1.47c-1.2-1.05-1.92-2.5-2.02-4.1c-0.11-1.59,0.42-3.12,1.46-4.32
						c1.06-1.2,2.51-1.91,4.1-2.01c0.13-0.02,0.27-0.02,0.41-0.02c1.44,0,2.83,0.53,3.92,1.48c1.2,1.05,1.92,2.51,2.02,4.1
						C481.23,251.76,480.71,253.3,479.66,254.5 M466.77,247.26l-11.16-5.43l0.03-0.02c0.11-0.08,1.47-1.07,3-2.78l9.91,5.4
						L466.77,247.26z M436.29,249.67c-4.38,2.47-11.04,1.93-14.95,1.32l43.79-27.99l0.16,0.15c0.36,0.47,0.76,0.91,1.21,1.31
						c0.06,0.05,0.13,0.09,0.2,0.14c-2.15,1.27-5.6,3.81-6.9,7.52c-1.54,4.43-5.59,7.44-5.59,7.45L436.29,249.67z M426.03,266.14
						c-1.24-0.31-2.51-0.57-3.85-0.74l-0.33,2.65c8.09,0.98,17.97,4.79,22.68,25.63c4.28,18.94-4.91,28.19-10.03,29.7
						c-2.5,0.74-3.98,2.28-5.4,3.78c-2.27,2.37-4.6,4.82-11.69,5.17c-5.23,0.25-7.88-1.25-11.24-3.18
						c-2.49-1.43-5.31-3.05-9.64-4.21c-2.24-0.59-4.19-1.98-5.81-4.11c-4.54-5.99-5.26-16.05-5.37-18.98
						c-0.27-7.06,0.79-24.4,16.48-33.48c0.1-0.01,0.2-0.02,0.3-0.05c0.37-0.13,8.94-3.34,8.48-15.42
						c-0.24-6.43-1.96-11.54-3.46-14.86c1.42,0.94,2.6,1.89,2.89,2.58c0.54,1.24,1.46,1.28,1.82,1.23c0.63-0.07,1.53-0.19,2.48-4.13
						l2.52,3.64c0.23,0.33,0.61,0.55,1.03,0.57c0.4,0.05,0.8-0.13,1.07-0.45l3.37-3.9l0.21,2.67c0.03,0.49,0.34,0.92,0.78,1.12
						c0.45,0.2,0.97,0.13,1.36-0.16l2.83-2.17c-0.4,1.15-1.09,3.3-1.76,5.95l-11.22,7.17l2.95,0.78c0.23,0.06,3.03,0.77,6.71,1.09
						C423.82,258.45,424.13,262.92,426.03,266.14 M431.44,267.72c4.23-3.65,10.26-8.1,13.72-4.52c5.79,5.95,19.77,37.9,18.53,44.29
						c-0.69,3.52-4.5,7.24-8.89,8.63c-1.97,0.63-5.67,1.24-8.71-1.43c2.19-5.26,3.13-12.4,1.05-21.59
						c-2.92-12.96-8.15-21.07-16.09-25.03C431.17,267.95,431.28,267.85,431.44,267.72 M451.69,349.73
						c-2.37-5.99-7.48-8.13-8.19-8.38c-0.77-0.34-3.56-1.01-11.95,0.82c-8.02,1.74-7.57,9.61-6.8,15.55
						c-3.19,0.05-16.29,0.27-19.91,0.32c0.75-5.89,1.02-13.47-6.84-15.18c-8.39-1.83-11.18-1.16-11.96-0.82
						c-0.6,0.23-4.57,1.88-7.15,6.24c0.39-7.53,2.29-18.86,9.61-25.99c0.04,0.05,0.06,0.11,0.1,0.16c1.99,2.63,4.42,4.33,7.24,5.08
						c3.99,1.07,6.54,2.53,9.01,3.93c3.19,1.83,6.23,3.57,11.45,3.57c0.4,0,0.82-0.01,1.25-0.04c8.15-0.41,11.1-3.5,13.48-5.98
						c1.35-1.41,2.42-2.53,4.22-3.07c1.73-0.51,3.84-1.77,5.86-3.77C443.09,323.52,450.69,329.98,451.69,349.73 M449.34,367.61
						c-1.42,2.08-3.75,3.26-6.92,3.47c-5.37,0.38-9.29-0.49-11.67-2.56c-1.63-1.43-2.54-3.47-2.72-6.07
						c-0.06-1.07-0.25-2.31-0.43-3.64c-1-7.19-1.3-12.79,4.52-14.05c4.29-0.93,6.92-1.15,8.45-1.15c1.24,0,1.77,0.13,1.87,0.17
						l0.12,0.05c0.21,0.07,5.14,1.87,6.97,7.64C451.69,358.23,451.61,364.26,449.34,367.61 M401.95,359.49
						c-0.18,1.33-0.35,2.57-0.42,3.65c-0.17,2.61-1.09,4.66-2.73,6.07c-2.37,2.07-6.31,2.94-11.67,2.56
						c-3.17-0.22-5.49-1.39-6.92-3.47c-2.27-3.35-2.35-9.38-0.2-16.13c1.83-5.77,6.77-7.57,6.98-7.64l0.02,0.01l0.08-0.05
						c0.03-0.02,2.24-0.79,10.35,0.97C403.25,346.72,402.96,352.31,401.95,359.49 M375.42,316.63c-4.38-1.4-8.19-5.11-8.89-8.63
						c-1.25-6.39,12.75-38.34,18.53-44.29c3.27-3.39,8.84,0.41,13.02,3.91c-15.03,10.45-15.61,28.74-15.39,34.33
						c0.08,2.06,0.45,7.39,2.11,12.68C381.71,317.21,377.36,317.26,375.42,316.63 M420.03,224.53c8.37-1.91,23.05,2.31,30.37,4.72
						h-0.01l-8.91,5.69l-0.01,0.01L420.03,224.53z M471.8,212c1.59-0.09,3.13,0.43,4.33,1.47c1.19,1.05,1.91,2.5,2.01,4.1
						c0.22,3.28-2.27,6.13-5.56,6.34c-1.29,0.08-2.55-0.27-3.63-0.97l-1.61-1.52c-0.64-0.89-1.04-1.94-1.11-3.07
						C466.02,215.07,468.52,212.22,471.8,212 M483.78,249.99c-0.15-2.3-1.18-4.4-2.92-5.92c-1.73-1.53-3.94-2.29-6.25-2.13
						c-1.19,0.08-2.32,0.41-3.35,0.93l-10.94-5.97c0.79-1.14,1.5-2.45,2.01-3.9c1.43-4.11,6.6-6.61,7.15-6.87
						c0.87,0.29,1.77,0.46,2.7,0.46c0.2,0,0.39-0.01,0.58-0.02c4.75-0.31,8.36-4.44,8.05-9.19c-0.15-2.3-1.18-4.4-2.93-5.93
						c-1.73-1.52-3.94-2.27-6.25-2.12c-4.56,0.31-8.07,4.1-8.07,8.61c0,0.19,0.01,0.38,0.02,0.58c0.05,0.7,0.2,1.38,0.41,2.04
						l-10.71,6.84h0c-7.7-2.69-28.25-9.07-37.28-4.22l-2.29,1.24l25.14,12.22l-0.01,0l-9.74,6.22c0.43-1.46,0.85-2.73,1.2-3.67
						l1.93-3.92c0.27-0.55,0.13-1.23-0.35-1.63c-0.48-0.39-1.16-0.41-1.66-0.02l-5.19,3.97l-0.26-3.4c-0.03-0.54-0.4-1-0.91-1.17
						c-0.51-0.17-1.07-0.02-1.43,0.39l-4.34,5.01l-3.33-4.83c-0.32-0.44-0.87-0.66-1.39-0.54c-0.53,0.12-0.94,0.55-1.03,1.08
						c-0.23,1.43-0.57,2.91-0.87,3.95c-2.09-2.22-6.19-4.28-7.15-4.75c-0.54-0.25-1.2-0.13-1.6,0.34c-0.4,0.46-0.43,1.14-0.07,1.63
						c0.05,0.07,4.88,7.01,5.29,17.69c0.39,10.03-6.38,12.68-6.71,12.81c-0.23,0.08-0.4,0.23-0.54,0.41l-0.12-0.2
						c-0.05,0.03-0.1,0.06-0.15,0.1c-3.3-2.85-11.71-10-17.27-4.27c-5.73,5.89-20.75,38.82-19.23,46.65
						c0.87,4.48,5.37,8.97,10.69,10.67c1.45,0.46,2.86,0.69,4.21,0.69c2.61-0.01,4.97-0.89,6.93-2.57c0.36,0.89,0.77,1.74,1.22,2.57
						c-12.28,12.07-10.82,34.47-10.66,36.25c-0.77,4.22-1,9.7,1.71,13.67c1.91,2.81,4.91,4.36,8.94,4.64
						c0.86,0.07,1.68,0.09,2.48,0.09c4.87,0,8.61-1.11,11.13-3.3c2.18-1.9,3.4-4.57,3.63-7.91c0.05-0.77,0.16-1.67,0.3-2.6
						c3.1-0.05,18.03-0.29,20.63-0.33c0.11,0.8,0.2,1.57,0.24,2.25c0.23,3.35,1.44,6.01,3.64,7.91c2.51,2.19,6.24,3.3,11.12,3.3
						c0.79,0,1.62-0.03,2.48-0.09c4.03-0.28,7.05-1.83,8.94-4.64c1.19-1.74,1.77-3.8,2.03-5.89h0.04c0.02-0.23,0.03-0.46,0.04-0.69
						c0.04-0.44,0.08-0.88,0.09-1.31c1.94-29.09-7.56-38.66-10.86-41.07c0.71-0.91,1.39-1.9,2.01-3.03
						c1.88,1.45,4.08,2.24,6.51,2.24c1.35,0,2.77-0.23,4.21-0.69c5.32-1.71,9.83-6.19,10.69-10.67c1.53-7.83-13.5-40.75-19.22-46.65
						c-5.63-5.8-14.18,1.59-17.4,4.37c-0.17,0.14-0.32,0.27-0.44,0.38c-0.03-0.03-0.03-0.09-0.06-0.13
						c-2.32-2.54-2.73-7.07-2.32-11.79c0.21,0.01,0.42,0.01,0.62,0.01c3.43,0,7.15-0.51,10.12-2.18l15.18-8.56l13.81,6.71
						c-0.02,0.33-0.05,0.66-0.03,0.99c0.14,2.3,1.18,4.4,2.92,5.93c1.59,1.39,3.58,2.14,5.68,2.14c0.19,0,0.39,0,0.58-0.02
						c2.3-0.15,4.41-1.19,5.93-2.92C483.19,254.52,483.94,252.31,483.78,249.99"/>
					<path style="clip-path:url(#SVGID_00000112601873838682386370000008285398587650375553_);fill:#DFBFDB;" d="M416.07,255.9
						l-2.64,0.4c1.07,7.14-4.77,10.67-5.01,10.81l1.34,2.31C410.07,269.23,417.41,264.86,416.07,255.9"/>
					<path style="clip-path:url(#SVGID_00000112601873838682386370000008285398587650375553_);fill:#DFBFDB;" d="M430.33,291.41
						c0,0.87-0.65,1.58-1.45,1.58c-0.41,0-0.77-0.18-1.03-0.48c-0.02-0.01-0.02-0.01-0.02-0.02c-0.25-0.28-0.41-0.67-0.41-1.08
						c0-0.88,0.65-1.58,1.45-1.58c0.15,0,0.29,0.03,0.43,0.08C429.9,290.1,430.33,290.69,430.33,291.41 M427.73,295.82
						c2.6,1.92,6.26,1.38,8.19-1.22c1.92-2.59,1.38-6.26-1.22-8.19c-2.59-1.93-6.26-1.39-8.18,1.21
						C424.59,290.22,425.13,293.89,427.73,295.82"/>
					<path style="clip-path:url(#SVGID_00000112601873838682386370000008285398587650375553_);fill:#DFBFDB;" d="M399.17,292.98
						c-0.33,0-0.65-0.13-0.89-0.35c-0.33-0.28-0.55-0.73-0.55-1.23c0-0.87,0.65-1.58,1.44-1.58c0.05,0,0.12,0,0.17,0.02l0.01,0.01
						c0.72,0.08,1.27,0.74,1.27,1.55C400.62,292.27,399.97,292.98,399.17,292.98 M406.06,294.6c1.92-2.59,1.38-6.26-1.21-8.19
						c-2.6-1.93-6.27-1.39-8.19,1.21c-1.93,2.6-1.39,6.26,1.21,8.19C400.47,297.74,404.13,297.2,406.06,294.6"/>
				</g>
			</g>
			<g style="clip-path:url(#SVGID_00000171718453482002353270000008117850196919041718_);">
				<g>
					<defs>
						<rect id="SVGID_00000036966713038993759700000004277052522500521612_" x="315.23" y="172.18" width="217.14" height="205.2"/>
					</defs>
					<clipPath id="SVGID_00000151513226681543108410000006587131136250922675_">
						<use xlink:href="#SVGID_00000036966713038993759700000004277052522500521612_"  style="overflow:visible;"/>
					</clipPath>
					<path style="clip-path:url(#SVGID_00000151513226681543108410000006587131136250922675_);fill:#DFBFDB;" d="M419.02,317.64
						c-0.4,1.73-1.94,3.05-3.79,3.07h-0.04c-1.61,0-2.99-0.97-3.61-2.36c1.76-0.62,2.91-1.79,3.65-3.05
						c0.11,0.14,0.23,0.27,0.34,0.41C416.61,316.79,417.92,317.34,419.02,317.64 M420.02,303.08c-0.29-0.59-0.87-0.98-1.53-1.02
						l-6.69-0.33c-0.66-0.03-1.28,0.3-1.63,0.87l-2.25,3.76c-0.51,0.85-0.23,1.96,0.62,2.46l5.15,3.05
						c-0.31,1.38-1.09,3.39-3.19,4.03c-1.88,0.58-4.11,0.13-5.66-1.14c-2.01-1.63-2.9-4.42-2.57-8.09l-2.66-0.23
						c-0.51,5.79,1.65,8.84,3.55,10.39c1.6,1.3,3.62,1.99,5.64,1.99c0.05,0,0.09-0.01,0.15-0.01c0.87,2.63,3.33,4.56,6.24,4.56h0.06
						c3.19-0.04,5.85-2.35,6.42-5.38c2.4,0.22,4.44-0.36,6.04-1.82c4.03-3.72,3.6-11.55,3.57-11.89l-2.66,0.17
						c0.12,1.91-0.13,7.37-2.72,9.75c-1.12,1.02-2.54,1.39-4.6,1.1c-0.03,0-2.44-0.02-3.8-1.46c-0.56-0.6-0.81-1.41-0.89-2.37
						l4.39-2.25c0.86-0.44,1.21-1.49,0.79-2.37L420.02,303.08z"/>
					<path style="clip-path:url(#SVGID_00000151513226681543108410000006587131136250922675_);fill:#DFBFDB;" d="M479.66,254.5
						c-1.06,1.2-2.51,1.91-4.1,2.02c-1.59,0.13-3.12-0.41-4.32-1.47c-1.2-1.05-1.92-2.5-2.02-4.1c-0.11-1.59,0.42-3.12,1.46-4.32
						c1.06-1.2,2.51-1.91,4.1-2.01c0.13-0.02,0.27-0.02,0.41-0.02c1.44,0,2.83,0.53,3.92,1.48c1.2,1.05,1.92,2.51,2.02,4.1
						C481.23,251.76,480.71,253.3,479.66,254.5 M466.77,247.26l-11.16-5.43l0.03-0.02c0.11-0.08,1.47-1.07,3-2.78l9.91,5.4
						L466.77,247.26z M436.29,249.67c-4.38,2.47-11.04,1.93-14.95,1.32l43.79-27.99l0.16,0.15c0.36,0.47,0.76,0.91,1.21,1.31
						c0.06,0.05,0.13,0.09,0.2,0.14c-2.15,1.27-5.6,3.81-6.9,7.52c-1.54,4.43-5.59,7.44-5.59,7.45L436.29,249.67z M426.03,266.14
						c-1.24-0.31-2.51-0.57-3.85-0.74l-0.33,2.65c8.09,0.98,17.97,4.79,22.68,25.63c4.28,18.94-4.91,28.19-10.03,29.7
						c-2.5,0.74-3.98,2.28-5.4,3.78c-2.27,2.37-4.6,4.82-11.69,5.17c-5.23,0.25-7.88-1.25-11.24-3.18
						c-2.49-1.43-5.31-3.05-9.64-4.21c-2.24-0.59-4.19-1.98-5.81-4.11c-4.54-5.99-5.26-16.05-5.37-18.98
						c-0.27-7.06,0.79-24.4,16.48-33.48c0.1-0.01,0.2-0.02,0.3-0.05c0.37-0.13,8.94-3.34,8.48-15.42
						c-0.24-6.43-1.96-11.54-3.46-14.86c1.42,0.94,2.6,1.89,2.89,2.58c0.54,1.24,1.46,1.28,1.82,1.23c0.63-0.07,1.53-0.19,2.48-4.13
						l2.52,3.64c0.23,0.33,0.61,0.55,1.03,0.57c0.4,0.05,0.8-0.13,1.07-0.45l3.37-3.9l0.21,2.67c0.03,0.49,0.34,0.92,0.78,1.12
						c0.45,0.2,0.97,0.13,1.36-0.16l2.83-2.17c-0.4,1.15-1.09,3.3-1.76,5.95l-11.22,7.17l2.95,0.78c0.23,0.06,3.03,0.77,6.71,1.09
						C423.82,258.45,424.13,262.92,426.03,266.14 M431.44,267.72c4.23-3.65,10.26-8.1,13.72-4.52c5.79,5.95,19.77,37.9,18.53,44.29
						c-0.69,3.52-4.5,7.24-8.89,8.63c-1.97,0.63-5.67,1.24-8.71-1.43c2.19-5.26,3.13-12.4,1.05-21.59
						c-2.92-12.96-8.15-21.07-16.09-25.03C431.17,267.95,431.28,267.85,431.44,267.72 M451.69,349.73
						c-2.37-5.99-7.48-8.13-8.19-8.38c-0.77-0.34-3.56-1.01-11.95,0.82c-8.02,1.74-7.57,9.61-6.8,15.55
						c-3.19,0.05-16.29,0.27-19.91,0.32c0.75-5.89,1.02-13.47-6.84-15.18c-8.39-1.83-11.18-1.16-11.96-0.82
						c-0.6,0.23-4.57,1.88-7.15,6.24c0.39-7.53,2.29-18.86,9.61-25.99c0.04,0.05,0.06,0.11,0.1,0.16c1.99,2.63,4.42,4.33,7.24,5.08
						c3.99,1.07,6.54,2.53,9.01,3.93c3.19,1.83,6.23,3.57,11.45,3.57c0.4,0,0.82-0.01,1.25-0.04c8.15-0.41,11.1-3.5,13.48-5.98
						c1.35-1.41,2.42-2.53,4.22-3.07c1.73-0.51,3.84-1.77,5.86-3.77C443.09,323.52,450.69,329.98,451.69,349.73 M449.34,367.61
						c-1.42,2.08-3.75,3.26-6.92,3.47c-5.37,0.38-9.29-0.49-11.67-2.56c-1.63-1.43-2.54-3.47-2.72-6.07
						c-0.06-1.07-0.25-2.31-0.43-3.64c-1-7.19-1.3-12.79,4.52-14.05c4.29-0.93,6.92-1.15,8.45-1.15c1.24,0,1.77,0.13,1.87,0.17
						l0.12,0.05c0.21,0.07,5.14,1.87,6.97,7.64C451.69,358.23,451.61,364.26,449.34,367.61 M401.95,359.49
						c-0.18,1.33-0.35,2.57-0.42,3.65c-0.17,2.61-1.09,4.66-2.73,6.07c-2.37,2.07-6.31,2.94-11.67,2.56
						c-3.17-0.22-5.49-1.39-6.92-3.47c-2.27-3.35-2.35-9.38-0.2-16.13c1.83-5.77,6.77-7.57,6.98-7.64l0.02,0.01l0.08-0.05
						c0.03-0.02,2.24-0.79,10.35,0.97C403.25,346.72,402.96,352.31,401.95,359.49 M375.42,316.63c-4.38-1.4-8.19-5.11-8.89-8.63
						c-1.25-6.39,12.75-38.34,18.53-44.29c3.27-3.39,8.84,0.41,13.02,3.91c-15.03,10.45-15.61,28.74-15.39,34.33
						c0.08,2.06,0.45,7.39,2.11,12.68C381.71,317.21,377.36,317.26,375.42,316.63 M420.03,224.53c8.37-1.91,23.05,2.31,30.37,4.72
						h-0.01l-8.91,5.69l-0.01,0.01L420.03,224.53z M471.8,212c1.59-0.09,3.13,0.43,4.33,1.47c1.19,1.05,1.91,2.5,2.01,4.1
						c0.22,3.28-2.27,6.13-5.56,6.34c-1.29,0.08-2.55-0.27-3.63-0.97l-1.61-1.52c-0.64-0.89-1.04-1.94-1.11-3.07
						C466.02,215.07,468.52,212.22,471.8,212 M483.78,249.99c-0.15-2.3-1.18-4.4-2.92-5.92c-1.73-1.53-3.94-2.29-6.25-2.13
						c-1.19,0.08-2.32,0.41-3.35,0.93l-10.94-5.97c0.79-1.14,1.5-2.45,2.01-3.9c1.43-4.11,6.6-6.61,7.15-6.87
						c0.87,0.29,1.77,0.46,2.7,0.46c0.2,0,0.39-0.01,0.58-0.02c4.75-0.31,8.36-4.44,8.05-9.19c-0.15-2.3-1.18-4.4-2.93-5.93
						c-1.73-1.52-3.94-2.27-6.25-2.12c-4.56,0.31-8.07,4.1-8.07,8.61c0,0.19,0.01,0.38,0.02,0.58c0.05,0.7,0.2,1.38,0.41,2.04
						l-10.71,6.84h0c-7.7-2.69-28.25-9.07-37.28-4.22l-2.29,1.24l25.14,12.22l-0.01,0l-9.74,6.22c0.43-1.46,0.85-2.73,1.2-3.67
						l1.93-3.92c0.27-0.55,0.13-1.23-0.35-1.63c-0.48-0.39-1.16-0.41-1.66-0.02l-5.19,3.97l-0.26-3.4c-0.03-0.54-0.4-1-0.91-1.17
						c-0.51-0.17-1.07-0.02-1.43,0.39l-4.34,5.01l-3.33-4.83c-0.32-0.44-0.87-0.66-1.39-0.54c-0.53,0.12-0.94,0.55-1.03,1.08
						c-0.23,1.43-0.57,2.91-0.87,3.95c-2.09-2.22-6.19-4.28-7.15-4.75c-0.54-0.25-1.2-0.13-1.6,0.34c-0.4,0.46-0.43,1.14-0.07,1.63
						c0.05,0.07,4.88,7.01,5.29,17.69c0.39,10.03-6.38,12.68-6.71,12.81c-0.23,0.08-0.4,0.23-0.54,0.41l-0.12-0.2
						c-0.05,0.03-0.1,0.06-0.15,0.1c-3.3-2.85-11.71-10-17.27-4.27c-5.73,5.89-20.75,38.82-19.23,46.65
						c0.87,4.48,5.37,8.97,10.69,10.67c1.45,0.46,2.86,0.69,4.21,0.69c2.61-0.01,4.97-0.89,6.93-2.57c0.36,0.89,0.77,1.74,1.22,2.57
						c-12.28,12.07-10.82,34.47-10.66,36.25c-0.77,4.22-1,9.7,1.71,13.67c1.91,2.81,4.91,4.36,8.94,4.64
						c0.86,0.07,1.68,0.09,2.48,0.09c4.87,0,8.61-1.11,11.13-3.3c2.18-1.9,3.4-4.57,3.63-7.91c0.05-0.77,0.16-1.67,0.3-2.6
						c3.1-0.05,18.03-0.29,20.63-0.33c0.11,0.8,0.2,1.57,0.24,2.25c0.23,3.35,1.44,6.01,3.64,7.91c2.51,2.19,6.24,3.3,11.12,3.3
						c0.79,0,1.62-0.03,2.48-0.09c4.03-0.28,7.05-1.83,8.94-4.64c1.19-1.74,1.77-3.8,2.03-5.89h0.04c0.02-0.23,0.03-0.46,0.04-0.69
						c0.04-0.44,0.08-0.88,0.09-1.31c1.94-29.09-7.56-38.66-10.86-41.07c0.71-0.91,1.39-1.9,2.01-3.03
						c1.88,1.45,4.08,2.24,6.51,2.24c1.35,0,2.77-0.23,4.21-0.69c5.32-1.71,9.83-6.19,10.69-10.67c1.53-7.83-13.5-40.75-19.22-46.65
						c-5.63-5.8-14.18,1.59-17.4,4.37c-0.17,0.14-0.32,0.27-0.44,0.38c-0.03-0.03-0.03-0.09-0.06-0.13
						c-2.32-2.54-2.73-7.07-2.32-11.79c0.21,0.01,0.42,0.01,0.62,0.01c3.43,0,7.15-0.51,10.12-2.18l15.18-8.56l13.81,6.71
						c-0.02,0.33-0.05,0.66-0.03,0.99c0.14,2.3,1.18,4.4,2.92,5.93c1.59,1.39,3.58,2.14,5.68,2.14c0.19,0,0.39,0,0.58-0.02
						c2.3-0.15,4.41-1.19,5.93-2.92C483.19,254.52,483.94,252.31,483.78,249.99"/>
					<path style="clip-path:url(#SVGID_00000151513226681543108410000006587131136250922675_);fill:#DFBFDB;" d="M416.07,255.9
						l-2.64,0.4c1.07,7.14-4.77,10.67-5.01,10.81l1.34,2.31C410.07,269.23,417.41,264.86,416.07,255.9"/>
					<path style="clip-path:url(#SVGID_00000151513226681543108410000006587131136250922675_);fill:#DFBFDB;" d="M430.33,291.41
						c0,0.87-0.65,1.58-1.45,1.58c-0.41,0-0.77-0.18-1.03-0.48c-0.02-0.01-0.02-0.01-0.02-0.02c-0.25-0.28-0.41-0.67-0.41-1.08
						c0-0.88,0.65-1.58,1.45-1.58c0.15,0,0.29,0.03,0.43,0.08C429.9,290.1,430.33,290.69,430.33,291.41 M427.73,295.82
						c2.6,1.92,6.26,1.38,8.19-1.22c1.92-2.59,1.38-6.26-1.22-8.19c-2.59-1.93-6.26-1.39-8.18,1.21
						C424.59,290.22,425.13,293.89,427.73,295.82"/>
					<path style="clip-path:url(#SVGID_00000151513226681543108410000006587131136250922675_);fill:#DFBFDB;" d="M399.17,292.98
						c-0.33,0-0.65-0.13-0.89-0.35c-0.33-0.28-0.55-0.73-0.55-1.23c0-0.87,0.65-1.58,1.44-1.58c0.05,0,0.12,0,0.17,0.02l0.01,0.01
						c0.72,0.08,1.27,0.74,1.27,1.55C400.62,292.27,399.97,292.98,399.17,292.98 M406.06,294.6c1.92-2.59,1.38-6.26-1.21-8.19
						c-2.6-1.93-6.27-1.39-8.19,1.21c-1.93,2.6-1.39,6.26,1.21,8.19C400.47,297.74,404.13,297.2,406.06,294.6"/>
				</g>
			</g>
		</g>
	</g>
</g>
</svg>
