<?xml version="1.0" encoding="utf-8"?>
<!-- Generator: Adobe Illustrator 26.2.0, SVG Export Plug-In . SVG Version: 6.00 Build 0)  -->
<svg version="1.1" id="Layer_1" xmlns="http://www.w3.org/2000/svg" xmlns:xlink="http://www.w3.org/1999/xlink" x="0px" y="0px"
	 viewBox="0 0 841.89 595.28" style="enable-background:new 0 0 841.89 595.28;" xml:space="preserve">
<style type="text/css">
	.st0{clip-path:url(#SVGID_00000021101718647028381170000009586590579506238598_);}
	.st1{clip-path:url(#SVGID_00000165948671325297797080000003727407753204669116_);fill:#D2EAF6;}
	.st2{clip-path:url(#SVGID_00000165948671325297797080000003727407753204669116_);}
	.st3{clip-path:url(#SVGID_00000000205603409150496460000014949534852243377290_);fill:#D2EAF6;}
	.st4{clip-path:url(#SVGID_00000000943212861955129340000016050756095675489454_);fill:#D2EAF6;}
	.st5{clip-path:url(#SVGID_00000181783797291746988710000005931424965386987697_);fill:#D2EAF6;}
	.st6{clip-path:url(#SVGID_00000133528692039171067550000001003917508125550761_);fill:#D2EAF6;}
</style>
<g>
	<defs>
		<rect id="SVGID_1_" x="295.94" y="172.64" width="250" height="250"/>
	</defs>
	<clipPath id="SVGID_00000070098191543314645450000007417786141833840040_">
		<use xlink:href="#SVGID_1_"  style="overflow:visible;"/>
	</clipPath>
	<g style="clip-path:url(#SVGID_00000070098191543314645450000007417786141833840040_);">
		<defs>
			<rect id="SVGID_00000173844179807043961220000015357673601652812182_" x="295.94" y="172.64" width="250" height="250"/>
		</defs>
		<clipPath id="SVGID_00000054266455715404251920000013267381549665014711_">
			<use xlink:href="#SVGID_00000173844179807043961220000015357673601652812182_"  style="overflow:visible;"/>
		</clipPath>
		<path style="clip-path:url(#SVGID_00000054266455715404251920000013267381549665014711_);fill:#D2EAF6;" d="M420.94,422.64
			c69.03,0,125-55.97,125-125s-55.97-125-125-125s-125,55.97-125,125S351.91,422.64,420.94,422.64"/>
		<g style="clip-path:url(#SVGID_00000054266455715404251920000013267381549665014711_);">
			<g>
				<defs>
					<rect id="SVGID_00000040573915582127811780000005182357465048753585_" x="296.66" y="185.45" width="242.86" height="190.08"/>
				</defs>
				<clipPath id="SVGID_00000154402672177019191490000009688204431615680693_">
					<use xlink:href="#SVGID_00000040573915582127811780000005182357465048753585_"  style="overflow:visible;"/>
				</clipPath>
				<path style="clip-path:url(#SVGID_00000154402672177019191490000009688204431615680693_);fill:#D2EAF6;" d="M458.18,362.72
					h-75.7c-15.25,0-27.65-12.4-27.65-27.65v-24.5h2.09v24.5c0,14.09,11.47,25.56,25.56,25.56h75.7c14.1,0,25.56-11.47,25.56-25.56
					v-11.01h2.09v11.01C485.83,350.31,473.42,362.72,458.18,362.72"/>
				<path style="clip-path:url(#SVGID_00000154402672177019191490000009688204431615680693_);fill:#D2EAF6;" d="M385.75,310.5
					c-0.36-0.44-0.56-0.93-0.66-1.42c-1.73-0.23-3.47-0.38-5.23-0.38h-26.05c-3.43,0-6.27-2.69-6.45-6.11l-0.04-0.69
					c-0.1-1.79,0.53-3.48,1.76-4.78c1.23-1.3,2.9-2.02,4.69-2.02h26.31c2.65,0,5.27,0.31,7.85,0.87c0.03-0.39,0.12-0.77,0.31-1.13
					c0.17-0.32,0.41-0.59,0.69-0.79c-2.9-0.67-5.85-1.04-8.85-1.04h-26.31c-2.37,0-4.57,0.95-6.21,2.67
					c-1.63,1.72-2.45,3.97-2.33,6.33l0.04,0.68c0.24,4.54,3.99,8.09,8.53,8.09h26.05c2.3,0,4.59,0.24,6.83,0.66
					C386.37,311.14,386.04,310.83,385.75,310.5"/>
				<path style="clip-path:url(#SVGID_00000154402672177019191490000009688204431615680693_);fill:#D2EAF6;" d="M435.86,310.7
					c-0.24-0.56-0.34-1.2-0.2-1.81c0.02-0.1,0.06-0.19,0.1-0.28c-3.51-0.19-6.96-0.84-10.29-2.01l-19.53-6.86
					c0.07,0.6-0.01,1.21-0.28,1.73c-0.07,0.13-0.17,0.19-0.25,0.3l19.37,6.8C428.36,309.83,432.08,310.52,435.86,310.7"/>
				<path style="clip-path:url(#SVGID_00000154402672177019191490000009688204431615680693_);fill:#D2EAF6;" d="M482.4,308.69
					h-30.02c0.43,0.59,0.61,1.37,0.53,2.09h29.49c3.56,0,6.46,2.9,6.46,6.46c0,3.56-2.9,6.46-6.46,6.46h-46.16
					c-4.11,0-8.15-0.68-12.03-2.01l-25.25-8.68c-0.9,0.6-1.87,1-2.89,1.21l27.45,9.44c4.09,1.41,8.37,2.13,12.71,2.13h46.16
					c4.71,0,8.55-3.83,8.55-8.55C490.94,312.53,487.11,308.69,482.4,308.69"/>
				<path style="clip-path:url(#SVGID_00000154402672177019191490000009688204431615680693_);fill:#D2EAF6;" d="M377.1,372.34
					c-2.41,0-4.37-1.96-4.37-4.37v-7.08h2.09v7.08c0,1.26,1.02,2.28,2.28,2.28s2.28-1.03,2.28-2.28v-0.29l3.61-6.12l1.8,1.06
					l-3.33,5.65C381.31,370.54,379.41,372.34,377.1,372.34"/>
				<path style="clip-path:url(#SVGID_00000154402672177019191490000009688204431615680693_);fill:#D2EAF6;" d="M462.53,372.68
					c-2.32,0-4.22-1.82-4.36-4.11l-3.25-6.41l1.86-0.94l3.46,6.84v0.25c0,1.26,1.02,2.28,2.28,2.28c1.26,0,2.28-1.02,2.28-2.28
					v-7.07h2.09v7.07C466.9,370.72,464.94,372.68,462.53,372.68"/>
				<path style="clip-path:url(#SVGID_00000154402672177019191490000009688204431615680693_);fill:#D2EAF6;" d="M440.21,282.46
					c-2.06,0.61-3.29,1.89-4.47,3.13c-1.89,1.98-3.85,4.03-9.77,4.32c-4.38,0.21-6.59-1.05-9.39-2.66
					c-2.07-1.18-4.43-2.53-8.01-3.49c-8.28-2.21-9.25-16.45-9.36-19.29c-0.18-4.73,1.91-20.32,9.9-26.05
					c3.81-2.73,9.12-3.43,13.54-3.43c4.55,0,8.16,0.74,8.24,0.76l0.09,0.01c6.45,0.79,13.59,4,17.63,21.9
					C452.18,273.47,444.49,281.2,440.21,282.46 M450.64,257.2c-0.92-4.11-2.05-7.63-3.39-10.6c-0.33-0.75-0.69-1.47-1.06-2.16
					c-1.24-2.29-2.64-4.2-4.23-5.75c-0.5-0.5-1.03-0.95-1.56-1.35c-1.23-0.97-2.56-1.73-4-2.32c-0.64-0.26-1.3-0.49-1.99-0.68
					c-1-0.29-2.05-0.49-3.15-0.63c-0.79-0.16-8.61-1.69-16-0.08c-0.74,0.16-1.48,0.35-2.19,0.59c-1.58,0.5-3.11,1.17-4.49,2.07
					c-0.23,0.14-0.46,0.29-0.68,0.45c-0.35,0.25-0.7,0.53-1.03,0.81c-1.69,1.44-3.11,3.27-4.29,5.3c-0.38,0.64-0.73,1.3-1.06,1.98
					c-2.55,5.23-3.78,11.34-4.21,15.67c-0.16,1.67-0.21,3.07-0.17,4.07c0.02,0.38,0.03,0.84,0.08,1.36
					c0.37,5.41,2.19,17.57,10.82,19.86c3.33,0.88,5.45,2.11,7.51,3.28c2.65,1.52,5.16,2.96,9.49,2.96c0.34,0,0.68-0.01,1.04-0.03
					c6.76-0.34,9.21-2.9,11.17-4.96c1.13-1.18,2.03-2.12,3.55-2.57c2.76-0.81,6.77-3.89,9.05-9.52c0.35-0.87,0.67-1.8,0.92-2.79
					C451.82,268.18,452,263.22,450.64,257.2"/>
				<path style="clip-path:url(#SVGID_00000154402672177019191490000009688204431615680693_);fill:#D2EAF6;" d="M418.81,278.55
					c-1.66,0-3.33-0.57-4.65-1.64c-1.57-1.27-3.35-3.79-2.93-8.59l2.08,0.19c-0.27,3.07,0.48,5.41,2.16,6.78
					c1.32,1.07,3.2,1.45,4.78,0.96c2.44-0.74,2.8-3.76,2.85-4.43c0-0.06,0.01-0.12,0.01-0.18l2.08,0.09c0,0.03,0,0.11-0.01,0.23
					c-0.04,1.1,0.23,1.94,0.82,2.57c1.14,1.21,3.16,1.23,3.2,1.23h0c1.71,0.25,2.93-0.07,3.88-0.93c2.17-1.99,2.38-6.57,2.29-8.16
					l2.08-0.13c0.02,0.27,0.38,6.77-2.96,9.83c-1.41,1.3-3.23,1.79-5.43,1.47c0.05,0.01-2.79,0.02-4.57-1.87
					c-0.13-0.13-0.24-0.27-0.35-0.41c-0.63,1.13-1.65,2.2-3.29,2.69C420.19,278.45,419.5,278.55,418.81,278.55"/>
				<path style="clip-path:url(#SVGID_00000154402672177019191490000009688204431615680693_);fill:#D2EAF6;" d="M424.45,272.94
					l4.52-2.32c0.72-0.37,1.01-1.24,0.67-1.97l-1.49-3.15c-0.24-0.5-0.73-0.82-1.28-0.85l-5.56-0.27c-0.55-0.03-1.07,0.25-1.35,0.72
					l-1.89,3.13c-0.43,0.71-0.19,1.63,0.52,2.05l4.42,2.61C423.45,273.16,423.99,273.18,424.45,272.94"/>
				<path style="clip-path:url(#SVGID_00000154402672177019191490000009688204431615680693_);fill:#D2EAF6;" d="M424.56,281.18
					c-1.96,0.1-3.8-1.16-3.84-1.87c-0.03-0.72,1.52-1.38,3.47-1.49c1.96-0.1,3.58,0.39,3.61,1.11
					C427.85,279.63,426.51,281.07,424.56,281.18 M432.14,276.83l-7.85-1.09l-0.24-0.04l-0.05-0.01l-3.93,0.61l-0.99,0.15l-2.78,0.42
					c0,0,0.11,0.57,0.44,1.38c0.83,2.02,3,5.51,8.08,5.16c5.73-0.41,6.97-4.03,7.24-5.72C432.15,277.17,432.14,276.83,432.14,276.83
					"/>
				<path style="clip-path:url(#SVGID_00000154402672177019191490000009688204431615680693_);fill:#D2EAF6;" d="M408.01,259.08
					c-0.03-2.99,2.38-5.45,5.37-5.48h0.05c2.97,0,5.4,2.4,5.43,5.37l-2.09,0.02c-0.02-1.83-1.51-3.31-3.34-3.31h-0.03
					c-1.84,0.02-3.33,1.53-3.31,3.37L408.01,259.08z"/>
				<path style="clip-path:url(#SVGID_00000154402672177019191490000009688204431615680693_);fill:#D2EAF6;" d="M430.9,259.28
					c-0.03-2.99,2.38-5.45,5.38-5.48h0.05c2.97,0,5.4,2.4,5.43,5.38l-2.09,0.02c-0.02-1.83-1.51-3.31-3.34-3.31h-0.03
					c-1.84,0.02-3.33,1.53-3.31,3.38L430.9,259.28z"/>
				<path style="clip-path:url(#SVGID_00000154402672177019191490000009688204431615680693_);fill:#D2EAF6;" d="M393.74,247.07
					c-1.17,0-2.63-0.14-4.49-0.48c-11.07-2.04-12.82-10.41-13.11-17.48c-0.17-4.23,2.18-5.74,3.6-6.26
					c1.98-0.72,3.84,0.31,3.91,0.36c6.96,4.09,17.18,4.36,23.29,4.52c2.46,0.06,4.24,0.11,5.24,0.37c3.37,0.87,3.37,4.73,2.91,6.65
					l-2.03-0.49c0.03-0.14,0.82-3.57-1.4-4.14c-0.77-0.2-2.62-0.25-4.77-0.3c-6.31-0.17-16.87-0.44-24.28-4.8
					c0,0-1.1-0.59-2.15-0.21c-1.59,0.59-2.32,1.97-2.23,4.22c0.28,6.69,1.85,13.76,11.41,15.51c5.45,1.01,6.76,0.12,7.92-0.66
					c1.4-0.95,2.65-1.56,5.94-0.88l-0.42,2.04c-2.68-0.55-3.38-0.08-4.35,0.57C397.72,246.29,396.55,247.07,393.74,247.07"/>
				<path style="clip-path:url(#SVGID_00000154402672177019191490000009688204431615680693_);fill:#D2EAF6;" d="M409.07,238.09
					l-2.09-0.04c0-0.18-0.11-1.81-2.93-2.2c-3.11-0.43-11.23-2.07-19.36-8.13c-2.18-1.62-3.89-2.23-4.82-1.71
					c-1.41,0.78-1.46,4.06-1.37,5.15l-2.08,0.18c-0.05-0.57-0.41-5.58,2.43-7.15c1.77-0.99,4.09-0.38,7.09,1.86
					c7.73,5.77,15.44,7.33,18.39,7.74C408.16,234.31,409.1,236.83,409.07,238.09"/>
				<path style="clip-path:url(#SVGID_00000154402672177019191490000009688204431615680693_);fill:#D2EAF6;" d="M402.38,305.57
					c-0.42,0.99-0.81,1.91-1.1,2.73c-0.76,2.17-1.97,3.65-3.57,4.4c-2.02,0.94-4.74,0.78-8.09-0.48c-1.94-0.73-3.17-1.9-3.73-3.58
					c-1.05-3.07,0.21-7.96,3.37-13.07c2.53-4.07,6.22-4.53,6.43-4.55l0.01,0.01l0.08-0.03c0.02,0.01,1.69-0.14,6.73,2.77
					C406.15,295.86,404.68,300.16,402.38,305.57 M403.54,291.94c-5.34-3.08-7.45-3.12-8.1-3.02c-0.56,0.08-4.59,0.69-7.53,4.89
					c-0.15,0.21-0.29,0.42-0.43,0.65c-0.22,0.35-0.48,0.77-0.74,1.26c-1.75,3.11-4.25,8.66-2.95,13.2c0.04,0.13,0.09,0.26,0.13,0.39
					c0.23,0.67,0.53,1.27,0.91,1.82c0.91,1.35,2.28,2.36,4.07,3.03c2.16,0.8,4.11,1.21,5.86,1.21c1.15,0,2.2-0.17,3.16-0.52
					c0.23-0.08,0.46-0.17,0.68-0.28c0.63-0.28,1.21-0.65,1.73-1.1c1.27-1.06,2.25-2.57,2.92-4.49c0.28-0.78,0.66-1.67,1.06-2.61
					c0.56-1.32,1.21-2.84,1.7-4.41c0.21-0.67,0.39-1.35,0.53-2.02C407.14,296.85,406.75,293.8,403.54,291.94"/>
				<path style="clip-path:url(#SVGID_00000154402672177019191490000009688204431615680693_);fill:#D2EAF6;" d="M450.99,318.51
					c-0.92,1.35-2.38,2.09-4.46,2.23c-3.52,0.23-6.07-0.32-7.61-1.67c-1.05-0.91-1.64-2.23-1.75-3.92
					c-0.05-0.71-0.16-1.54-0.29-2.42c-0.65-4.67-0.85-8.31,2.87-9.13c2.84-0.61,4.57-0.76,5.58-0.76c0.76,0,1.09,0.08,1.16,0.1
					l0.09,0.03c0.14,0.04,3.33,1.22,4.52,4.96C452.52,312.38,452.48,316.33,450.99,318.51 M453.94,310.78
					c-0.13-0.77-0.29-1.47-0.44-2.09c-0.14-0.53-0.28-0.99-0.4-1.37c-1.45-4.54-5.27-6.09-5.78-6.28c-0.54-0.23-2.45-0.67-8.01,0.54
					c-3.93,0.85-4.87,3.84-4.89,6.94c-0.01,0.71,0.03,1.41,0.1,2.1c0.08,0.85,0.19,1.66,0.29,2.41c0.12,0.83,0.22,1.61,0.27,2.27
					c0.16,2.26,0.99,4.06,2.46,5.36c1.7,1.48,4.21,2.23,7.48,2.23c0.53,0,1.08-0.03,1.65-0.06c2.73-0.19,4.76-1.24,6.05-3.14
					C454.48,317.09,454.41,313.56,453.94,310.78"/>
				<path style="clip-path:url(#SVGID_00000154402672177019191490000009688204431615680693_);fill:#D2EAF6;" d="M356.83,295.13
					c-2.6-0.03-5.03-1.07-6.84-2.93c-1.82-1.86-2.8-4.31-2.77-6.91c0.06-5.36,4.39-9.72,9.84-9.61c2.06,0.03,4.01,0.69,5.64,1.89
					c0.55-1.29,1.5-2.39,2.69-3.13c-1.54-1.3-2.47-3.24-2.44-5.3c0.02-1.83,0.75-3.54,2.06-4.82c1.31-1.28,3.08-1.98,4.87-1.95
					c2.18,0.03,4.17,1.08,5.43,2.82c1.31-0.81,2.76-1.28,4.27-1.4c1.19-4.19,5.07-7.07,9.45-7.06c2.61,0.03,5.19,0.96,7.09,2.55
					c2.07,1.74,3.19,4.11,3.16,6.67l-2.09-0.03c0.02-1.93-0.84-3.72-2.42-5.05c-1.53-1.29-3.64-2.04-5.77-2.06
					c-3.61-0.01-6.87,2.56-7.57,6.19c-0.09,0.49-0.53,0.94-1.03,0.85c-1.7-0.06-3.36,0.55-4.76,1.65c-0.25,0.19-0.57,0.27-0.88,0.2
					c-0.31-0.07-0.57-0.28-0.71-0.56c-0.8-1.63-2.41-2.66-4.2-2.68c-1.25,0.01-2.47,0.47-3.38,1.35c-0.91,0.89-1.42,2.08-1.43,3.35
					c-0.02,1.99,1.17,3.74,3.03,4.47c0.43,0.17,0.69,0.59,0.66,1.05c-0.03,0.45-0.36,0.84-0.81,0.94c-1.9,0.43-3.36,2.03-3.63,3.97
					c-0.05,0.4-0.33,0.73-0.72,0.85c-0.38,0.12-0.8,0.02-1.08-0.28c-1.44-1.53-3.37-2.38-5.45-2.4c-4.18,0.04-7.68,3.33-7.73,7.55
					c-0.02,2.04,0.75,3.97,2.17,5.43c1.43,1.46,3.33,2.28,5.38,2.3L356.83,295.13z"/>
				<path style="clip-path:url(#SVGID_00000154402672177019191490000009688204431615680693_);fill:#D2EAF6;" d="M481.58,310.65
					l-0.58-2.01c3.48-1.01,5.49-4.66,4.48-8.14c-0.89-3.05-3.81-5.01-6.98-4.69c-0.5,0.05-0.97-0.26-1.11-0.74
					c-0.41-1.41-1.3-2.63-2.55-3.51c-0.26-0.18-0.42-0.47-0.44-0.78c-0.02-0.31,0.1-0.62,0.33-0.83c1.13-1.05,1.57-2.62,1.15-4.08
					c-0.3-1.04-0.99-1.89-1.94-2.42c-0.95-0.52-2.04-0.65-3.08-0.34c-1.62,0.47-2.76,1.87-2.89,3.57c-0.03,0.46-0.37,0.83-0.81,0.93
					c-0.45,0.1-0.91-0.1-1.13-0.5c-0.82-1.43-2.47-2.23-4.13-1.97c-0.4,0.05-0.79-0.11-1.02-0.44c-0.23-0.33-0.25-0.76-0.05-1.11
					c0.89-1.57,1.11-3.38,0.61-5.09c-0.58-2-2.4-3.86-4.53-4.64c-1.58-0.57-4.08-0.84-7.02,1.13l-1.16-1.73
					c2.86-1.92,6.01-2.4,8.89-1.36c2.77,1.01,5.06,3.37,5.83,6.01c0.5,1.71,0.45,3.49-0.1,5.15c1.14,0.16,2.21,0.63,3.09,1.36
					c0.73-1.58,2.12-2.82,3.84-3.32c1.57-0.45,3.23-0.27,4.67,0.52c1.44,0.79,2.48,2.09,2.93,3.66c0.53,1.84,0.17,3.78-0.93,5.29
					c0.96,0.87,1.7,1.93,2.17,3.11h0.07c3.81,0,7.21,2.51,8.29,6.23C488.81,304.5,486.16,309.32,481.58,310.65"/>
				<path style="clip-path:url(#SVGID_00000154402672177019191490000009688204431615680693_);fill:#D2EAF6;" d="M457.85,252.26
					c-5.1,0-6.61-1.67-7.9-3.69c-0.79-1.24-1.37-2.07-3.89-2.04l-0.01-2.09c3.73,0,4.75,1.59,5.66,3.01
					c0.96,1.51,1.89,2.93,7.17,2.71c10.47-0.45,12.13-7.47,13.59-13.66l0.27-1.12c0.53-2.19,0.09-3.69-1.36-4.57
					c-0.9-0.55-1.92-0.71-2.32-0.75c-8.15,2.75-18.52,1.25-24.73,0.35c-2.04-0.29-3.79-0.53-4.58-0.5
					c-1.91,0.11-3.25,4.29-3.59,6.29l-2.06-0.35c0.14-0.8,1.45-7.8,5.53-8.03c0.98-0.06,2.67,0.19,4.99,0.53
					c6.08,0.88,16.26,2.35,23.96-0.33l0.19-0.06l0.2,0.01c0.07,0,1.89,0.08,3.5,1.07c1.29,0.79,3.3,2.72,2.3,6.85l-0.26,1.11
					c-1.47,6.23-3.48,14.75-15.53,15.27C458.58,252.26,458.2,252.26,457.85,252.26"/>
				<path style="clip-path:url(#SVGID_00000154402672177019191490000009688204431615680693_);fill:#D2EAF6;" d="M441.69,239.25
					l-2.02-0.53c0.31-1.24,1.91-3.48,5.7-3.29l0.39,0.02c4.19,0.27,12.92,0.81,19.8-4.4c2.53-1.91,4.66-2.46,6.34-1.64
					c2.74,1.34,2.88,5.7,2.89,6.19l-2.09,0.03c-0.01-0.91-0.36-3.68-1.71-4.34c-1.14-0.56-2.89,0.47-4.16,1.43
					c-7.5,5.68-17.1,5.08-21.19,4.82l-0.39-0.03C442.29,237.33,441.74,239.05,441.69,239.25"/>
			</g>
		</g>
		<g style="clip-path:url(#SVGID_00000054266455715404251920000013267381549665014711_);">
			<g>
				<defs>
					<rect id="SVGID_00000062160225242689206090000014606255364363456397_" x="296.66" y="185.45" width="242.86" height="190.08"/>
				</defs>
				<clipPath id="SVGID_00000123428401411985915900000017859841411911792016_">
					<use xlink:href="#SVGID_00000062160225242689206090000014606255364363456397_"  style="overflow:visible;"/>
				</clipPath>
				<path style="clip-path:url(#SVGID_00000123428401411985915900000017859841411911792016_);fill:#D2EAF6;" d="M458.18,362.72
					h-75.7c-15.25,0-27.65-12.4-27.65-27.65v-24.5h2.09v24.5c0,14.09,11.47,25.56,25.56,25.56h75.7c14.1,0,25.56-11.47,25.56-25.56
					v-11.01h2.09v11.01C485.83,350.31,473.42,362.72,458.18,362.72"/>
				<path style="clip-path:url(#SVGID_00000123428401411985915900000017859841411911792016_);fill:#D2EAF6;" d="M385.75,310.5
					c-0.36-0.44-0.56-0.93-0.66-1.42c-1.73-0.23-3.47-0.38-5.23-0.38h-26.05c-3.43,0-6.27-2.69-6.45-6.11l-0.04-0.69
					c-0.1-1.79,0.53-3.48,1.76-4.78c1.23-1.3,2.9-2.02,4.69-2.02h26.31c2.65,0,5.27,0.31,7.85,0.87c0.03-0.39,0.12-0.77,0.31-1.13
					c0.17-0.32,0.41-0.59,0.69-0.79c-2.9-0.67-5.85-1.04-8.85-1.04h-26.31c-2.37,0-4.57,0.95-6.21,2.67
					c-1.63,1.72-2.45,3.97-2.33,6.33l0.04,0.68c0.24,4.54,3.99,8.09,8.53,8.09h26.05c2.3,0,4.59,0.24,6.83,0.66
					C386.37,311.14,386.04,310.83,385.75,310.5"/>
				<path style="clip-path:url(#SVGID_00000123428401411985915900000017859841411911792016_);fill:#D2EAF6;" d="M435.86,310.7
					c-0.24-0.56-0.34-1.2-0.2-1.81c0.02-0.1,0.06-0.19,0.1-0.28c-3.51-0.19-6.96-0.84-10.29-2.01l-19.53-6.86
					c0.07,0.6-0.01,1.21-0.28,1.73c-0.07,0.13-0.17,0.19-0.25,0.3l19.37,6.8C428.36,309.83,432.08,310.52,435.86,310.7"/>
				<path style="clip-path:url(#SVGID_00000123428401411985915900000017859841411911792016_);fill:#D2EAF6;" d="M482.4,308.69
					h-30.02c0.43,0.59,0.61,1.37,0.53,2.09h29.49c3.56,0,6.46,2.9,6.46,6.46c0,3.56-2.9,6.46-6.46,6.46h-46.16
					c-4.11,0-8.15-0.68-12.03-2.01l-25.25-8.68c-0.9,0.6-1.87,1-2.89,1.21l27.45,9.44c4.09,1.41,8.37,2.13,12.71,2.13h46.16
					c4.71,0,8.55-3.83,8.55-8.55C490.94,312.53,487.11,308.69,482.4,308.69"/>
				<path style="clip-path:url(#SVGID_00000123428401411985915900000017859841411911792016_);fill:#D2EAF6;" d="M377.1,372.34
					c-2.41,0-4.37-1.96-4.37-4.37v-7.08h2.09v7.08c0,1.26,1.02,2.28,2.28,2.28s2.28-1.03,2.28-2.28v-0.29l3.61-6.12l1.8,1.06
					l-3.33,5.65C381.31,370.54,379.41,372.34,377.1,372.34"/>
				<path style="clip-path:url(#SVGID_00000123428401411985915900000017859841411911792016_);fill:#D2EAF6;" d="M462.53,372.68
					c-2.32,0-4.22-1.82-4.36-4.11l-3.25-6.41l1.86-0.94l3.46,6.84v0.25c0,1.26,1.02,2.28,2.28,2.28c1.26,0,2.28-1.02,2.28-2.28
					v-7.07h2.09v7.07C466.9,370.72,464.94,372.68,462.53,372.68"/>
				<path style="clip-path:url(#SVGID_00000123428401411985915900000017859841411911792016_);fill:#D2EAF6;" d="M440.21,282.46
					c-2.06,0.61-3.29,1.89-4.47,3.13c-1.89,1.98-3.85,4.03-9.77,4.32c-4.38,0.21-6.59-1.05-9.39-2.66
					c-2.07-1.18-4.43-2.53-8.01-3.49c-8.28-2.21-9.25-16.45-9.36-19.29c-0.18-4.73,1.91-20.32,9.9-26.05
					c3.81-2.73,9.12-3.43,13.54-3.43c4.55,0,8.16,0.74,8.24,0.76l0.09,0.01c6.45,0.79,13.59,4,17.63,21.9
					C452.18,273.47,444.49,281.2,440.21,282.46 M450.64,257.2c-0.92-4.11-2.05-7.63-3.39-10.6c-0.33-0.75-0.69-1.47-1.06-2.16
					c-1.24-2.29-2.64-4.2-4.23-5.75c-0.5-0.5-1.03-0.95-1.56-1.35c-1.23-0.97-2.56-1.73-4-2.32c-0.64-0.26-1.3-0.49-1.99-0.68
					c-1-0.29-2.05-0.49-3.15-0.63c-0.79-0.16-8.61-1.69-16-0.08c-0.74,0.16-1.48,0.35-2.19,0.59c-1.58,0.5-3.11,1.17-4.49,2.07
					c-0.23,0.14-0.46,0.29-0.68,0.45c-0.35,0.25-0.7,0.53-1.03,0.81c-1.69,1.44-3.11,3.27-4.29,5.3c-0.38,0.64-0.73,1.3-1.06,1.98
					c-2.55,5.23-3.78,11.34-4.21,15.67c-0.16,1.67-0.21,3.07-0.17,4.07c0.02,0.38,0.03,0.84,0.08,1.36
					c0.37,5.41,2.19,17.57,10.82,19.86c3.33,0.88,5.45,2.11,7.51,3.28c2.65,1.52,5.16,2.96,9.49,2.96c0.34,0,0.68-0.01,1.04-0.03
					c6.76-0.34,9.21-2.9,11.17-4.96c1.13-1.18,2.03-2.12,3.55-2.57c2.76-0.81,6.77-3.89,9.05-9.52c0.35-0.87,0.67-1.8,0.92-2.79
					C451.82,268.18,452,263.22,450.64,257.2"/>
				<path style="clip-path:url(#SVGID_00000123428401411985915900000017859841411911792016_);fill:#D2EAF6;" d="M418.81,278.55
					c-1.66,0-3.33-0.57-4.65-1.64c-1.57-1.27-3.35-3.79-2.93-8.59l2.08,0.19c-0.27,3.07,0.48,5.41,2.16,6.78
					c1.32,1.07,3.2,1.45,4.78,0.96c2.44-0.74,2.8-3.76,2.85-4.43c0-0.06,0.01-0.12,0.01-0.18l2.08,0.09c0,0.03,0,0.11-0.01,0.23
					c-0.04,1.1,0.23,1.94,0.82,2.57c1.14,1.21,3.16,1.23,3.2,1.23h0c1.71,0.25,2.93-0.07,3.88-0.93c2.17-1.99,2.38-6.57,2.29-8.16
					l2.08-0.13c0.02,0.27,0.38,6.77-2.96,9.83c-1.41,1.3-3.23,1.79-5.43,1.47c0.05,0.01-2.79,0.02-4.57-1.87
					c-0.13-0.13-0.24-0.27-0.35-0.41c-0.63,1.13-1.65,2.2-3.29,2.69C420.19,278.45,419.5,278.55,418.81,278.55"/>
				<path style="clip-path:url(#SVGID_00000123428401411985915900000017859841411911792016_);fill:#D2EAF6;" d="M424.45,272.94
					l4.52-2.32c0.72-0.37,1.01-1.24,0.67-1.97l-1.49-3.15c-0.24-0.5-0.73-0.82-1.28-0.85l-5.56-0.27c-0.55-0.03-1.07,0.25-1.35,0.72
					l-1.89,3.13c-0.43,0.71-0.19,1.63,0.52,2.05l4.42,2.61C423.45,273.16,423.99,273.18,424.45,272.94"/>
				<path style="clip-path:url(#SVGID_00000123428401411985915900000017859841411911792016_);fill:#D2EAF6;" d="M424.56,281.18
					c-1.96,0.1-3.8-1.16-3.84-1.87c-0.03-0.72,1.52-1.38,3.47-1.49c1.96-0.1,3.58,0.39,3.61,1.11
					C427.85,279.63,426.51,281.07,424.56,281.18 M432.14,276.83l-7.85-1.09l-0.24-0.04l-0.05-0.01l-3.93,0.61l-0.99,0.15l-2.78,0.42
					c0,0,0.11,0.57,0.44,1.38c0.83,2.02,3,5.51,8.08,5.16c5.73-0.41,6.97-4.03,7.24-5.72C432.15,277.17,432.14,276.83,432.14,276.83
					"/>
				<path style="clip-path:url(#SVGID_00000123428401411985915900000017859841411911792016_);fill:#D2EAF6;" d="M408.01,259.08
					c-0.03-2.99,2.38-5.45,5.37-5.48h0.05c2.97,0,5.4,2.4,5.43,5.37l-2.09,0.02c-0.02-1.83-1.51-3.31-3.34-3.31h-0.03
					c-1.84,0.02-3.33,1.53-3.31,3.37L408.01,259.08z"/>
				<path style="clip-path:url(#SVGID_00000123428401411985915900000017859841411911792016_);fill:#D2EAF6;" d="M430.9,259.28
					c-0.03-2.99,2.38-5.45,5.38-5.48h0.05c2.97,0,5.4,2.4,5.43,5.38l-2.09,0.02c-0.02-1.83-1.51-3.31-3.34-3.31h-0.03
					c-1.84,0.02-3.33,1.53-3.31,3.38L430.9,259.28z"/>
				<path style="clip-path:url(#SVGID_00000123428401411985915900000017859841411911792016_);fill:#D2EAF6;" d="M393.74,247.07
					c-1.17,0-2.63-0.14-4.49-0.48c-11.07-2.04-12.82-10.41-13.11-17.48c-0.17-4.23,2.18-5.74,3.6-6.26
					c1.98-0.72,3.84,0.31,3.91,0.36c6.96,4.09,17.18,4.36,23.29,4.52c2.46,0.06,4.24,0.11,5.24,0.37c3.37,0.87,3.37,4.73,2.91,6.65
					l-2.03-0.49c0.03-0.14,0.82-3.57-1.4-4.14c-0.77-0.2-2.62-0.25-4.77-0.3c-6.31-0.17-16.87-0.44-24.28-4.8
					c0,0-1.1-0.59-2.15-0.21c-1.59,0.59-2.32,1.97-2.23,4.22c0.28,6.69,1.85,13.76,11.41,15.51c5.45,1.01,6.76,0.12,7.92-0.66
					c1.4-0.95,2.65-1.56,5.94-0.88l-0.42,2.04c-2.68-0.55-3.38-0.08-4.35,0.57C397.72,246.29,396.55,247.07,393.74,247.07"/>
				<path style="clip-path:url(#SVGID_00000123428401411985915900000017859841411911792016_);fill:#D2EAF6;" d="M409.07,238.09
					l-2.09-0.04c0-0.18-0.11-1.81-2.93-2.2c-3.11-0.43-11.23-2.07-19.36-8.13c-2.18-1.62-3.89-2.23-4.82-1.71
					c-1.41,0.78-1.46,4.06-1.37,5.15l-2.08,0.18c-0.05-0.57-0.41-5.58,2.43-7.15c1.77-0.99,4.09-0.38,7.09,1.86
					c7.73,5.77,15.44,7.33,18.39,7.74C408.16,234.31,409.1,236.83,409.07,238.09"/>
				<path style="clip-path:url(#SVGID_00000123428401411985915900000017859841411911792016_);fill:#D2EAF6;" d="M402.38,305.57
					c-0.42,0.99-0.81,1.91-1.1,2.73c-0.76,2.17-1.97,3.65-3.57,4.4c-2.02,0.94-4.74,0.78-8.09-0.48c-1.94-0.73-3.17-1.9-3.73-3.58
					c-1.05-3.07,0.21-7.96,3.37-13.07c2.53-4.07,6.22-4.53,6.43-4.55l0.01,0.01l0.08-0.03c0.02,0.01,1.69-0.14,6.73,2.77
					C406.15,295.86,404.68,300.16,402.38,305.57 M403.54,291.94c-5.34-3.08-7.45-3.12-8.1-3.02c-0.56,0.08-4.59,0.69-7.53,4.89
					c-0.15,0.21-0.29,0.42-0.43,0.65c-0.22,0.35-0.48,0.77-0.74,1.26c-1.75,3.11-4.25,8.66-2.95,13.2c0.04,0.13,0.09,0.26,0.13,0.39
					c0.23,0.67,0.53,1.27,0.91,1.82c0.91,1.35,2.28,2.36,4.07,3.03c2.16,0.8,4.11,1.21,5.86,1.21c1.15,0,2.2-0.17,3.16-0.52
					c0.23-0.08,0.46-0.17,0.68-0.28c0.63-0.28,1.21-0.65,1.73-1.1c1.27-1.06,2.25-2.57,2.92-4.49c0.28-0.78,0.66-1.67,1.06-2.61
					c0.56-1.32,1.21-2.84,1.7-4.41c0.21-0.67,0.39-1.35,0.53-2.02C407.14,296.85,406.75,293.8,403.54,291.94"/>
				<path style="clip-path:url(#SVGID_00000123428401411985915900000017859841411911792016_);fill:#D2EAF6;" d="M450.99,318.51
					c-0.92,1.35-2.38,2.09-4.46,2.23c-3.52,0.23-6.07-0.32-7.61-1.67c-1.05-0.91-1.64-2.23-1.75-3.92
					c-0.05-0.71-0.16-1.54-0.29-2.42c-0.65-4.67-0.85-8.31,2.87-9.13c2.84-0.61,4.57-0.76,5.58-0.76c0.76,0,1.09,0.08,1.16,0.1
					l0.09,0.03c0.14,0.04,3.33,1.22,4.52,4.96C452.52,312.38,452.48,316.33,450.99,318.51 M453.94,310.78
					c-0.13-0.77-0.29-1.47-0.44-2.09c-0.14-0.53-0.28-0.99-0.4-1.37c-1.45-4.54-5.27-6.09-5.78-6.28c-0.54-0.23-2.45-0.67-8.01,0.54
					c-3.93,0.85-4.87,3.84-4.89,6.94c-0.01,0.71,0.03,1.41,0.1,2.1c0.08,0.85,0.19,1.66,0.29,2.41c0.12,0.83,0.22,1.61,0.27,2.27
					c0.16,2.26,0.99,4.06,2.46,5.36c1.7,1.48,4.21,2.23,7.48,2.23c0.53,0,1.08-0.03,1.65-0.06c2.73-0.19,4.76-1.24,6.05-3.14
					C454.48,317.09,454.41,313.56,453.94,310.78"/>
				<path style="clip-path:url(#SVGID_00000123428401411985915900000017859841411911792016_);fill:#D2EAF6;" d="M356.83,295.13
					c-2.6-0.03-5.03-1.07-6.84-2.93c-1.82-1.86-2.8-4.31-2.77-6.91c0.06-5.36,4.39-9.72,9.84-9.61c2.06,0.03,4.01,0.69,5.64,1.89
					c0.55-1.29,1.5-2.39,2.69-3.13c-1.54-1.3-2.47-3.24-2.44-5.3c0.02-1.83,0.75-3.54,2.06-4.82c1.31-1.28,3.08-1.98,4.87-1.95
					c2.18,0.03,4.17,1.08,5.43,2.82c1.31-0.81,2.76-1.28,4.27-1.4c1.19-4.19,5.07-7.07,9.45-7.06c2.61,0.03,5.19,0.96,7.09,2.55
					c2.07,1.74,3.19,4.11,3.16,6.67l-2.09-0.03c0.02-1.93-0.84-3.72-2.42-5.05c-1.53-1.29-3.64-2.04-5.77-2.06
					c-3.61-0.01-6.87,2.56-7.57,6.19c-0.09,0.49-0.53,0.94-1.03,0.85c-1.7-0.06-3.36,0.55-4.76,1.65c-0.25,0.19-0.57,0.27-0.88,0.2
					c-0.31-0.07-0.57-0.28-0.71-0.56c-0.8-1.63-2.41-2.66-4.2-2.68c-1.25,0.01-2.47,0.47-3.38,1.35c-0.91,0.89-1.42,2.08-1.43,3.35
					c-0.02,1.99,1.17,3.74,3.03,4.47c0.43,0.17,0.69,0.59,0.66,1.05c-0.03,0.45-0.36,0.84-0.81,0.94c-1.9,0.43-3.36,2.03-3.63,3.97
					c-0.05,0.4-0.33,0.73-0.72,0.85c-0.38,0.12-0.8,0.02-1.08-0.28c-1.44-1.53-3.37-2.38-5.45-2.4c-4.18,0.04-7.68,3.33-7.73,7.55
					c-0.02,2.04,0.75,3.97,2.17,5.43c1.43,1.46,3.33,2.28,5.38,2.3L356.83,295.13z"/>
				<path style="clip-path:url(#SVGID_00000123428401411985915900000017859841411911792016_);fill:#D2EAF6;" d="M481.58,310.65
					l-0.58-2.01c3.48-1.01,5.49-4.66,4.48-8.14c-0.89-3.05-3.81-5.01-6.98-4.69c-0.5,0.05-0.97-0.26-1.11-0.74
					c-0.41-1.41-1.3-2.63-2.55-3.51c-0.26-0.18-0.42-0.47-0.44-0.78c-0.02-0.31,0.1-0.62,0.33-0.83c1.13-1.05,1.57-2.62,1.15-4.08
					c-0.3-1.04-0.99-1.89-1.94-2.42c-0.95-0.52-2.04-0.65-3.08-0.34c-1.62,0.47-2.76,1.87-2.89,3.57c-0.03,0.46-0.37,0.83-0.81,0.93
					c-0.45,0.1-0.91-0.1-1.13-0.5c-0.82-1.43-2.47-2.23-4.13-1.97c-0.4,0.05-0.79-0.11-1.02-0.44c-0.23-0.33-0.25-0.76-0.05-1.11
					c0.89-1.57,1.11-3.38,0.61-5.09c-0.58-2-2.4-3.86-4.53-4.64c-1.58-0.57-4.08-0.84-7.02,1.13l-1.16-1.73
					c2.86-1.92,6.01-2.4,8.89-1.36c2.77,1.01,5.06,3.37,5.83,6.01c0.5,1.71,0.45,3.49-0.1,5.15c1.14,0.16,2.21,0.63,3.09,1.36
					c0.73-1.58,2.12-2.82,3.84-3.32c1.57-0.45,3.23-0.27,4.67,0.52c1.44,0.79,2.48,2.09,2.93,3.66c0.53,1.84,0.17,3.78-0.93,5.29
					c0.96,0.87,1.7,1.93,2.17,3.11h0.07c3.81,0,7.21,2.51,8.29,6.23C488.81,304.5,486.16,309.32,481.58,310.65"/>
				<path style="clip-path:url(#SVGID_00000123428401411985915900000017859841411911792016_);fill:#D2EAF6;" d="M457.85,252.26
					c-5.1,0-6.61-1.67-7.9-3.69c-0.79-1.24-1.37-2.07-3.89-2.04l-0.01-2.09c3.73,0,4.75,1.59,5.66,3.01
					c0.96,1.51,1.89,2.93,7.17,2.71c10.47-0.45,12.13-7.47,13.59-13.66l0.27-1.12c0.53-2.19,0.09-3.69-1.36-4.57
					c-0.9-0.55-1.92-0.71-2.32-0.75c-8.15,2.75-18.52,1.25-24.73,0.35c-2.04-0.29-3.79-0.53-4.58-0.5
					c-1.91,0.11-3.25,4.29-3.59,6.29l-2.06-0.35c0.14-0.8,1.45-7.8,5.53-8.03c0.98-0.06,2.67,0.19,4.99,0.53
					c6.08,0.88,16.26,2.35,23.96-0.33l0.19-0.06l0.2,0.01c0.07,0,1.89,0.08,3.5,1.07c1.29,0.79,3.3,2.72,2.3,6.85l-0.26,1.11
					c-1.47,6.23-3.48,14.75-15.53,15.27C458.58,252.26,458.2,252.26,457.85,252.26"/>
				<path style="clip-path:url(#SVGID_00000123428401411985915900000017859841411911792016_);fill:#D2EAF6;" d="M441.69,239.25
					l-2.02-0.53c0.31-1.24,1.91-3.48,5.7-3.29l0.39,0.02c4.19,0.27,12.92,0.81,19.8-4.4c2.53-1.91,4.66-2.46,6.34-1.64
					c2.74,1.34,2.88,5.7,2.89,6.19l-2.09,0.03c-0.01-0.91-0.36-3.68-1.71-4.34c-1.14-0.56-2.89,0.47-4.16,1.43
					c-7.5,5.68-17.1,5.08-21.19,4.82l-0.39-0.03C442.29,237.33,441.74,239.05,441.69,239.25"/>
			</g>
		</g>
		<g style="clip-path:url(#SVGID_00000054266455715404251920000013267381549665014711_);">
			<g>
				<defs>
					<rect id="SVGID_00000021840925587704332680000007508376047322194351_" x="296.66" y="185.45" width="242.86" height="190.08"/>
				</defs>
				<clipPath id="SVGID_00000134236197978555711810000004500436275794148267_">
					<use xlink:href="#SVGID_00000021840925587704332680000007508376047322194351_"  style="overflow:visible;"/>
				</clipPath>
				<path style="clip-path:url(#SVGID_00000134236197978555711810000004500436275794148267_);fill:#D2EAF6;" d="M458.18,362.72
					h-75.7c-15.25,0-27.65-12.4-27.65-27.65v-24.5h2.09v24.5c0,14.09,11.47,25.56,25.56,25.56h75.7c14.1,0,25.56-11.47,25.56-25.56
					v-11.01h2.09v11.01C485.83,350.31,473.42,362.72,458.18,362.72"/>
				<path style="clip-path:url(#SVGID_00000134236197978555711810000004500436275794148267_);fill:#D2EAF6;" d="M385.75,310.5
					c-0.36-0.44-0.56-0.93-0.66-1.42c-1.73-0.23-3.47-0.38-5.23-0.38h-26.05c-3.43,0-6.27-2.69-6.45-6.11l-0.04-0.69
					c-0.1-1.79,0.53-3.48,1.76-4.78c1.23-1.3,2.9-2.02,4.69-2.02h26.31c2.65,0,5.27,0.31,7.85,0.87c0.03-0.39,0.12-0.77,0.31-1.13
					c0.17-0.32,0.41-0.59,0.69-0.79c-2.9-0.67-5.85-1.04-8.85-1.04h-26.31c-2.37,0-4.57,0.95-6.21,2.67
					c-1.63,1.72-2.45,3.97-2.33,6.33l0.04,0.68c0.24,4.54,3.99,8.09,8.53,8.09h26.05c2.3,0,4.59,0.24,6.83,0.66
					C386.37,311.14,386.04,310.83,385.75,310.5"/>
				<path style="clip-path:url(#SVGID_00000134236197978555711810000004500436275794148267_);fill:#D2EAF6;" d="M435.86,310.7
					c-0.24-0.56-0.34-1.2-0.2-1.81c0.02-0.1,0.06-0.19,0.1-0.28c-3.51-0.19-6.96-0.84-10.29-2.01l-19.53-6.86
					c0.07,0.6-0.01,1.21-0.28,1.73c-0.07,0.13-0.17,0.19-0.25,0.3l19.37,6.8C428.36,309.83,432.08,310.52,435.86,310.7"/>
				<path style="clip-path:url(#SVGID_00000134236197978555711810000004500436275794148267_);fill:#D2EAF6;" d="M482.4,308.69
					h-30.02c0.43,0.59,0.61,1.37,0.53,2.09h29.49c3.56,0,6.46,2.9,6.46,6.46c0,3.56-2.9,6.46-6.46,6.46h-46.16
					c-4.11,0-8.15-0.68-12.03-2.01l-25.25-8.68c-0.9,0.6-1.87,1-2.89,1.21l27.45,9.44c4.09,1.41,8.37,2.13,12.71,2.13h46.16
					c4.71,0,8.55-3.83,8.55-8.55C490.94,312.53,487.11,308.69,482.4,308.69"/>
				<path style="clip-path:url(#SVGID_00000134236197978555711810000004500436275794148267_);fill:#D2EAF6;" d="M377.1,372.34
					c-2.41,0-4.37-1.96-4.37-4.37v-7.08h2.09v7.08c0,1.26,1.02,2.28,2.28,2.28s2.28-1.03,2.28-2.28v-0.29l3.61-6.12l1.8,1.06
					l-3.33,5.65C381.31,370.54,379.41,372.34,377.1,372.34"/>
				<path style="clip-path:url(#SVGID_00000134236197978555711810000004500436275794148267_);fill:#D2EAF6;" d="M462.53,372.68
					c-2.32,0-4.22-1.82-4.36-4.11l-3.25-6.41l1.86-0.94l3.46,6.84v0.25c0,1.26,1.02,2.28,2.28,2.28c1.26,0,2.28-1.02,2.28-2.28
					v-7.07h2.09v7.07C466.9,370.72,464.94,372.68,462.53,372.68"/>
				<path style="clip-path:url(#SVGID_00000134236197978555711810000004500436275794148267_);fill:#D2EAF6;" d="M440.21,282.46
					c-2.06,0.61-3.29,1.89-4.47,3.13c-1.89,1.98-3.85,4.03-9.77,4.32c-4.38,0.21-6.59-1.05-9.39-2.66
					c-2.07-1.18-4.43-2.53-8.01-3.49c-8.28-2.21-9.25-16.45-9.36-19.29c-0.18-4.73,1.91-20.32,9.9-26.05
					c3.81-2.73,9.12-3.43,13.54-3.43c4.55,0,8.16,0.74,8.24,0.76l0.09,0.01c6.45,0.79,13.59,4,17.63,21.9
					C452.18,273.47,444.49,281.2,440.21,282.46 M450.64,257.2c-0.92-4.11-2.05-7.63-3.39-10.6c-0.33-0.75-0.69-1.47-1.06-2.16
					c-1.24-2.29-2.64-4.2-4.23-5.75c-0.5-0.5-1.03-0.95-1.56-1.35c-1.23-0.97-2.56-1.73-4-2.32c-0.64-0.26-1.3-0.49-1.99-0.68
					c-1-0.29-2.05-0.49-3.15-0.63c-0.79-0.16-8.61-1.69-16-0.08c-0.74,0.16-1.48,0.35-2.19,0.59c-1.58,0.5-3.11,1.17-4.49,2.07
					c-0.23,0.14-0.46,0.29-0.68,0.45c-0.35,0.25-0.7,0.53-1.03,0.81c-1.69,1.44-3.11,3.27-4.29,5.3c-0.38,0.64-0.73,1.3-1.06,1.98
					c-2.55,5.23-3.78,11.34-4.21,15.67c-0.16,1.67-0.21,3.07-0.17,4.07c0.02,0.38,0.03,0.84,0.08,1.36
					c0.37,5.41,2.19,17.57,10.82,19.86c3.33,0.88,5.45,2.11,7.51,3.28c2.65,1.52,5.16,2.96,9.49,2.96c0.34,0,0.68-0.01,1.04-0.03
					c6.76-0.34,9.21-2.9,11.17-4.96c1.13-1.18,2.03-2.12,3.55-2.57c2.76-0.81,6.77-3.89,9.05-9.52c0.35-0.87,0.67-1.8,0.92-2.79
					C451.82,268.18,452,263.22,450.64,257.2"/>
				<path style="clip-path:url(#SVGID_00000134236197978555711810000004500436275794148267_);fill:#D2EAF6;" d="M418.81,278.55
					c-1.66,0-3.33-0.57-4.65-1.64c-1.57-1.27-3.35-3.79-2.93-8.59l2.08,0.19c-0.27,3.07,0.48,5.41,2.16,6.78
					c1.32,1.07,3.2,1.45,4.78,0.96c2.44-0.74,2.8-3.76,2.85-4.43c0-0.06,0.01-0.12,0.01-0.18l2.08,0.09c0,0.03,0,0.11-0.01,0.23
					c-0.04,1.1,0.23,1.94,0.82,2.57c1.14,1.21,3.16,1.23,3.2,1.23h0c1.71,0.25,2.93-0.07,3.88-0.93c2.17-1.99,2.38-6.57,2.29-8.16
					l2.08-0.13c0.02,0.27,0.38,6.77-2.96,9.83c-1.41,1.3-3.23,1.79-5.43,1.47c0.05,0.01-2.79,0.02-4.57-1.87
					c-0.13-0.13-0.24-0.27-0.35-0.41c-0.63,1.13-1.65,2.2-3.29,2.69C420.19,278.45,419.5,278.55,418.81,278.55"/>
				<path style="clip-path:url(#SVGID_00000134236197978555711810000004500436275794148267_);fill:#D2EAF6;" d="M424.45,272.94
					l4.52-2.32c0.72-0.37,1.01-1.24,0.67-1.97l-1.49-3.15c-0.24-0.5-0.73-0.82-1.28-0.85l-5.56-0.27c-0.55-0.03-1.07,0.25-1.35,0.72
					l-1.89,3.13c-0.43,0.71-0.19,1.63,0.52,2.05l4.42,2.61C423.45,273.16,423.99,273.18,424.45,272.94"/>
				<path style="clip-path:url(#SVGID_00000134236197978555711810000004500436275794148267_);fill:#D2EAF6;" d="M424.56,281.18
					c-1.96,0.1-3.8-1.16-3.84-1.87c-0.03-0.72,1.52-1.38,3.47-1.49c1.96-0.1,3.58,0.39,3.61,1.11
					C427.85,279.63,426.51,281.07,424.56,281.18 M432.14,276.83l-7.85-1.09l-0.24-0.04l-0.05-0.01l-3.93,0.61l-0.99,0.15l-2.78,0.42
					c0,0,0.11,0.57,0.44,1.38c0.83,2.02,3,5.51,8.08,5.16c5.73-0.41,6.97-4.03,7.24-5.72C432.15,277.17,432.14,276.83,432.14,276.83
					"/>
				<path style="clip-path:url(#SVGID_00000134236197978555711810000004500436275794148267_);fill:#D2EAF6;" d="M408.01,259.08
					c-0.03-2.99,2.38-5.45,5.37-5.48h0.05c2.97,0,5.4,2.4,5.43,5.37l-2.09,0.02c-0.02-1.83-1.51-3.31-3.34-3.31h-0.03
					c-1.84,0.02-3.33,1.53-3.31,3.37L408.01,259.08z"/>
				<path style="clip-path:url(#SVGID_00000134236197978555711810000004500436275794148267_);fill:#D2EAF6;" d="M430.9,259.28
					c-0.03-2.99,2.38-5.45,5.38-5.48h0.05c2.97,0,5.4,2.4,5.43,5.38l-2.09,0.02c-0.02-1.83-1.51-3.31-3.34-3.31h-0.03
					c-1.84,0.02-3.33,1.53-3.31,3.38L430.9,259.28z"/>
				<path style="clip-path:url(#SVGID_00000134236197978555711810000004500436275794148267_);fill:#D2EAF6;" d="M393.74,247.07
					c-1.17,0-2.63-0.14-4.49-0.48c-11.07-2.04-12.82-10.41-13.11-17.48c-0.17-4.23,2.18-5.74,3.6-6.26
					c1.98-0.72,3.84,0.31,3.91,0.36c6.96,4.09,17.18,4.36,23.29,4.52c2.46,0.06,4.24,0.11,5.24,0.37c3.37,0.87,3.37,4.73,2.91,6.65
					l-2.03-0.49c0.03-0.14,0.82-3.57-1.4-4.14c-0.77-0.2-2.62-0.25-4.77-0.3c-6.31-0.17-16.87-0.44-24.28-4.8
					c0,0-1.1-0.59-2.15-0.21c-1.59,0.59-2.32,1.97-2.23,4.22c0.28,6.69,1.85,13.76,11.41,15.51c5.45,1.01,6.76,0.12,7.92-0.66
					c1.4-0.95,2.65-1.56,5.94-0.88l-0.42,2.04c-2.68-0.55-3.38-0.08-4.35,0.57C397.72,246.29,396.55,247.07,393.74,247.07"/>
				<path style="clip-path:url(#SVGID_00000134236197978555711810000004500436275794148267_);fill:#D2EAF6;" d="M409.07,238.09
					l-2.09-0.04c0-0.18-0.11-1.81-2.93-2.2c-3.11-0.43-11.23-2.07-19.36-8.13c-2.18-1.62-3.89-2.23-4.82-1.71
					c-1.41,0.78-1.46,4.06-1.37,5.15l-2.08,0.18c-0.05-0.57-0.41-5.58,2.43-7.15c1.77-0.99,4.09-0.38,7.09,1.86
					c7.73,5.77,15.44,7.33,18.39,7.74C408.16,234.31,409.1,236.83,409.07,238.09"/>
				<path style="clip-path:url(#SVGID_00000134236197978555711810000004500436275794148267_);fill:#D2EAF6;" d="M402.38,305.57
					c-0.42,0.99-0.81,1.91-1.1,2.73c-0.76,2.17-1.97,3.65-3.57,4.4c-2.02,0.94-4.74,0.78-8.09-0.48c-1.94-0.73-3.17-1.9-3.73-3.58
					c-1.05-3.07,0.21-7.96,3.37-13.07c2.53-4.07,6.22-4.53,6.43-4.55l0.01,0.01l0.08-0.03c0.02,0.01,1.69-0.14,6.73,2.77
					C406.15,295.86,404.68,300.16,402.38,305.57 M403.54,291.94c-5.34-3.08-7.45-3.12-8.1-3.02c-0.56,0.08-4.59,0.69-7.53,4.89
					c-0.15,0.21-0.29,0.42-0.43,0.65c-0.22,0.35-0.48,0.77-0.74,1.26c-1.75,3.11-4.25,8.66-2.95,13.2c0.04,0.13,0.09,0.26,0.13,0.39
					c0.23,0.67,0.53,1.27,0.91,1.82c0.91,1.35,2.28,2.36,4.07,3.03c2.16,0.8,4.11,1.21,5.86,1.21c1.15,0,2.2-0.17,3.16-0.52
					c0.23-0.08,0.46-0.17,0.68-0.28c0.63-0.28,1.21-0.65,1.73-1.1c1.27-1.06,2.25-2.57,2.92-4.49c0.28-0.78,0.66-1.67,1.06-2.61
					c0.56-1.32,1.21-2.84,1.7-4.41c0.21-0.67,0.39-1.35,0.53-2.02C407.14,296.85,406.75,293.8,403.54,291.94"/>
				<path style="clip-path:url(#SVGID_00000134236197978555711810000004500436275794148267_);fill:#D2EAF6;" d="M450.99,318.51
					c-0.92,1.35-2.38,2.09-4.46,2.23c-3.52,0.23-6.07-0.32-7.61-1.67c-1.05-0.91-1.64-2.23-1.75-3.92
					c-0.05-0.71-0.16-1.54-0.29-2.42c-0.65-4.67-0.85-8.31,2.87-9.13c2.84-0.61,4.57-0.76,5.58-0.76c0.76,0,1.09,0.08,1.16,0.1
					l0.09,0.03c0.14,0.04,3.33,1.22,4.52,4.96C452.52,312.38,452.48,316.33,450.99,318.51 M453.94,310.78
					c-0.13-0.77-0.29-1.47-0.44-2.09c-0.14-0.53-0.28-0.99-0.4-1.37c-1.45-4.54-5.27-6.09-5.78-6.28c-0.54-0.23-2.45-0.67-8.01,0.54
					c-3.93,0.85-4.87,3.84-4.89,6.94c-0.01,0.71,0.03,1.41,0.1,2.1c0.08,0.85,0.19,1.66,0.29,2.41c0.12,0.83,0.22,1.61,0.27,2.27
					c0.16,2.26,0.99,4.06,2.46,5.36c1.7,1.48,4.21,2.23,7.48,2.23c0.53,0,1.08-0.03,1.65-0.06c2.73-0.19,4.76-1.24,6.05-3.14
					C454.48,317.09,454.41,313.56,453.94,310.78"/>
				<path style="clip-path:url(#SVGID_00000134236197978555711810000004500436275794148267_);fill:#D2EAF6;" d="M356.83,295.13
					c-2.6-0.03-5.03-1.07-6.84-2.93c-1.82-1.86-2.8-4.31-2.77-6.91c0.06-5.36,4.39-9.72,9.84-9.61c2.06,0.03,4.01,0.69,5.64,1.89
					c0.55-1.29,1.5-2.39,2.69-3.13c-1.54-1.3-2.47-3.24-2.44-5.3c0.02-1.83,0.75-3.54,2.06-4.82c1.31-1.28,3.08-1.98,4.87-1.95
					c2.18,0.03,4.17,1.08,5.43,2.82c1.31-0.81,2.76-1.28,4.27-1.4c1.19-4.19,5.07-7.07,9.45-7.06c2.61,0.03,5.19,0.96,7.09,2.55
					c2.07,1.74,3.19,4.11,3.16,6.67l-2.09-0.03c0.02-1.93-0.84-3.72-2.42-5.05c-1.53-1.29-3.64-2.04-5.77-2.06
					c-3.61-0.01-6.87,2.56-7.57,6.19c-0.09,0.49-0.53,0.94-1.03,0.85c-1.7-0.06-3.36,0.55-4.76,1.65c-0.25,0.19-0.57,0.27-0.88,0.2
					c-0.31-0.07-0.57-0.28-0.71-0.56c-0.8-1.63-2.41-2.66-4.2-2.68c-1.25,0.01-2.47,0.47-3.38,1.35c-0.91,0.89-1.42,2.08-1.43,3.35
					c-0.02,1.99,1.17,3.74,3.03,4.47c0.43,0.17,0.69,0.59,0.66,1.05c-0.03,0.45-0.36,0.84-0.81,0.94c-1.9,0.43-3.36,2.03-3.63,3.97
					c-0.05,0.4-0.33,0.73-0.72,0.85c-0.38,0.12-0.8,0.02-1.08-0.28c-1.44-1.53-3.37-2.38-5.45-2.4c-4.18,0.04-7.68,3.33-7.73,7.55
					c-0.02,2.04,0.75,3.97,2.17,5.43c1.43,1.46,3.33,2.28,5.38,2.3L356.83,295.13z"/>
				<path style="clip-path:url(#SVGID_00000134236197978555711810000004500436275794148267_);fill:#D2EAF6;" d="M481.58,310.65
					l-0.58-2.01c3.48-1.01,5.49-4.66,4.48-8.14c-0.89-3.05-3.81-5.01-6.98-4.69c-0.5,0.05-0.97-0.26-1.11-0.74
					c-0.41-1.41-1.3-2.63-2.55-3.51c-0.26-0.18-0.42-0.47-0.44-0.78c-0.02-0.31,0.1-0.62,0.33-0.83c1.13-1.05,1.57-2.62,1.15-4.08
					c-0.3-1.04-0.99-1.89-1.94-2.42c-0.95-0.52-2.04-0.65-3.08-0.34c-1.62,0.47-2.76,1.87-2.89,3.57c-0.03,0.46-0.37,0.83-0.81,0.93
					c-0.45,0.1-0.91-0.1-1.13-0.5c-0.82-1.43-2.47-2.23-4.13-1.97c-0.4,0.05-0.79-0.11-1.02-0.44c-0.23-0.33-0.25-0.76-0.05-1.11
					c0.89-1.57,1.11-3.38,0.61-5.09c-0.58-2-2.4-3.86-4.53-4.64c-1.58-0.57-4.08-0.84-7.02,1.13l-1.16-1.73
					c2.86-1.92,6.01-2.4,8.89-1.36c2.77,1.01,5.06,3.37,5.83,6.01c0.5,1.71,0.45,3.49-0.1,5.15c1.14,0.16,2.21,0.63,3.09,1.36
					c0.73-1.58,2.12-2.82,3.84-3.32c1.57-0.45,3.23-0.27,4.67,0.52c1.44,0.79,2.48,2.09,2.93,3.66c0.53,1.84,0.17,3.78-0.93,5.29
					c0.96,0.87,1.7,1.93,2.17,3.11h0.07c3.81,0,7.21,2.51,8.29,6.23C488.81,304.5,486.16,309.32,481.58,310.65"/>
				<path style="clip-path:url(#SVGID_00000134236197978555711810000004500436275794148267_);fill:#D2EAF6;" d="M457.85,252.26
					c-5.1,0-6.61-1.67-7.9-3.69c-0.79-1.24-1.37-2.07-3.89-2.04l-0.01-2.09c3.73,0,4.75,1.59,5.66,3.01
					c0.96,1.51,1.89,2.93,7.17,2.71c10.47-0.45,12.13-7.47,13.59-13.66l0.27-1.12c0.53-2.19,0.09-3.69-1.36-4.57
					c-0.9-0.55-1.92-0.71-2.32-0.75c-8.15,2.75-18.52,1.25-24.73,0.35c-2.04-0.29-3.79-0.53-4.58-0.5
					c-1.91,0.11-3.25,4.29-3.59,6.29l-2.06-0.35c0.14-0.8,1.45-7.8,5.53-8.03c0.98-0.06,2.67,0.19,4.99,0.53
					c6.08,0.88,16.26,2.35,23.96-0.33l0.19-0.06l0.2,0.01c0.07,0,1.89,0.08,3.5,1.07c1.29,0.79,3.3,2.72,2.3,6.85l-0.26,1.11
					c-1.47,6.23-3.48,14.75-15.53,15.27C458.58,252.26,458.2,252.26,457.85,252.26"/>
				<path style="clip-path:url(#SVGID_00000134236197978555711810000004500436275794148267_);fill:#D2EAF6;" d="M441.69,239.25
					l-2.02-0.53c0.31-1.24,1.91-3.48,5.7-3.29l0.39,0.02c4.19,0.27,12.92,0.81,19.8-4.4c2.53-1.91,4.66-2.46,6.34-1.64
					c2.74,1.34,2.88,5.7,2.89,6.19l-2.09,0.03c-0.01-0.91-0.36-3.68-1.71-4.34c-1.14-0.56-2.89,0.47-4.16,1.43
					c-7.5,5.68-17.1,5.08-21.19,4.82l-0.39-0.03C442.29,237.33,441.74,239.05,441.69,239.25"/>
			</g>
		</g>
		<g style="clip-path:url(#SVGID_00000054266455715404251920000013267381549665014711_);">
			<g>
				<defs>
					<rect id="SVGID_00000003085974713080062690000011469279981828508860_" x="296.66" y="185.45" width="242.86" height="190.08"/>
				</defs>
				<clipPath id="SVGID_00000075143425884571573780000007641323583461202867_">
					<use xlink:href="#SVGID_00000003085974713080062690000011469279981828508860_"  style="overflow:visible;"/>
				</clipPath>
				<path style="clip-path:url(#SVGID_00000075143425884571573780000007641323583461202867_);fill:#D2EAF6;" d="M458.18,362.72
					h-75.7c-15.25,0-27.65-12.4-27.65-27.65v-24.5h2.09v24.5c0,14.09,11.47,25.56,25.56,25.56h75.7c14.1,0,25.56-11.47,25.56-25.56
					v-11.01h2.09v11.01C485.83,350.31,473.42,362.72,458.18,362.72"/>
				<path style="clip-path:url(#SVGID_00000075143425884571573780000007641323583461202867_);fill:#D2EAF6;" d="M385.75,310.5
					c-0.36-0.44-0.56-0.93-0.66-1.42c-1.73-0.23-3.47-0.38-5.23-0.38h-26.05c-3.43,0-6.27-2.69-6.45-6.11l-0.04-0.69
					c-0.1-1.79,0.53-3.48,1.76-4.78c1.23-1.3,2.9-2.02,4.69-2.02h26.31c2.65,0,5.27,0.31,7.85,0.87c0.03-0.39,0.12-0.77,0.31-1.13
					c0.17-0.32,0.41-0.59,0.69-0.79c-2.9-0.67-5.85-1.04-8.85-1.04h-26.31c-2.37,0-4.57,0.95-6.21,2.67
					c-1.63,1.72-2.45,3.97-2.33,6.33l0.04,0.68c0.24,4.54,3.99,8.09,8.53,8.09h26.05c2.3,0,4.59,0.24,6.83,0.66
					C386.37,311.14,386.04,310.83,385.75,310.5"/>
				<path style="clip-path:url(#SVGID_00000075143425884571573780000007641323583461202867_);fill:#D2EAF6;" d="M435.86,310.7
					c-0.24-0.56-0.34-1.2-0.2-1.81c0.02-0.1,0.06-0.19,0.1-0.28c-3.51-0.19-6.96-0.84-10.29-2.01l-19.53-6.86
					c0.07,0.6-0.01,1.21-0.28,1.73c-0.07,0.13-0.17,0.19-0.25,0.3l19.37,6.8C428.36,309.83,432.08,310.52,435.86,310.7"/>
				<path style="clip-path:url(#SVGID_00000075143425884571573780000007641323583461202867_);fill:#D2EAF6;" d="M482.4,308.69
					h-30.02c0.43,0.59,0.61,1.37,0.53,2.09h29.49c3.56,0,6.46,2.9,6.46,6.46c0,3.56-2.9,6.46-6.46,6.46h-46.16
					c-4.11,0-8.15-0.68-12.03-2.01l-25.25-8.68c-0.9,0.6-1.87,1-2.89,1.21l27.45,9.44c4.09,1.41,8.37,2.13,12.71,2.13h46.16
					c4.71,0,8.55-3.83,8.55-8.55C490.94,312.53,487.11,308.69,482.4,308.69"/>
				<path style="clip-path:url(#SVGID_00000075143425884571573780000007641323583461202867_);fill:#D2EAF6;" d="M377.1,372.34
					c-2.41,0-4.37-1.96-4.37-4.37v-7.08h2.09v7.08c0,1.26,1.02,2.28,2.28,2.28s2.28-1.03,2.28-2.28v-0.29l3.61-6.12l1.8,1.06
					l-3.33,5.65C381.31,370.54,379.41,372.34,377.1,372.34"/>
				<path style="clip-path:url(#SVGID_00000075143425884571573780000007641323583461202867_);fill:#D2EAF6;" d="M462.53,372.68
					c-2.32,0-4.22-1.82-4.36-4.11l-3.25-6.41l1.86-0.94l3.46,6.84v0.25c0,1.26,1.02,2.28,2.28,2.28c1.26,0,2.28-1.02,2.28-2.28
					v-7.07h2.09v7.07C466.9,370.72,464.94,372.68,462.53,372.68"/>
				<path style="clip-path:url(#SVGID_00000075143425884571573780000007641323583461202867_);fill:#D2EAF6;" d="M440.21,282.46
					c-2.06,0.61-3.29,1.89-4.47,3.13c-1.89,1.98-3.85,4.03-9.77,4.32c-4.38,0.21-6.59-1.05-9.39-2.66
					c-2.07-1.18-4.43-2.53-8.01-3.49c-8.28-2.21-9.25-16.45-9.36-19.29c-0.18-4.73,1.91-20.32,9.9-26.05
					c3.81-2.73,9.12-3.43,13.54-3.43c4.55,0,8.16,0.74,8.24,0.76l0.09,0.01c6.45,0.79,13.59,4,17.63,21.9
					C452.18,273.47,444.49,281.2,440.21,282.46 M450.64,257.2c-0.92-4.11-2.05-7.63-3.39-10.6c-0.33-0.75-0.69-1.47-1.06-2.16
					c-1.24-2.29-2.64-4.2-4.23-5.75c-0.5-0.5-1.03-0.95-1.56-1.35c-1.23-0.97-2.56-1.73-4-2.32c-0.64-0.26-1.3-0.49-1.99-0.68
					c-1-0.29-2.05-0.49-3.15-0.63c-0.79-0.16-8.61-1.69-16-0.08c-0.74,0.16-1.48,0.35-2.19,0.59c-1.58,0.5-3.11,1.17-4.49,2.07
					c-0.23,0.14-0.46,0.29-0.68,0.45c-0.35,0.25-0.7,0.53-1.03,0.81c-1.69,1.44-3.11,3.27-4.29,5.3c-0.38,0.64-0.73,1.3-1.06,1.98
					c-2.55,5.23-3.78,11.34-4.21,15.67c-0.16,1.67-0.21,3.07-0.17,4.07c0.02,0.38,0.03,0.84,0.08,1.36
					c0.37,5.41,2.19,17.57,10.82,19.86c3.33,0.88,5.45,2.11,7.51,3.28c2.65,1.52,5.16,2.96,9.49,2.96c0.34,0,0.68-0.01,1.04-0.03
					c6.76-0.34,9.21-2.9,11.17-4.96c1.13-1.18,2.03-2.12,3.55-2.57c2.76-0.81,6.77-3.89,9.05-9.52c0.35-0.87,0.67-1.8,0.92-2.79
					C451.82,268.18,452,263.22,450.64,257.2"/>
				<path style="clip-path:url(#SVGID_00000075143425884571573780000007641323583461202867_);fill:#D2EAF6;" d="M418.81,278.55
					c-1.66,0-3.33-0.57-4.65-1.64c-1.57-1.27-3.35-3.79-2.93-8.59l2.08,0.19c-0.27,3.07,0.48,5.41,2.16,6.78
					c1.32,1.07,3.2,1.45,4.78,0.96c2.44-0.74,2.8-3.76,2.85-4.43c0-0.06,0.01-0.12,0.01-0.18l2.08,0.09c0,0.03,0,0.11-0.01,0.23
					c-0.04,1.1,0.23,1.94,0.82,2.57c1.14,1.21,3.16,1.23,3.2,1.23h0c1.71,0.25,2.93-0.07,3.88-0.93c2.17-1.99,2.38-6.57,2.29-8.16
					l2.08-0.13c0.02,0.27,0.38,6.77-2.96,9.83c-1.41,1.3-3.23,1.79-5.43,1.47c0.05,0.01-2.79,0.02-4.57-1.87
					c-0.13-0.13-0.24-0.27-0.35-0.41c-0.63,1.13-1.65,2.2-3.29,2.69C420.19,278.45,419.5,278.55,418.81,278.55"/>
				<path style="clip-path:url(#SVGID_00000075143425884571573780000007641323583461202867_);fill:#D2EAF6;" d="M424.45,272.94
					l4.52-2.32c0.72-0.37,1.01-1.24,0.67-1.97l-1.49-3.15c-0.24-0.5-0.73-0.82-1.28-0.85l-5.56-0.27c-0.55-0.03-1.07,0.25-1.35,0.72
					l-1.89,3.13c-0.43,0.71-0.19,1.63,0.52,2.05l4.42,2.61C423.45,273.16,423.99,273.18,424.45,272.94"/>
				<path style="clip-path:url(#SVGID_00000075143425884571573780000007641323583461202867_);fill:#D2EAF6;" d="M424.56,281.18
					c-1.96,0.1-3.8-1.16-3.84-1.87c-0.03-0.72,1.52-1.38,3.47-1.49c1.96-0.1,3.58,0.39,3.61,1.11
					C427.85,279.63,426.51,281.07,424.56,281.18 M432.14,276.83l-7.85-1.09l-0.24-0.04l-0.05-0.01l-3.93,0.61l-0.99,0.15l-2.78,0.42
					c0,0,0.11,0.57,0.44,1.38c0.83,2.02,3,5.51,8.08,5.16c5.73-0.41,6.97-4.03,7.24-5.72C432.15,277.17,432.14,276.83,432.14,276.83
					"/>
				<path style="clip-path:url(#SVGID_00000075143425884571573780000007641323583461202867_);fill:#D2EAF6;" d="M408.01,259.08
					c-0.03-2.99,2.38-5.45,5.37-5.48h0.05c2.97,0,5.4,2.4,5.43,5.37l-2.09,0.02c-0.02-1.83-1.51-3.31-3.34-3.31h-0.03
					c-1.84,0.02-3.33,1.53-3.31,3.37L408.01,259.08z"/>
				<path style="clip-path:url(#SVGID_00000075143425884571573780000007641323583461202867_);fill:#D2EAF6;" d="M430.9,259.28
					c-0.03-2.99,2.38-5.45,5.38-5.48h0.05c2.97,0,5.4,2.4,5.43,5.38l-2.09,0.02c-0.02-1.83-1.51-3.31-3.34-3.31h-0.03
					c-1.84,0.02-3.33,1.53-3.31,3.38L430.9,259.28z"/>
				<path style="clip-path:url(#SVGID_00000075143425884571573780000007641323583461202867_);fill:#D2EAF6;" d="M393.74,247.07
					c-1.17,0-2.63-0.14-4.49-0.48c-11.07-2.04-12.82-10.41-13.11-17.48c-0.17-4.23,2.18-5.74,3.6-6.26
					c1.98-0.72,3.84,0.31,3.91,0.36c6.96,4.09,17.18,4.36,23.29,4.52c2.46,0.06,4.24,0.11,5.24,0.37c3.37,0.87,3.37,4.73,2.91,6.65
					l-2.03-0.49c0.03-0.14,0.82-3.57-1.4-4.14c-0.77-0.2-2.62-0.25-4.77-0.3c-6.31-0.17-16.87-0.44-24.28-4.8
					c0,0-1.1-0.59-2.15-0.21c-1.59,0.59-2.32,1.97-2.23,4.22c0.28,6.69,1.85,13.76,11.41,15.51c5.45,1.01,6.76,0.12,7.92-0.66
					c1.4-0.95,2.65-1.56,5.94-0.88l-0.42,2.04c-2.68-0.55-3.38-0.08-4.35,0.57C397.72,246.29,396.55,247.07,393.74,247.07"/>
				<path style="clip-path:url(#SVGID_00000075143425884571573780000007641323583461202867_);fill:#D2EAF6;" d="M409.07,238.09
					l-2.09-0.04c0-0.18-0.11-1.81-2.93-2.2c-3.11-0.43-11.23-2.07-19.36-8.13c-2.18-1.62-3.89-2.23-4.82-1.71
					c-1.41,0.78-1.46,4.06-1.37,5.15l-2.08,0.18c-0.05-0.57-0.41-5.58,2.43-7.15c1.77-0.99,4.09-0.38,7.09,1.86
					c7.73,5.77,15.44,7.33,18.39,7.74C408.16,234.31,409.1,236.83,409.07,238.09"/>
				<path style="clip-path:url(#SVGID_00000075143425884571573780000007641323583461202867_);fill:#D2EAF6;" d="M402.38,305.57
					c-0.42,0.99-0.81,1.91-1.1,2.73c-0.76,2.17-1.97,3.65-3.57,4.4c-2.02,0.94-4.74,0.78-8.09-0.48c-1.94-0.73-3.17-1.9-3.73-3.58
					c-1.05-3.07,0.21-7.96,3.37-13.07c2.53-4.07,6.22-4.53,6.43-4.55l0.01,0.01l0.08-0.03c0.02,0.01,1.69-0.14,6.73,2.77
					C406.15,295.86,404.68,300.16,402.38,305.57 M403.54,291.94c-5.34-3.08-7.45-3.12-8.1-3.02c-0.56,0.08-4.59,0.69-7.53,4.89
					c-0.15,0.21-0.29,0.42-0.43,0.65c-0.22,0.35-0.48,0.77-0.74,1.26c-1.75,3.11-4.25,8.66-2.95,13.2c0.04,0.13,0.09,0.26,0.13,0.39
					c0.23,0.67,0.53,1.27,0.91,1.82c0.91,1.35,2.28,2.36,4.07,3.03c2.16,0.8,4.11,1.21,5.86,1.21c1.15,0,2.2-0.17,3.16-0.52
					c0.23-0.08,0.46-0.17,0.68-0.28c0.63-0.28,1.21-0.65,1.73-1.1c1.27-1.06,2.25-2.57,2.92-4.49c0.28-0.78,0.66-1.67,1.06-2.61
					c0.56-1.32,1.21-2.84,1.7-4.41c0.21-0.67,0.39-1.35,0.53-2.02C407.14,296.85,406.75,293.8,403.54,291.94"/>
				<path style="clip-path:url(#SVGID_00000075143425884571573780000007641323583461202867_);fill:#D2EAF6;" d="M450.99,318.51
					c-0.92,1.35-2.38,2.09-4.46,2.23c-3.52,0.23-6.07-0.32-7.61-1.67c-1.05-0.91-1.64-2.23-1.75-3.92
					c-0.05-0.71-0.16-1.54-0.29-2.42c-0.65-4.67-0.85-8.31,2.87-9.13c2.84-0.61,4.57-0.76,5.58-0.76c0.76,0,1.09,0.08,1.16,0.1
					l0.09,0.03c0.14,0.04,3.33,1.22,4.52,4.96C452.52,312.38,452.48,316.33,450.99,318.51 M453.94,310.78
					c-0.13-0.77-0.29-1.47-0.44-2.09c-0.14-0.53-0.28-0.99-0.4-1.37c-1.45-4.54-5.27-6.09-5.78-6.28c-0.54-0.23-2.45-0.67-8.01,0.54
					c-3.93,0.85-4.87,3.84-4.89,6.94c-0.01,0.71,0.03,1.41,0.1,2.1c0.08,0.85,0.19,1.66,0.29,2.41c0.12,0.83,0.22,1.61,0.27,2.27
					c0.16,2.26,0.99,4.06,2.46,5.36c1.7,1.48,4.21,2.23,7.48,2.23c0.53,0,1.08-0.03,1.65-0.06c2.73-0.19,4.76-1.24,6.05-3.14
					C454.48,317.09,454.41,313.56,453.94,310.78"/>
				<path style="clip-path:url(#SVGID_00000075143425884571573780000007641323583461202867_);fill:#D2EAF6;" d="M356.83,295.13
					c-2.6-0.03-5.03-1.07-6.84-2.93c-1.82-1.86-2.8-4.31-2.77-6.91c0.06-5.36,4.39-9.72,9.84-9.61c2.06,0.03,4.01,0.69,5.64,1.89
					c0.55-1.29,1.5-2.39,2.69-3.13c-1.54-1.3-2.47-3.24-2.44-5.3c0.02-1.83,0.75-3.54,2.06-4.82c1.31-1.28,3.08-1.98,4.87-1.95
					c2.18,0.03,4.17,1.08,5.43,2.82c1.31-0.81,2.76-1.28,4.27-1.4c1.19-4.19,5.07-7.07,9.45-7.06c2.61,0.03,5.19,0.96,7.09,2.55
					c2.07,1.74,3.19,4.11,3.16,6.67l-2.09-0.03c0.02-1.93-0.84-3.72-2.42-5.05c-1.53-1.29-3.64-2.04-5.77-2.06
					c-3.61-0.01-6.87,2.56-7.57,6.19c-0.09,0.49-0.53,0.94-1.03,0.85c-1.7-0.06-3.36,0.55-4.76,1.65c-0.25,0.19-0.57,0.27-0.88,0.2
					c-0.31-0.07-0.57-0.28-0.71-0.56c-0.8-1.63-2.41-2.66-4.2-2.68c-1.25,0.01-2.47,0.47-3.38,1.35c-0.91,0.89-1.42,2.08-1.43,3.35
					c-0.02,1.99,1.17,3.74,3.03,4.47c0.43,0.17,0.69,0.59,0.66,1.05c-0.03,0.45-0.36,0.84-0.81,0.94c-1.9,0.43-3.36,2.03-3.63,3.97
					c-0.05,0.4-0.33,0.73-0.72,0.85c-0.38,0.12-0.8,0.02-1.08-0.28c-1.44-1.53-3.37-2.38-5.45-2.4c-4.18,0.04-7.68,3.33-7.73,7.55
					c-0.02,2.04,0.75,3.97,2.17,5.43c1.43,1.46,3.33,2.28,5.38,2.3L356.83,295.13z"/>
				<path style="clip-path:url(#SVGID_00000075143425884571573780000007641323583461202867_);fill:#D2EAF6;" d="M481.58,310.65
					l-0.58-2.01c3.48-1.01,5.49-4.66,4.48-8.14c-0.89-3.05-3.81-5.01-6.98-4.69c-0.5,0.05-0.97-0.26-1.11-0.74
					c-0.41-1.41-1.3-2.63-2.55-3.51c-0.26-0.18-0.42-0.47-0.44-0.78c-0.02-0.31,0.1-0.62,0.33-0.83c1.13-1.05,1.57-2.62,1.15-4.08
					c-0.3-1.04-0.99-1.89-1.94-2.42c-0.95-0.52-2.04-0.65-3.08-0.34c-1.62,0.47-2.76,1.87-2.89,3.57c-0.03,0.46-0.37,0.83-0.81,0.93
					c-0.45,0.1-0.91-0.1-1.13-0.5c-0.82-1.43-2.47-2.23-4.13-1.97c-0.4,0.05-0.79-0.11-1.02-0.44c-0.23-0.33-0.25-0.76-0.05-1.11
					c0.89-1.57,1.11-3.38,0.61-5.09c-0.58-2-2.4-3.86-4.53-4.64c-1.58-0.57-4.08-0.84-7.02,1.13l-1.16-1.73
					c2.86-1.92,6.01-2.4,8.89-1.36c2.77,1.01,5.06,3.37,5.83,6.01c0.5,1.71,0.45,3.49-0.1,5.15c1.14,0.16,2.21,0.63,3.09,1.36
					c0.73-1.58,2.12-2.82,3.84-3.32c1.57-0.45,3.23-0.27,4.67,0.52c1.44,0.79,2.48,2.09,2.93,3.66c0.53,1.84,0.17,3.78-0.93,5.29
					c0.96,0.87,1.7,1.93,2.17,3.11h0.07c3.81,0,7.21,2.51,8.29,6.23C488.81,304.5,486.16,309.32,481.58,310.65"/>
				<path style="clip-path:url(#SVGID_00000075143425884571573780000007641323583461202867_);fill:#D2EAF6;" d="M457.85,252.26
					c-5.1,0-6.61-1.67-7.9-3.69c-0.79-1.24-1.37-2.07-3.89-2.04l-0.01-2.09c3.73,0,4.75,1.59,5.66,3.01
					c0.96,1.51,1.89,2.93,7.17,2.71c10.47-0.45,12.13-7.47,13.59-13.66l0.27-1.12c0.53-2.19,0.09-3.69-1.36-4.57
					c-0.9-0.55-1.92-0.71-2.32-0.75c-8.15,2.75-18.52,1.25-24.73,0.35c-2.04-0.29-3.79-0.53-4.58-0.5
					c-1.91,0.11-3.25,4.29-3.59,6.29l-2.06-0.35c0.14-0.8,1.45-7.8,5.53-8.03c0.98-0.06,2.67,0.19,4.99,0.53
					c6.08,0.88,16.26,2.35,23.96-0.33l0.19-0.06l0.2,0.01c0.07,0,1.89,0.08,3.5,1.07c1.29,0.79,3.3,2.72,2.3,6.85l-0.26,1.11
					c-1.47,6.23-3.48,14.75-15.53,15.27C458.58,252.26,458.2,252.26,457.85,252.26"/>
				<path style="clip-path:url(#SVGID_00000075143425884571573780000007641323583461202867_);fill:#D2EAF6;" d="M441.69,239.25
					l-2.02-0.53c0.31-1.24,1.91-3.48,5.7-3.29l0.39,0.02c4.19,0.27,12.92,0.81,19.8-4.4c2.53-1.91,4.66-2.46,6.34-1.64
					c2.74,1.34,2.88,5.7,2.89,6.19l-2.09,0.03c-0.01-0.91-0.36-3.68-1.71-4.34c-1.14-0.56-2.89,0.47-4.16,1.43
					c-7.5,5.68-17.1,5.08-21.19,4.82l-0.39-0.03C442.29,237.33,441.74,239.05,441.69,239.25"/>
			</g>
		</g>
	</g>
</g>
</svg>
